%TF.GenerationSoftware,KiCad,Pcbnew,(5.1.9)-1*%
%TF.CreationDate,2021-03-11T10:21:24+08:00*%
%TF.ProjectId,Retrograde Pad,52657472-6f67-4726-9164-65205061642e,rev?*%
%TF.SameCoordinates,Original*%
%TF.FileFunction,Paste,Bot*%
%TF.FilePolarity,Positive*%
%FSLAX46Y46*%
G04 Gerber Fmt 4.6, Leading zero omitted, Abs format (unit mm)*
G04 Created by KiCad (PCBNEW (5.1.9)-1) date 2021-03-11 10:21:24*
%MOMM*%
%LPD*%
G01*
G04 APERTURE LIST*
%ADD10R,1.500000X1.000000*%
G04 APERTURE END LIST*
%TO.C,C1*%
G36*
G01*
X109218750Y-72025000D02*
X108268750Y-72025000D01*
G75*
G02*
X108018750Y-71775000I0J250000D01*
G01*
X108018750Y-71100000D01*
G75*
G02*
X108268750Y-70850000I250000J0D01*
G01*
X109218750Y-70850000D01*
G75*
G02*
X109468750Y-71100000I0J-250000D01*
G01*
X109468750Y-71775000D01*
G75*
G02*
X109218750Y-72025000I-250000J0D01*
G01*
G37*
G36*
G01*
X109218750Y-74100000D02*
X108268750Y-74100000D01*
G75*
G02*
X108018750Y-73850000I0J250000D01*
G01*
X108018750Y-73175000D01*
G75*
G02*
X108268750Y-72925000I250000J0D01*
G01*
X109218750Y-72925000D01*
G75*
G02*
X109468750Y-73175000I0J-250000D01*
G01*
X109468750Y-73850000D01*
G75*
G02*
X109218750Y-74100000I-250000J0D01*
G01*
G37*
%TD*%
%TO.C,C2*%
G36*
G01*
X145384500Y-110739250D02*
X146334500Y-110739250D01*
G75*
G02*
X146584500Y-110989250I0J-250000D01*
G01*
X146584500Y-111664250D01*
G75*
G02*
X146334500Y-111914250I-250000J0D01*
G01*
X145384500Y-111914250D01*
G75*
G02*
X145134500Y-111664250I0J250000D01*
G01*
X145134500Y-110989250D01*
G75*
G02*
X145384500Y-110739250I250000J0D01*
G01*
G37*
G36*
G01*
X145384500Y-108664250D02*
X146334500Y-108664250D01*
G75*
G02*
X146584500Y-108914250I0J-250000D01*
G01*
X146584500Y-109589250D01*
G75*
G02*
X146334500Y-109839250I-250000J0D01*
G01*
X145384500Y-109839250D01*
G75*
G02*
X145134500Y-109589250I0J250000D01*
G01*
X145134500Y-108914250D01*
G75*
G02*
X145384500Y-108664250I250000J0D01*
G01*
G37*
%TD*%
%TO.C,C3*%
G36*
G01*
X128268750Y-74100000D02*
X127318750Y-74100000D01*
G75*
G02*
X127068750Y-73850000I0J250000D01*
G01*
X127068750Y-73175000D01*
G75*
G02*
X127318750Y-72925000I250000J0D01*
G01*
X128268750Y-72925000D01*
G75*
G02*
X128518750Y-73175000I0J-250000D01*
G01*
X128518750Y-73850000D01*
G75*
G02*
X128268750Y-74100000I-250000J0D01*
G01*
G37*
G36*
G01*
X128268750Y-72025000D02*
X127318750Y-72025000D01*
G75*
G02*
X127068750Y-71775000I0J250000D01*
G01*
X127068750Y-71100000D01*
G75*
G02*
X127318750Y-70850000I250000J0D01*
G01*
X128268750Y-70850000D01*
G75*
G02*
X128518750Y-71100000I0J-250000D01*
G01*
X128518750Y-71775000D01*
G75*
G02*
X128268750Y-72025000I-250000J0D01*
G01*
G37*
%TD*%
%TO.C,C4*%
G36*
G01*
X126525000Y-108664250D02*
X127475000Y-108664250D01*
G75*
G02*
X127725000Y-108914250I0J-250000D01*
G01*
X127725000Y-109589250D01*
G75*
G02*
X127475000Y-109839250I-250000J0D01*
G01*
X126525000Y-109839250D01*
G75*
G02*
X126275000Y-109589250I0J250000D01*
G01*
X126275000Y-108914250D01*
G75*
G02*
X126525000Y-108664250I250000J0D01*
G01*
G37*
G36*
G01*
X126525000Y-110739250D02*
X127475000Y-110739250D01*
G75*
G02*
X127725000Y-110989250I0J-250000D01*
G01*
X127725000Y-111664250D01*
G75*
G02*
X127475000Y-111914250I-250000J0D01*
G01*
X126525000Y-111914250D01*
G75*
G02*
X126275000Y-111664250I0J250000D01*
G01*
X126275000Y-110989250D01*
G75*
G02*
X126525000Y-110739250I250000J0D01*
G01*
G37*
%TD*%
%TO.C,C5*%
G36*
G01*
X147318750Y-72025000D02*
X146368750Y-72025000D01*
G75*
G02*
X146118750Y-71775000I0J250000D01*
G01*
X146118750Y-71100000D01*
G75*
G02*
X146368750Y-70850000I250000J0D01*
G01*
X147318750Y-70850000D01*
G75*
G02*
X147568750Y-71100000I0J-250000D01*
G01*
X147568750Y-71775000D01*
G75*
G02*
X147318750Y-72025000I-250000J0D01*
G01*
G37*
G36*
G01*
X147318750Y-74100000D02*
X146368750Y-74100000D01*
G75*
G02*
X146118750Y-73850000I0J250000D01*
G01*
X146118750Y-73175000D01*
G75*
G02*
X146368750Y-72925000I250000J0D01*
G01*
X147318750Y-72925000D01*
G75*
G02*
X147568750Y-73175000I0J-250000D01*
G01*
X147568750Y-73850000D01*
G75*
G02*
X147318750Y-74100000I-250000J0D01*
G01*
G37*
%TD*%
%TO.C,C6*%
G36*
G01*
X107475000Y-110739250D02*
X108425000Y-110739250D01*
G75*
G02*
X108675000Y-110989250I0J-250000D01*
G01*
X108675000Y-111664250D01*
G75*
G02*
X108425000Y-111914250I-250000J0D01*
G01*
X107475000Y-111914250D01*
G75*
G02*
X107225000Y-111664250I0J250000D01*
G01*
X107225000Y-110989250D01*
G75*
G02*
X107475000Y-110739250I250000J0D01*
G01*
G37*
G36*
G01*
X107475000Y-108664250D02*
X108425000Y-108664250D01*
G75*
G02*
X108675000Y-108914250I0J-250000D01*
G01*
X108675000Y-109589250D01*
G75*
G02*
X108425000Y-109839250I-250000J0D01*
G01*
X107475000Y-109839250D01*
G75*
G02*
X107225000Y-109589250I0J250000D01*
G01*
X107225000Y-108914250D01*
G75*
G02*
X107475000Y-108664250I250000J0D01*
G01*
G37*
%TD*%
%TO.C,C7*%
G36*
G01*
X147318750Y-93150000D02*
X146368750Y-93150000D01*
G75*
G02*
X146118750Y-92900000I0J250000D01*
G01*
X146118750Y-92225000D01*
G75*
G02*
X146368750Y-91975000I250000J0D01*
G01*
X147318750Y-91975000D01*
G75*
G02*
X147568750Y-92225000I0J-250000D01*
G01*
X147568750Y-92900000D01*
G75*
G02*
X147318750Y-93150000I-250000J0D01*
G01*
G37*
G36*
G01*
X147318750Y-91075000D02*
X146368750Y-91075000D01*
G75*
G02*
X146118750Y-90825000I0J250000D01*
G01*
X146118750Y-90150000D01*
G75*
G02*
X146368750Y-89900000I250000J0D01*
G01*
X147318750Y-89900000D01*
G75*
G02*
X147568750Y-90150000I0J-250000D01*
G01*
X147568750Y-90825000D01*
G75*
G02*
X147318750Y-91075000I-250000J0D01*
G01*
G37*
%TD*%
%TO.C,C8*%
G36*
G01*
X107475000Y-89900000D02*
X108425000Y-89900000D01*
G75*
G02*
X108675000Y-90150000I0J-250000D01*
G01*
X108675000Y-90825000D01*
G75*
G02*
X108425000Y-91075000I-250000J0D01*
G01*
X107475000Y-91075000D01*
G75*
G02*
X107225000Y-90825000I0J250000D01*
G01*
X107225000Y-90150000D01*
G75*
G02*
X107475000Y-89900000I250000J0D01*
G01*
G37*
G36*
G01*
X107475000Y-91975000D02*
X108425000Y-91975000D01*
G75*
G02*
X108675000Y-92225000I0J-250000D01*
G01*
X108675000Y-92900000D01*
G75*
G02*
X108425000Y-93150000I-250000J0D01*
G01*
X107475000Y-93150000D01*
G75*
G02*
X107225000Y-92900000I0J250000D01*
G01*
X107225000Y-92225000D01*
G75*
G02*
X107475000Y-91975000I250000J0D01*
G01*
G37*
%TD*%
D10*
%TO.C,D18*%
X104843750Y-71425000D03*
X104843750Y-74625000D03*
X99943750Y-71425000D03*
X99943750Y-74625000D03*
%TD*%
%TO.C,D19*%
X138043750Y-112439250D03*
X138043750Y-109239250D03*
X142943750Y-112439250D03*
X142943750Y-109239250D03*
%TD*%
%TO.C,D20*%
X118993750Y-74625000D03*
X118993750Y-71425000D03*
X123893750Y-74625000D03*
X123893750Y-71425000D03*
%TD*%
%TO.C,D21*%
X123893750Y-109239250D03*
X123893750Y-112439250D03*
X118993750Y-109239250D03*
X118993750Y-112439250D03*
%TD*%
%TO.C,D22*%
X142943750Y-71425000D03*
X142943750Y-74625000D03*
X138043750Y-71425000D03*
X138043750Y-74625000D03*
%TD*%
%TO.C,D23*%
X99943750Y-112439250D03*
X99943750Y-109239250D03*
X104843750Y-112439250D03*
X104843750Y-109239250D03*
%TD*%
%TO.C,D24*%
X138043750Y-93675000D03*
X138043750Y-90475000D03*
X142943750Y-93675000D03*
X142943750Y-90475000D03*
%TD*%
%TO.C,D25*%
X104843750Y-90475000D03*
X104843750Y-93675000D03*
X99943750Y-90475000D03*
X99943750Y-93675000D03*
%TD*%
%TO.C,D1*%
G36*
G01*
X188568750Y-80618751D02*
X188568750Y-79718749D01*
G75*
G02*
X188818749Y-79468750I249999J0D01*
G01*
X189468751Y-79468750D01*
G75*
G02*
X189718750Y-79718749I0J-249999D01*
G01*
X189718750Y-80618751D01*
G75*
G02*
X189468751Y-80868750I-249999J0D01*
G01*
X188818749Y-80868750D01*
G75*
G02*
X188568750Y-80618751I0J249999D01*
G01*
G37*
G36*
G01*
X186518750Y-80618751D02*
X186518750Y-79718749D01*
G75*
G02*
X186768749Y-79468750I249999J0D01*
G01*
X187418751Y-79468750D01*
G75*
G02*
X187668750Y-79718749I0J-249999D01*
G01*
X187668750Y-80618751D01*
G75*
G02*
X187418751Y-80868750I-249999J0D01*
G01*
X186768749Y-80868750D01*
G75*
G02*
X186518750Y-80618751I0J249999D01*
G01*
G37*
%TD*%
%TO.C,D2*%
G36*
G01*
X83687499Y-60312500D02*
X84587501Y-60312500D01*
G75*
G02*
X84837500Y-60562499I0J-249999D01*
G01*
X84837500Y-61212501D01*
G75*
G02*
X84587501Y-61462500I-249999J0D01*
G01*
X83687499Y-61462500D01*
G75*
G02*
X83437500Y-61212501I0J249999D01*
G01*
X83437500Y-60562499D01*
G75*
G02*
X83687499Y-60312500I249999J0D01*
G01*
G37*
G36*
G01*
X83687499Y-62362500D02*
X84587501Y-62362500D01*
G75*
G02*
X84837500Y-62612499I0J-249999D01*
G01*
X84837500Y-63262501D01*
G75*
G02*
X84587501Y-63512500I-249999J0D01*
G01*
X83687499Y-63512500D01*
G75*
G02*
X83437500Y-63262501I0J249999D01*
G01*
X83437500Y-62612499D01*
G75*
G02*
X83687499Y-62362500I249999J0D01*
G01*
G37*
%TD*%
%TO.C,D3*%
G36*
G01*
X83687499Y-79362500D02*
X84587501Y-79362500D01*
G75*
G02*
X84837500Y-79612499I0J-249999D01*
G01*
X84837500Y-80262501D01*
G75*
G02*
X84587501Y-80512500I-249999J0D01*
G01*
X83687499Y-80512500D01*
G75*
G02*
X83437500Y-80262501I0J249999D01*
G01*
X83437500Y-79612499D01*
G75*
G02*
X83687499Y-79362500I249999J0D01*
G01*
G37*
G36*
G01*
X83687499Y-81412500D02*
X84587501Y-81412500D01*
G75*
G02*
X84837500Y-81662499I0J-249999D01*
G01*
X84837500Y-82312501D01*
G75*
G02*
X84587501Y-82562500I-249999J0D01*
G01*
X83687499Y-82562500D01*
G75*
G02*
X83437500Y-82312501I0J249999D01*
G01*
X83437500Y-81662499D01*
G75*
G02*
X83687499Y-81412500I249999J0D01*
G01*
G37*
%TD*%
%TO.C,D4*%
G36*
G01*
X83687499Y-100462500D02*
X84587501Y-100462500D01*
G75*
G02*
X84837500Y-100712499I0J-249999D01*
G01*
X84837500Y-101362501D01*
G75*
G02*
X84587501Y-101612500I-249999J0D01*
G01*
X83687499Y-101612500D01*
G75*
G02*
X83437500Y-101362501I0J249999D01*
G01*
X83437500Y-100712499D01*
G75*
G02*
X83687499Y-100462500I249999J0D01*
G01*
G37*
G36*
G01*
X83687499Y-98412500D02*
X84587501Y-98412500D01*
G75*
G02*
X84837500Y-98662499I0J-249999D01*
G01*
X84837500Y-99312501D01*
G75*
G02*
X84587501Y-99562500I-249999J0D01*
G01*
X83687499Y-99562500D01*
G75*
G02*
X83437500Y-99312501I0J249999D01*
G01*
X83437500Y-98662499D01*
G75*
G02*
X83687499Y-98412500I249999J0D01*
G01*
G37*
%TD*%
%TO.C,D5*%
G36*
G01*
X83687499Y-119512500D02*
X84587501Y-119512500D01*
G75*
G02*
X84837500Y-119762499I0J-249999D01*
G01*
X84837500Y-120412501D01*
G75*
G02*
X84587501Y-120662500I-249999J0D01*
G01*
X83687499Y-120662500D01*
G75*
G02*
X83437500Y-120412501I0J249999D01*
G01*
X83437500Y-119762499D01*
G75*
G02*
X83687499Y-119512500I249999J0D01*
G01*
G37*
G36*
G01*
X83687499Y-117462500D02*
X84587501Y-117462500D01*
G75*
G02*
X84837500Y-117712499I0J-249999D01*
G01*
X84837500Y-118362501D01*
G75*
G02*
X84587501Y-118612500I-249999J0D01*
G01*
X83687499Y-118612500D01*
G75*
G02*
X83437500Y-118362501I0J249999D01*
G01*
X83437500Y-117712499D01*
G75*
G02*
X83687499Y-117462500I249999J0D01*
G01*
G37*
%TD*%
%TO.C,D6*%
G36*
G01*
X102737499Y-62362500D02*
X103637501Y-62362500D01*
G75*
G02*
X103887500Y-62612499I0J-249999D01*
G01*
X103887500Y-63262501D01*
G75*
G02*
X103637501Y-63512500I-249999J0D01*
G01*
X102737499Y-63512500D01*
G75*
G02*
X102487500Y-63262501I0J249999D01*
G01*
X102487500Y-62612499D01*
G75*
G02*
X102737499Y-62362500I249999J0D01*
G01*
G37*
G36*
G01*
X102737499Y-60312500D02*
X103637501Y-60312500D01*
G75*
G02*
X103887500Y-60562499I0J-249999D01*
G01*
X103887500Y-61212501D01*
G75*
G02*
X103637501Y-61462500I-249999J0D01*
G01*
X102737499Y-61462500D01*
G75*
G02*
X102487500Y-61212501I0J249999D01*
G01*
X102487500Y-60562499D01*
G75*
G02*
X102737499Y-60312500I249999J0D01*
G01*
G37*
%TD*%
%TO.C,D7*%
G36*
G01*
X102737499Y-79362500D02*
X103637501Y-79362500D01*
G75*
G02*
X103887500Y-79612499I0J-249999D01*
G01*
X103887500Y-80262501D01*
G75*
G02*
X103637501Y-80512500I-249999J0D01*
G01*
X102737499Y-80512500D01*
G75*
G02*
X102487500Y-80262501I0J249999D01*
G01*
X102487500Y-79612499D01*
G75*
G02*
X102737499Y-79362500I249999J0D01*
G01*
G37*
G36*
G01*
X102737499Y-81412500D02*
X103637501Y-81412500D01*
G75*
G02*
X103887500Y-81662499I0J-249999D01*
G01*
X103887500Y-82312501D01*
G75*
G02*
X103637501Y-82562500I-249999J0D01*
G01*
X102737499Y-82562500D01*
G75*
G02*
X102487500Y-82312501I0J249999D01*
G01*
X102487500Y-81662499D01*
G75*
G02*
X102737499Y-81412500I249999J0D01*
G01*
G37*
%TD*%
%TO.C,D8*%
G36*
G01*
X102737499Y-98412500D02*
X103637501Y-98412500D01*
G75*
G02*
X103887500Y-98662499I0J-249999D01*
G01*
X103887500Y-99312501D01*
G75*
G02*
X103637501Y-99562500I-249999J0D01*
G01*
X102737499Y-99562500D01*
G75*
G02*
X102487500Y-99312501I0J249999D01*
G01*
X102487500Y-98662499D01*
G75*
G02*
X102737499Y-98412500I249999J0D01*
G01*
G37*
G36*
G01*
X102737499Y-100462500D02*
X103637501Y-100462500D01*
G75*
G02*
X103887500Y-100712499I0J-249999D01*
G01*
X103887500Y-101362501D01*
G75*
G02*
X103637501Y-101612500I-249999J0D01*
G01*
X102737499Y-101612500D01*
G75*
G02*
X102487500Y-101362501I0J249999D01*
G01*
X102487500Y-100712499D01*
G75*
G02*
X102737499Y-100462500I249999J0D01*
G01*
G37*
%TD*%
%TO.C,D9*%
G36*
G01*
X102737499Y-117462500D02*
X103637501Y-117462500D01*
G75*
G02*
X103887500Y-117712499I0J-249999D01*
G01*
X103887500Y-118362501D01*
G75*
G02*
X103637501Y-118612500I-249999J0D01*
G01*
X102737499Y-118612500D01*
G75*
G02*
X102487500Y-118362501I0J249999D01*
G01*
X102487500Y-117712499D01*
G75*
G02*
X102737499Y-117462500I249999J0D01*
G01*
G37*
G36*
G01*
X102737499Y-119512500D02*
X103637501Y-119512500D01*
G75*
G02*
X103887500Y-119762499I0J-249999D01*
G01*
X103887500Y-120412501D01*
G75*
G02*
X103637501Y-120662500I-249999J0D01*
G01*
X102737499Y-120662500D01*
G75*
G02*
X102487500Y-120412501I0J249999D01*
G01*
X102487500Y-119762499D01*
G75*
G02*
X102737499Y-119512500I249999J0D01*
G01*
G37*
%TD*%
%TO.C,D10*%
G36*
G01*
X121787499Y-60312500D02*
X122687501Y-60312500D01*
G75*
G02*
X122937500Y-60562499I0J-249999D01*
G01*
X122937500Y-61212501D01*
G75*
G02*
X122687501Y-61462500I-249999J0D01*
G01*
X121787499Y-61462500D01*
G75*
G02*
X121537500Y-61212501I0J249999D01*
G01*
X121537500Y-60562499D01*
G75*
G02*
X121787499Y-60312500I249999J0D01*
G01*
G37*
G36*
G01*
X121787499Y-62362500D02*
X122687501Y-62362500D01*
G75*
G02*
X122937500Y-62612499I0J-249999D01*
G01*
X122937500Y-63262501D01*
G75*
G02*
X122687501Y-63512500I-249999J0D01*
G01*
X121787499Y-63512500D01*
G75*
G02*
X121537500Y-63262501I0J249999D01*
G01*
X121537500Y-62612499D01*
G75*
G02*
X121787499Y-62362500I249999J0D01*
G01*
G37*
%TD*%
%TO.C,D11*%
G36*
G01*
X121787499Y-81412500D02*
X122687501Y-81412500D01*
G75*
G02*
X122937500Y-81662499I0J-249999D01*
G01*
X122937500Y-82312501D01*
G75*
G02*
X122687501Y-82562500I-249999J0D01*
G01*
X121787499Y-82562500D01*
G75*
G02*
X121537500Y-82312501I0J249999D01*
G01*
X121537500Y-81662499D01*
G75*
G02*
X121787499Y-81412500I249999J0D01*
G01*
G37*
G36*
G01*
X121787499Y-79362500D02*
X122687501Y-79362500D01*
G75*
G02*
X122937500Y-79612499I0J-249999D01*
G01*
X122937500Y-80262501D01*
G75*
G02*
X122687501Y-80512500I-249999J0D01*
G01*
X121787499Y-80512500D01*
G75*
G02*
X121537500Y-80262501I0J249999D01*
G01*
X121537500Y-79612499D01*
G75*
G02*
X121787499Y-79362500I249999J0D01*
G01*
G37*
%TD*%
%TO.C,D12*%
G36*
G01*
X121787499Y-100462500D02*
X122687501Y-100462500D01*
G75*
G02*
X122937500Y-100712499I0J-249999D01*
G01*
X122937500Y-101362501D01*
G75*
G02*
X122687501Y-101612500I-249999J0D01*
G01*
X121787499Y-101612500D01*
G75*
G02*
X121537500Y-101362501I0J249999D01*
G01*
X121537500Y-100712499D01*
G75*
G02*
X121787499Y-100462500I249999J0D01*
G01*
G37*
G36*
G01*
X121787499Y-98412500D02*
X122687501Y-98412500D01*
G75*
G02*
X122937500Y-98662499I0J-249999D01*
G01*
X122937500Y-99312501D01*
G75*
G02*
X122687501Y-99562500I-249999J0D01*
G01*
X121787499Y-99562500D01*
G75*
G02*
X121537500Y-99312501I0J249999D01*
G01*
X121537500Y-98662499D01*
G75*
G02*
X121787499Y-98412500I249999J0D01*
G01*
G37*
%TD*%
%TO.C,D13*%
G36*
G01*
X121787499Y-117462500D02*
X122687501Y-117462500D01*
G75*
G02*
X122937500Y-117712499I0J-249999D01*
G01*
X122937500Y-118362501D01*
G75*
G02*
X122687501Y-118612500I-249999J0D01*
G01*
X121787499Y-118612500D01*
G75*
G02*
X121537500Y-118362501I0J249999D01*
G01*
X121537500Y-117712499D01*
G75*
G02*
X121787499Y-117462500I249999J0D01*
G01*
G37*
G36*
G01*
X121787499Y-119512500D02*
X122687501Y-119512500D01*
G75*
G02*
X122937500Y-119762499I0J-249999D01*
G01*
X122937500Y-120412501D01*
G75*
G02*
X122687501Y-120662500I-249999J0D01*
G01*
X121787499Y-120662500D01*
G75*
G02*
X121537500Y-120412501I0J249999D01*
G01*
X121537500Y-119762499D01*
G75*
G02*
X121787499Y-119512500I249999J0D01*
G01*
G37*
%TD*%
%TO.C,D14*%
G36*
G01*
X140837499Y-62362500D02*
X141737501Y-62362500D01*
G75*
G02*
X141987500Y-62612499I0J-249999D01*
G01*
X141987500Y-63262501D01*
G75*
G02*
X141737501Y-63512500I-249999J0D01*
G01*
X140837499Y-63512500D01*
G75*
G02*
X140587500Y-63262501I0J249999D01*
G01*
X140587500Y-62612499D01*
G75*
G02*
X140837499Y-62362500I249999J0D01*
G01*
G37*
G36*
G01*
X140837499Y-60312500D02*
X141737501Y-60312500D01*
G75*
G02*
X141987500Y-60562499I0J-249999D01*
G01*
X141987500Y-61212501D01*
G75*
G02*
X141737501Y-61462500I-249999J0D01*
G01*
X140837499Y-61462500D01*
G75*
G02*
X140587500Y-61212501I0J249999D01*
G01*
X140587500Y-60562499D01*
G75*
G02*
X140837499Y-60312500I249999J0D01*
G01*
G37*
%TD*%
%TO.C,D15*%
G36*
G01*
X140837499Y-79362500D02*
X141737501Y-79362500D01*
G75*
G02*
X141987500Y-79612499I0J-249999D01*
G01*
X141987500Y-80262501D01*
G75*
G02*
X141737501Y-80512500I-249999J0D01*
G01*
X140837499Y-80512500D01*
G75*
G02*
X140587500Y-80262501I0J249999D01*
G01*
X140587500Y-79612499D01*
G75*
G02*
X140837499Y-79362500I249999J0D01*
G01*
G37*
G36*
G01*
X140837499Y-81412500D02*
X141737501Y-81412500D01*
G75*
G02*
X141987500Y-81662499I0J-249999D01*
G01*
X141987500Y-82312501D01*
G75*
G02*
X141737501Y-82562500I-249999J0D01*
G01*
X140837499Y-82562500D01*
G75*
G02*
X140587500Y-82312501I0J249999D01*
G01*
X140587500Y-81662499D01*
G75*
G02*
X140837499Y-81412500I249999J0D01*
G01*
G37*
%TD*%
%TO.C,D16*%
G36*
G01*
X140837499Y-98412500D02*
X141737501Y-98412500D01*
G75*
G02*
X141987500Y-98662499I0J-249999D01*
G01*
X141987500Y-99312501D01*
G75*
G02*
X141737501Y-99562500I-249999J0D01*
G01*
X140837499Y-99562500D01*
G75*
G02*
X140587500Y-99312501I0J249999D01*
G01*
X140587500Y-98662499D01*
G75*
G02*
X140837499Y-98412500I249999J0D01*
G01*
G37*
G36*
G01*
X140837499Y-100462500D02*
X141737501Y-100462500D01*
G75*
G02*
X141987500Y-100712499I0J-249999D01*
G01*
X141987500Y-101362501D01*
G75*
G02*
X141737501Y-101612500I-249999J0D01*
G01*
X140837499Y-101612500D01*
G75*
G02*
X140587500Y-101362501I0J249999D01*
G01*
X140587500Y-100712499D01*
G75*
G02*
X140837499Y-100462500I249999J0D01*
G01*
G37*
%TD*%
%TO.C,D17*%
G36*
G01*
X140837499Y-119512500D02*
X141737501Y-119512500D01*
G75*
G02*
X141987500Y-119762499I0J-249999D01*
G01*
X141987500Y-120412501D01*
G75*
G02*
X141737501Y-120662500I-249999J0D01*
G01*
X140837499Y-120662500D01*
G75*
G02*
X140587500Y-120412501I0J249999D01*
G01*
X140587500Y-119762499D01*
G75*
G02*
X140837499Y-119512500I249999J0D01*
G01*
G37*
G36*
G01*
X140837499Y-117462500D02*
X141737501Y-117462500D01*
G75*
G02*
X141987500Y-117712499I0J-249999D01*
G01*
X141987500Y-118362501D01*
G75*
G02*
X141737501Y-118612500I-249999J0D01*
G01*
X140837499Y-118612500D01*
G75*
G02*
X140587500Y-118362501I0J249999D01*
G01*
X140587500Y-117712499D01*
G75*
G02*
X140837499Y-117462500I249999J0D01*
G01*
G37*
%TD*%
M02*
