M48
; DRILL file {KiCad (5.1.9)-1} date 03/11/21 10:21:20
; FORMAT={-:-/ absolute / inch / decimal}
; #@! TF.CreationDate,2021-03-11T10:21:20+08:00
; #@! TF.GenerationSoftware,Kicad,Pcbnew,(5.1.9)-1
; #@! TF.FileFunction,NonPlated,1,2,NPTH
FMAT,2
INCH
T1C0.0689
T2C0.1570
%
G90
G05
T1
X3.4875Y-2.4375
X3.4875Y-3.1875
X3.4875Y-3.9375
X3.4875Y-4.6875
X3.8875Y-2.4375
X3.8875Y-3.1875
X3.8875Y-3.9375
X3.8875Y-4.6875
X4.2375Y-2.4375
X4.2375Y-3.1875
X4.2375Y-3.9375
X4.2375Y-4.6875
X4.6375Y-2.4375
X4.6375Y-3.1875
X4.6375Y-3.9375
X4.6375Y-4.6875
X4.9875Y-2.4375
X4.9875Y-3.1875
X4.9875Y-3.9375
X4.9875Y-4.6875
X5.3875Y-2.4375
X5.3875Y-3.1875
X5.3875Y-3.9375
X5.3875Y-4.6875
X5.7375Y-2.4375
X5.7375Y-3.1875
X5.7375Y-3.9375
X5.7375Y-4.6875
X6.1375Y-2.4375
X6.1375Y-3.1875
X6.1375Y-3.9375
X6.1375Y-4.6875
T2
X3.6875Y-2.4375
X3.6875Y-3.1875
X3.6875Y-3.9375
X3.6875Y-4.6875
X4.4375Y-2.4375
X4.4375Y-3.1875
X4.4375Y-3.9375
X4.4375Y-4.6875
X5.1875Y-2.4375
X5.1875Y-3.1875
X5.1875Y-3.9375
X5.1875Y-4.6875
X5.9375Y-2.4375
X5.9375Y-3.1875
X5.9375Y-3.9375
X5.9375Y-4.6875
T0
M30
