%TF.GenerationSoftware,KiCad,Pcbnew,(5.1.9)-1*%
%TF.CreationDate,2021-04-16T17:12:59+08:00*%
%TF.ProjectId,Retrograde Pad 2,52657472-6f67-4726-9164-652050616420,rev?*%
%TF.SameCoordinates,Original*%
%TF.FileFunction,Legend,Top*%
%TF.FilePolarity,Positive*%
%FSLAX46Y46*%
G04 Gerber Fmt 4.6, Leading zero omitted, Abs format (unit mm)*
G04 Created by KiCad (PCBNEW (5.1.9)-1) date 2021-04-16 17:12:59*
%MOMM*%
%LPD*%
G01*
G04 APERTURE LIST*
%ADD10C,0.120000*%
%ADD11C,0.381000*%
%ADD12C,0.150000*%
G04 APERTURE END LIST*
D10*
%TO.C,SW2*%
X65706250Y-30162500D02*
G75*
G03*
X65706250Y-30162500I-3000000J0D01*
G01*
X68606250Y-32162500D02*
X68606250Y-36262500D01*
X56806250Y-36262500D02*
X56806250Y-32162500D01*
X56806250Y-28162500D02*
X56806250Y-24062500D01*
X68606250Y-28162500D02*
X68606250Y-24062500D01*
X68606250Y-24062500D02*
X56806250Y-24062500D01*
X66506250Y-22662500D02*
X66806250Y-22362500D01*
X66806250Y-22362500D02*
X66806250Y-22962500D01*
X66806250Y-22962500D02*
X66506250Y-22662500D01*
X68606250Y-36262500D02*
X66206250Y-36262500D01*
X64006250Y-36262500D02*
X61406250Y-36262500D01*
X59206250Y-36262500D02*
X56806250Y-36262500D01*
X63206250Y-30162500D02*
X62206250Y-30162500D01*
X62706250Y-29662500D02*
X62706250Y-30662500D01*
%TO.C,SW3*%
X119855750Y-29662500D02*
X119855750Y-30662500D01*
X120355750Y-30162500D02*
X119355750Y-30162500D01*
X116355750Y-36262500D02*
X113955750Y-36262500D01*
X121155750Y-36262500D02*
X118555750Y-36262500D01*
X125755750Y-36262500D02*
X123355750Y-36262500D01*
X123955750Y-22962500D02*
X123655750Y-22662500D01*
X123955750Y-22362500D02*
X123955750Y-22962500D01*
X123655750Y-22662500D02*
X123955750Y-22362500D01*
X125755750Y-24062500D02*
X113955750Y-24062500D01*
X125755750Y-28162500D02*
X125755750Y-24062500D01*
X113955750Y-28162500D02*
X113955750Y-24062500D01*
X113955750Y-36262500D02*
X113955750Y-32162500D01*
X125755750Y-32162500D02*
X125755750Y-36262500D01*
X122855750Y-30162500D02*
G75*
G03*
X122855750Y-30162500I-3000000J0D01*
G01*
%TO.C,SW1*%
X157162750Y-59237500D02*
X157162750Y-58237500D01*
X156662750Y-58737500D02*
X157662750Y-58737500D01*
X160662750Y-52637500D02*
X163062750Y-52637500D01*
X155862750Y-52637500D02*
X158462750Y-52637500D01*
X151262750Y-52637500D02*
X153662750Y-52637500D01*
X153062750Y-65937500D02*
X153362750Y-66237500D01*
X153062750Y-66537500D02*
X153062750Y-65937500D01*
X153362750Y-66237500D02*
X153062750Y-66537500D01*
X151262750Y-64837500D02*
X163062750Y-64837500D01*
X151262750Y-60737500D02*
X151262750Y-64837500D01*
X163062750Y-60737500D02*
X163062750Y-64837500D01*
X163062750Y-52637500D02*
X163062750Y-56737500D01*
X151262750Y-56737500D02*
X151262750Y-52637500D01*
X160162750Y-58737500D02*
G75*
G03*
X160162750Y-58737500I-3000000J0D01*
G01*
D11*
%TO.C,U1*%
X23653750Y-22860000D02*
X23653750Y-53340000D01*
X23653750Y-53340000D02*
X41433750Y-53340000D01*
X41433750Y-53340000D02*
X41433750Y-22860000D01*
X26193750Y-22860000D02*
X26193750Y-25400000D01*
X26193750Y-25400000D02*
X23653750Y-25400000D01*
D12*
G36*
X37475318Y-28739360D02*
G01*
X37475318Y-29039360D01*
X37375318Y-29039360D01*
X37375318Y-28739360D01*
X37475318Y-28739360D01*
G37*
X37475318Y-28739360D02*
X37475318Y-29039360D01*
X37375318Y-29039360D01*
X37375318Y-28739360D01*
X37475318Y-28739360D01*
G36*
X37275318Y-29139360D02*
G01*
X37275318Y-29239360D01*
X37175318Y-29239360D01*
X37175318Y-29139360D01*
X37275318Y-29139360D01*
G37*
X37275318Y-29139360D02*
X37275318Y-29239360D01*
X37175318Y-29239360D01*
X37175318Y-29139360D01*
X37275318Y-29139360D01*
G36*
X37475318Y-28739360D02*
G01*
X37475318Y-28839360D01*
X36975318Y-28839360D01*
X36975318Y-28739360D01*
X37475318Y-28739360D01*
G37*
X37475318Y-28739360D02*
X37475318Y-28839360D01*
X36975318Y-28839360D01*
X36975318Y-28739360D01*
X37475318Y-28739360D01*
G36*
X37075318Y-28739360D02*
G01*
X37075318Y-29539360D01*
X36975318Y-29539360D01*
X36975318Y-28739360D01*
X37075318Y-28739360D01*
G37*
X37075318Y-28739360D02*
X37075318Y-29539360D01*
X36975318Y-29539360D01*
X36975318Y-28739360D01*
X37075318Y-28739360D01*
G36*
X37475318Y-29339360D02*
G01*
X37475318Y-29539360D01*
X37375318Y-29539360D01*
X37375318Y-29339360D01*
X37475318Y-29339360D01*
G37*
X37475318Y-29339360D02*
X37475318Y-29539360D01*
X37375318Y-29539360D01*
X37375318Y-29339360D01*
X37475318Y-29339360D01*
D11*
X41433750Y-22860000D02*
X41433750Y-20320000D01*
X41433750Y-20320000D02*
X23653750Y-20320000D01*
X23653750Y-20320000D02*
X23653750Y-22860000D01*
X26193750Y-22860000D02*
X23653750Y-22860000D01*
D10*
%TO.C,J-OLED1*%
X41493750Y-62448800D02*
X41493750Y-59788800D01*
X33813750Y-62448800D02*
X41493750Y-62448800D01*
X33813750Y-59788800D02*
X41493750Y-59788800D01*
X33813750Y-62448800D02*
X33813750Y-59788800D01*
X32543750Y-62448800D02*
X31213750Y-62448800D01*
X31213750Y-62448800D02*
X31213750Y-61118800D01*
%TO.C,D1*%
X165567750Y-57241200D02*
X167807750Y-57241200D01*
X165567750Y-57001200D02*
X167807750Y-57001200D01*
X165567750Y-57121200D02*
X167807750Y-57121200D01*
X166687750Y-52951200D02*
X166687750Y-53601200D01*
X166687750Y-58491200D02*
X166687750Y-57841200D01*
X165567750Y-53601200D02*
X165567750Y-57841200D01*
X167807750Y-53601200D02*
X165567750Y-53601200D01*
X167807750Y-57841200D02*
X167807750Y-53601200D01*
X165567750Y-57841200D02*
X167807750Y-57841200D01*
%TO.C,D2*%
X55094950Y-29471200D02*
X52854950Y-29471200D01*
X52854950Y-29471200D02*
X52854950Y-33711200D01*
X52854950Y-33711200D02*
X55094950Y-33711200D01*
X55094950Y-33711200D02*
X55094950Y-29471200D01*
X53974950Y-28821200D02*
X53974950Y-29471200D01*
X53974950Y-34361200D02*
X53974950Y-33711200D01*
X55094950Y-30191200D02*
X52854950Y-30191200D01*
X55094950Y-30311200D02*
X52854950Y-30311200D01*
X55094950Y-30071200D02*
X52854950Y-30071200D01*
%TO.C,D3*%
X55094950Y-48521200D02*
X52854950Y-48521200D01*
X52854950Y-48521200D02*
X52854950Y-52761200D01*
X52854950Y-52761200D02*
X55094950Y-52761200D01*
X55094950Y-52761200D02*
X55094950Y-48521200D01*
X53974950Y-47871200D02*
X53974950Y-48521200D01*
X53974950Y-53411200D02*
X53974950Y-52761200D01*
X55094950Y-49241200D02*
X52854950Y-49241200D01*
X55094950Y-49361200D02*
X52854950Y-49361200D01*
X55094950Y-49121200D02*
X52854950Y-49121200D01*
%TO.C,D4*%
X55094950Y-68171200D02*
X52854950Y-68171200D01*
X55094950Y-68411200D02*
X52854950Y-68411200D01*
X55094950Y-68291200D02*
X52854950Y-68291200D01*
X53974950Y-72461200D02*
X53974950Y-71811200D01*
X53974950Y-66921200D02*
X53974950Y-67571200D01*
X55094950Y-71811200D02*
X55094950Y-67571200D01*
X52854950Y-71811200D02*
X55094950Y-71811200D01*
X52854950Y-67571200D02*
X52854950Y-71811200D01*
X55094950Y-67571200D02*
X52854950Y-67571200D01*
%TO.C,D5*%
X55094950Y-87221000D02*
X52854950Y-87221000D01*
X55094950Y-87461000D02*
X52854950Y-87461000D01*
X55094950Y-87341000D02*
X52854950Y-87341000D01*
X53974950Y-91511000D02*
X53974950Y-90861000D01*
X53974950Y-85971000D02*
X53974950Y-86621000D01*
X55094950Y-90861000D02*
X55094950Y-86621000D01*
X52854950Y-90861000D02*
X55094950Y-90861000D01*
X52854950Y-86621000D02*
X52854950Y-90861000D01*
X55094950Y-86621000D02*
X52854950Y-86621000D01*
%TO.C,D6*%
X74144750Y-30071200D02*
X71904750Y-30071200D01*
X74144750Y-30311200D02*
X71904750Y-30311200D01*
X74144750Y-30191200D02*
X71904750Y-30191200D01*
X73024750Y-34361200D02*
X73024750Y-33711200D01*
X73024750Y-28821200D02*
X73024750Y-29471200D01*
X74144750Y-33711200D02*
X74144750Y-29471200D01*
X71904750Y-33711200D02*
X74144750Y-33711200D01*
X71904750Y-29471200D02*
X71904750Y-33711200D01*
X74144750Y-29471200D02*
X71904750Y-29471200D01*
%TO.C,D7*%
X74144750Y-49121200D02*
X71904750Y-49121200D01*
X74144750Y-49361200D02*
X71904750Y-49361200D01*
X74144750Y-49241200D02*
X71904750Y-49241200D01*
X73024750Y-53411200D02*
X73024750Y-52761200D01*
X73024750Y-47871200D02*
X73024750Y-48521200D01*
X74144750Y-52761200D02*
X74144750Y-48521200D01*
X71904750Y-52761200D02*
X74144750Y-52761200D01*
X71904750Y-48521200D02*
X71904750Y-52761200D01*
X74144750Y-48521200D02*
X71904750Y-48521200D01*
%TO.C,D8*%
X74144750Y-67571200D02*
X71904750Y-67571200D01*
X71904750Y-67571200D02*
X71904750Y-71811200D01*
X71904750Y-71811200D02*
X74144750Y-71811200D01*
X74144750Y-71811200D02*
X74144750Y-67571200D01*
X73024750Y-66921200D02*
X73024750Y-67571200D01*
X73024750Y-72461200D02*
X73024750Y-71811200D01*
X74144750Y-68291200D02*
X71904750Y-68291200D01*
X74144750Y-68411200D02*
X71904750Y-68411200D01*
X74144750Y-68171200D02*
X71904750Y-68171200D01*
%TO.C,D9*%
X74144750Y-86621000D02*
X71904750Y-86621000D01*
X71904750Y-86621000D02*
X71904750Y-90861000D01*
X71904750Y-90861000D02*
X74144750Y-90861000D01*
X74144750Y-90861000D02*
X74144750Y-86621000D01*
X73024750Y-85971000D02*
X73024750Y-86621000D01*
X73024750Y-91511000D02*
X73024750Y-90861000D01*
X74144750Y-87341000D02*
X71904750Y-87341000D01*
X74144750Y-87461000D02*
X71904750Y-87461000D01*
X74144750Y-87221000D02*
X71904750Y-87221000D01*
%TO.C,D10*%
X93194750Y-29471200D02*
X90954750Y-29471200D01*
X90954750Y-29471200D02*
X90954750Y-33711200D01*
X90954750Y-33711200D02*
X93194750Y-33711200D01*
X93194750Y-33711200D02*
X93194750Y-29471200D01*
X92074750Y-28821200D02*
X92074750Y-29471200D01*
X92074750Y-34361200D02*
X92074750Y-33711200D01*
X93194750Y-30191200D02*
X90954750Y-30191200D01*
X93194750Y-30311200D02*
X90954750Y-30311200D01*
X93194750Y-30071200D02*
X90954750Y-30071200D01*
%TO.C,D11*%
X93194750Y-48521200D02*
X90954750Y-48521200D01*
X90954750Y-48521200D02*
X90954750Y-52761200D01*
X90954750Y-52761200D02*
X93194750Y-52761200D01*
X93194750Y-52761200D02*
X93194750Y-48521200D01*
X92074750Y-47871200D02*
X92074750Y-48521200D01*
X92074750Y-53411200D02*
X92074750Y-52761200D01*
X93194750Y-49241200D02*
X90954750Y-49241200D01*
X93194750Y-49361200D02*
X90954750Y-49361200D01*
X93194750Y-49121200D02*
X90954750Y-49121200D01*
%TO.C,D12*%
X93194750Y-68171200D02*
X90954750Y-68171200D01*
X93194750Y-68411200D02*
X90954750Y-68411200D01*
X93194750Y-68291200D02*
X90954750Y-68291200D01*
X92074750Y-72461200D02*
X92074750Y-71811200D01*
X92074750Y-66921200D02*
X92074750Y-67571200D01*
X93194750Y-71811200D02*
X93194750Y-67571200D01*
X90954750Y-71811200D02*
X93194750Y-71811200D01*
X90954750Y-67571200D02*
X90954750Y-71811200D01*
X93194750Y-67571200D02*
X90954750Y-67571200D01*
%TO.C,D13*%
X93194750Y-87221000D02*
X90954750Y-87221000D01*
X93194750Y-87461000D02*
X90954750Y-87461000D01*
X93194750Y-87341000D02*
X90954750Y-87341000D01*
X92074750Y-91511000D02*
X92074750Y-90861000D01*
X92074750Y-85971000D02*
X92074750Y-86621000D01*
X93194750Y-90861000D02*
X93194750Y-86621000D01*
X90954750Y-90861000D02*
X93194750Y-90861000D01*
X90954750Y-86621000D02*
X90954750Y-90861000D01*
X93194750Y-86621000D02*
X90954750Y-86621000D01*
%TO.C,D14*%
X111451750Y-30071200D02*
X109211750Y-30071200D01*
X111451750Y-30311200D02*
X109211750Y-30311200D01*
X111451750Y-30191200D02*
X109211750Y-30191200D01*
X110331750Y-34361200D02*
X110331750Y-33711200D01*
X110331750Y-28821200D02*
X110331750Y-29471200D01*
X111451750Y-33711200D02*
X111451750Y-29471200D01*
X109211750Y-33711200D02*
X111451750Y-33711200D01*
X109211750Y-29471200D02*
X109211750Y-33711200D01*
X111451750Y-29471200D02*
X109211750Y-29471200D01*
%TO.C,D15*%
X112244750Y-48521200D02*
X110004750Y-48521200D01*
X110004750Y-48521200D02*
X110004750Y-52761200D01*
X110004750Y-52761200D02*
X112244750Y-52761200D01*
X112244750Y-52761200D02*
X112244750Y-48521200D01*
X111124750Y-47871200D02*
X111124750Y-48521200D01*
X111124750Y-53411200D02*
X111124750Y-52761200D01*
X112244750Y-49241200D02*
X110004750Y-49241200D01*
X112244750Y-49361200D02*
X110004750Y-49361200D01*
X112244750Y-49121200D02*
X110004750Y-49121200D01*
%TO.C,D16*%
X112244750Y-68171200D02*
X110004750Y-68171200D01*
X112244750Y-68411200D02*
X110004750Y-68411200D01*
X112244750Y-68291200D02*
X110004750Y-68291200D01*
X111124750Y-72461200D02*
X111124750Y-71811200D01*
X111124750Y-66921200D02*
X111124750Y-67571200D01*
X112244750Y-71811200D02*
X112244750Y-67571200D01*
X110004750Y-71811200D02*
X112244750Y-71811200D01*
X110004750Y-67571200D02*
X110004750Y-71811200D01*
X112244750Y-67571200D02*
X110004750Y-67571200D01*
%TO.C,D17*%
X112244750Y-86621000D02*
X110004750Y-86621000D01*
X110004750Y-86621000D02*
X110004750Y-90861000D01*
X110004750Y-90861000D02*
X112244750Y-90861000D01*
X112244750Y-90861000D02*
X112244750Y-86621000D01*
X111124750Y-85971000D02*
X111124750Y-86621000D01*
X111124750Y-91511000D02*
X111124750Y-90861000D01*
X112244750Y-87341000D02*
X110004750Y-87341000D01*
X112244750Y-87461000D02*
X110004750Y-87461000D01*
X112244750Y-87221000D02*
X110004750Y-87221000D01*
%TO.C,SW2*%
D12*
X70311011Y-26795833D02*
X70358630Y-26652976D01*
X70358630Y-26414880D01*
X70311011Y-26319642D01*
X70263392Y-26272023D01*
X70168154Y-26224404D01*
X70072916Y-26224404D01*
X69977678Y-26272023D01*
X69930059Y-26319642D01*
X69882440Y-26414880D01*
X69834821Y-26605357D01*
X69787202Y-26700595D01*
X69739583Y-26748214D01*
X69644345Y-26795833D01*
X69549107Y-26795833D01*
X69453869Y-26748214D01*
X69406250Y-26700595D01*
X69358630Y-26605357D01*
X69358630Y-26367261D01*
X69406250Y-26224404D01*
X69358630Y-25891071D02*
X70358630Y-25652976D01*
X69644345Y-25462500D01*
X70358630Y-25272023D01*
X69358630Y-25033928D01*
X69453869Y-24700595D02*
X69406250Y-24652976D01*
X69358630Y-24557738D01*
X69358630Y-24319642D01*
X69406250Y-24224404D01*
X69453869Y-24176785D01*
X69549107Y-24129166D01*
X69644345Y-24129166D01*
X69787202Y-24176785D01*
X70358630Y-24748214D01*
X70358630Y-24129166D01*
%TO.C,SW3*%
X127460511Y-26795833D02*
X127508130Y-26652976D01*
X127508130Y-26414880D01*
X127460511Y-26319642D01*
X127412892Y-26272023D01*
X127317654Y-26224404D01*
X127222416Y-26224404D01*
X127127178Y-26272023D01*
X127079559Y-26319642D01*
X127031940Y-26414880D01*
X126984321Y-26605357D01*
X126936702Y-26700595D01*
X126889083Y-26748214D01*
X126793845Y-26795833D01*
X126698607Y-26795833D01*
X126603369Y-26748214D01*
X126555750Y-26700595D01*
X126508130Y-26605357D01*
X126508130Y-26367261D01*
X126555750Y-26224404D01*
X126508130Y-25891071D02*
X127508130Y-25652976D01*
X126793845Y-25462500D01*
X127508130Y-25272023D01*
X126508130Y-25033928D01*
X126508130Y-24748214D02*
X126508130Y-24129166D01*
X126889083Y-24462500D01*
X126889083Y-24319642D01*
X126936702Y-24224404D01*
X126984321Y-24176785D01*
X127079559Y-24129166D01*
X127317654Y-24129166D01*
X127412892Y-24176785D01*
X127460511Y-24224404D01*
X127508130Y-24319642D01*
X127508130Y-24605357D01*
X127460511Y-24700595D01*
X127412892Y-24748214D01*
%TO.C,SW1*%
X150367511Y-64770833D02*
X150415130Y-64627976D01*
X150415130Y-64389880D01*
X150367511Y-64294642D01*
X150319892Y-64247023D01*
X150224654Y-64199404D01*
X150129416Y-64199404D01*
X150034178Y-64247023D01*
X149986559Y-64294642D01*
X149938940Y-64389880D01*
X149891321Y-64580357D01*
X149843702Y-64675595D01*
X149796083Y-64723214D01*
X149700845Y-64770833D01*
X149605607Y-64770833D01*
X149510369Y-64723214D01*
X149462750Y-64675595D01*
X149415130Y-64580357D01*
X149415130Y-64342261D01*
X149462750Y-64199404D01*
X149415130Y-63866071D02*
X150415130Y-63627976D01*
X149700845Y-63437500D01*
X150415130Y-63247023D01*
X149415130Y-63008928D01*
X150415130Y-62104166D02*
X150415130Y-62675595D01*
X150415130Y-62389880D02*
X149415130Y-62389880D01*
X149557988Y-62485119D01*
X149653226Y-62580357D01*
X149700845Y-62675595D01*
%TO.C,U1*%
X37680940Y-49472857D02*
X37795226Y-49510952D01*
X37833321Y-49549047D01*
X37871416Y-49625238D01*
X37871416Y-49739523D01*
X37833321Y-49815714D01*
X37795226Y-49853809D01*
X37719035Y-49891904D01*
X37414273Y-49891904D01*
X37414273Y-49091904D01*
X37680940Y-49091904D01*
X37757130Y-49130000D01*
X37795226Y-49168095D01*
X37833321Y-49244285D01*
X37833321Y-49320476D01*
X37795226Y-49396666D01*
X37757130Y-49434761D01*
X37680940Y-49472857D01*
X37414273Y-49472857D01*
X38176178Y-49168095D02*
X38214273Y-49130000D01*
X38290464Y-49091904D01*
X38480940Y-49091904D01*
X38557130Y-49130000D01*
X38595226Y-49168095D01*
X38633321Y-49244285D01*
X38633321Y-49320476D01*
X38595226Y-49434761D01*
X38138083Y-49891904D01*
X38633321Y-49891904D01*
X37738083Y-41852857D02*
X37471416Y-41852857D01*
X37471416Y-42271904D02*
X37471416Y-41471904D01*
X37852369Y-41471904D01*
X38080940Y-41471904D02*
X38614273Y-41471904D01*
X38271416Y-42271904D01*
X37738083Y-39312857D02*
X37471416Y-39312857D01*
X37471416Y-39731904D02*
X37471416Y-38931904D01*
X37852369Y-38931904D01*
X38499988Y-38931904D02*
X38347607Y-38931904D01*
X38271416Y-38970000D01*
X38233321Y-39008095D01*
X38157130Y-39122380D01*
X38119035Y-39274761D01*
X38119035Y-39579523D01*
X38157130Y-39655714D01*
X38195226Y-39693809D01*
X38271416Y-39731904D01*
X38423797Y-39731904D01*
X38499988Y-39693809D01*
X38538083Y-39655714D01*
X38576178Y-39579523D01*
X38576178Y-39389047D01*
X38538083Y-39312857D01*
X38499988Y-39274761D01*
X38423797Y-39236666D01*
X38271416Y-39236666D01*
X38195226Y-39274761D01*
X38157130Y-39312857D01*
X38119035Y-39389047D01*
X37738083Y-36772857D02*
X37471416Y-36772857D01*
X37471416Y-37191904D02*
X37471416Y-36391904D01*
X37852369Y-36391904D01*
X38538083Y-36391904D02*
X38157130Y-36391904D01*
X38119035Y-36772857D01*
X38157130Y-36734761D01*
X38233321Y-36696666D01*
X38423797Y-36696666D01*
X38499988Y-36734761D01*
X38538083Y-36772857D01*
X38576178Y-36849047D01*
X38576178Y-37039523D01*
X38538083Y-37115714D01*
X38499988Y-37153809D01*
X38423797Y-37191904D01*
X38233321Y-37191904D01*
X38157130Y-37153809D01*
X38119035Y-37115714D01*
X37452369Y-24491904D02*
X37185702Y-24110952D01*
X36995226Y-24491904D02*
X36995226Y-23691904D01*
X37299988Y-23691904D01*
X37376178Y-23730000D01*
X37414273Y-23768095D01*
X37452369Y-23844285D01*
X37452369Y-23958571D01*
X37414273Y-24034761D01*
X37376178Y-24072857D01*
X37299988Y-24110952D01*
X36995226Y-24110952D01*
X37757130Y-24263333D02*
X38138083Y-24263333D01*
X37680940Y-24491904D02*
X37947607Y-23691904D01*
X38214273Y-24491904D01*
X38404750Y-23691904D02*
X38595226Y-24491904D01*
X38747607Y-23920476D01*
X38899988Y-24491904D01*
X39090464Y-23691904D01*
X37395226Y-26270000D02*
X37319035Y-26231904D01*
X37204750Y-26231904D01*
X37090464Y-26270000D01*
X37014273Y-26346190D01*
X36976178Y-26422380D01*
X36938083Y-26574761D01*
X36938083Y-26689047D01*
X36976178Y-26841428D01*
X37014273Y-26917619D01*
X37090464Y-26993809D01*
X37204750Y-27031904D01*
X37280940Y-27031904D01*
X37395226Y-26993809D01*
X37433321Y-26955714D01*
X37433321Y-26689047D01*
X37280940Y-26689047D01*
X37776178Y-27031904D02*
X37776178Y-26231904D01*
X38233321Y-27031904D01*
X38233321Y-26231904D01*
X38614273Y-27031904D02*
X38614273Y-26231904D01*
X38804750Y-26231904D01*
X38919035Y-26270000D01*
X38995226Y-26346190D01*
X39033321Y-26422380D01*
X39071416Y-26574761D01*
X39071416Y-26689047D01*
X39033321Y-26841428D01*
X38995226Y-26917619D01*
X38919035Y-26993809D01*
X38804750Y-27031904D01*
X38614273Y-27031904D01*
X37743536Y-29503809D02*
X37857822Y-29541904D01*
X38048298Y-29541904D01*
X38124489Y-29503809D01*
X38162584Y-29465714D01*
X38200679Y-29389523D01*
X38200679Y-29313333D01*
X38162584Y-29237142D01*
X38124489Y-29199047D01*
X38048298Y-29160952D01*
X37895917Y-29122857D01*
X37819727Y-29084761D01*
X37781631Y-29046666D01*
X37743536Y-28970476D01*
X37743536Y-28894285D01*
X37781631Y-28818095D01*
X37819727Y-28780000D01*
X37895917Y-28741904D01*
X38086393Y-28741904D01*
X38200679Y-28780000D01*
X38429250Y-28741904D02*
X38886393Y-28741904D01*
X38657822Y-29541904D02*
X38657822Y-28741904D01*
X36938083Y-31311904D02*
X37204750Y-32111904D01*
X37471416Y-31311904D01*
X38195226Y-32035714D02*
X38157130Y-32073809D01*
X38042845Y-32111904D01*
X37966654Y-32111904D01*
X37852369Y-32073809D01*
X37776178Y-31997619D01*
X37738083Y-31921428D01*
X37699988Y-31769047D01*
X37699988Y-31654761D01*
X37738083Y-31502380D01*
X37776178Y-31426190D01*
X37852369Y-31350000D01*
X37966654Y-31311904D01*
X38042845Y-31311904D01*
X38157130Y-31350000D01*
X38195226Y-31388095D01*
X38995226Y-32035714D02*
X38957130Y-32073809D01*
X38842845Y-32111904D01*
X38766654Y-32111904D01*
X38652369Y-32073809D01*
X38576178Y-31997619D01*
X38538083Y-31921428D01*
X38499988Y-31769047D01*
X38499988Y-31654761D01*
X38538083Y-31502380D01*
X38576178Y-31426190D01*
X38652369Y-31350000D01*
X38766654Y-31311904D01*
X38842845Y-31311904D01*
X38957130Y-31350000D01*
X38995226Y-31388095D01*
X37738083Y-34232857D02*
X37471416Y-34232857D01*
X37471416Y-34651904D02*
X37471416Y-33851904D01*
X37852369Y-33851904D01*
X38499988Y-34118571D02*
X38499988Y-34651904D01*
X38309511Y-33813809D02*
X38119035Y-34385238D01*
X38614273Y-34385238D01*
X37680940Y-44392857D02*
X37795226Y-44430952D01*
X37833321Y-44469047D01*
X37871416Y-44545238D01*
X37871416Y-44659523D01*
X37833321Y-44735714D01*
X37795226Y-44773809D01*
X37719035Y-44811904D01*
X37414273Y-44811904D01*
X37414273Y-44011904D01*
X37680940Y-44011904D01*
X37757130Y-44050000D01*
X37795226Y-44088095D01*
X37833321Y-44164285D01*
X37833321Y-44240476D01*
X37795226Y-44316666D01*
X37757130Y-44354761D01*
X37680940Y-44392857D01*
X37414273Y-44392857D01*
X38633321Y-44811904D02*
X38176178Y-44811904D01*
X38404750Y-44811904D02*
X38404750Y-44011904D01*
X38328559Y-44126190D01*
X38252369Y-44202380D01*
X38176178Y-44240476D01*
X37680940Y-46932857D02*
X37795226Y-46970952D01*
X37833321Y-47009047D01*
X37871416Y-47085238D01*
X37871416Y-47199523D01*
X37833321Y-47275714D01*
X37795226Y-47313809D01*
X37719035Y-47351904D01*
X37414273Y-47351904D01*
X37414273Y-46551904D01*
X37680940Y-46551904D01*
X37757130Y-46590000D01*
X37795226Y-46628095D01*
X37833321Y-46704285D01*
X37833321Y-46780476D01*
X37795226Y-46856666D01*
X37757130Y-46894761D01*
X37680940Y-46932857D01*
X37414273Y-46932857D01*
X38138083Y-46551904D02*
X38633321Y-46551904D01*
X38366654Y-46856666D01*
X38480940Y-46856666D01*
X38557130Y-46894761D01*
X38595226Y-46932857D01*
X38633321Y-47009047D01*
X38633321Y-47199523D01*
X38595226Y-47275714D01*
X38557130Y-47313809D01*
X38480940Y-47351904D01*
X38252369Y-47351904D01*
X38176178Y-47313809D01*
X38138083Y-47275714D01*
X37680940Y-52012857D02*
X37795226Y-52050952D01*
X37833321Y-52089047D01*
X37871416Y-52165238D01*
X37871416Y-52279523D01*
X37833321Y-52355714D01*
X37795226Y-52393809D01*
X37719035Y-52431904D01*
X37414273Y-52431904D01*
X37414273Y-51631904D01*
X37680940Y-51631904D01*
X37757130Y-51670000D01*
X37795226Y-51708095D01*
X37833321Y-51784285D01*
X37833321Y-51860476D01*
X37795226Y-51936666D01*
X37757130Y-51974761D01*
X37680940Y-52012857D01*
X37414273Y-52012857D01*
X38557130Y-51631904D02*
X38404750Y-51631904D01*
X38328559Y-51670000D01*
X38290464Y-51708095D01*
X38214273Y-51822380D01*
X38176178Y-51974761D01*
X38176178Y-52279523D01*
X38214273Y-52355714D01*
X38252369Y-52393809D01*
X38328559Y-52431904D01*
X38480940Y-52431904D01*
X38557130Y-52393809D01*
X38595226Y-52355714D01*
X38633321Y-52279523D01*
X38633321Y-52089047D01*
X38595226Y-52012857D01*
X38557130Y-51974761D01*
X38480940Y-51936666D01*
X38328559Y-51936666D01*
X38252369Y-51974761D01*
X38214273Y-52012857D01*
X38176178Y-52089047D01*
X26758940Y-52012857D02*
X26873226Y-52050952D01*
X26911321Y-52089047D01*
X26949416Y-52165238D01*
X26949416Y-52279523D01*
X26911321Y-52355714D01*
X26873226Y-52393809D01*
X26797035Y-52431904D01*
X26492273Y-52431904D01*
X26492273Y-51631904D01*
X26758940Y-51631904D01*
X26835130Y-51670000D01*
X26873226Y-51708095D01*
X26911321Y-51784285D01*
X26911321Y-51860476D01*
X26873226Y-51936666D01*
X26835130Y-51974761D01*
X26758940Y-52012857D01*
X26492273Y-52012857D01*
X27673226Y-51631904D02*
X27292273Y-51631904D01*
X27254178Y-52012857D01*
X27292273Y-51974761D01*
X27368464Y-51936666D01*
X27558940Y-51936666D01*
X27635130Y-51974761D01*
X27673226Y-52012857D01*
X27711321Y-52089047D01*
X27711321Y-52279523D01*
X27673226Y-52355714D01*
X27635130Y-52393809D01*
X27558940Y-52431904D01*
X27368464Y-52431904D01*
X27292273Y-52393809D01*
X27254178Y-52355714D01*
X26758940Y-49472857D02*
X26873226Y-49510952D01*
X26911321Y-49549047D01*
X26949416Y-49625238D01*
X26949416Y-49739523D01*
X26911321Y-49815714D01*
X26873226Y-49853809D01*
X26797035Y-49891904D01*
X26492273Y-49891904D01*
X26492273Y-49091904D01*
X26758940Y-49091904D01*
X26835130Y-49130000D01*
X26873226Y-49168095D01*
X26911321Y-49244285D01*
X26911321Y-49320476D01*
X26873226Y-49396666D01*
X26835130Y-49434761D01*
X26758940Y-49472857D01*
X26492273Y-49472857D01*
X27635130Y-49358571D02*
X27635130Y-49891904D01*
X27444654Y-49053809D02*
X27254178Y-49625238D01*
X27749416Y-49625238D01*
X26530369Y-46932857D02*
X26797035Y-46932857D01*
X26911321Y-47351904D02*
X26530369Y-47351904D01*
X26530369Y-46551904D01*
X26911321Y-46551904D01*
X27597035Y-46551904D02*
X27444654Y-46551904D01*
X27368464Y-46590000D01*
X27330369Y-46628095D01*
X27254178Y-46742380D01*
X27216083Y-46894761D01*
X27216083Y-47199523D01*
X27254178Y-47275714D01*
X27292273Y-47313809D01*
X27368464Y-47351904D01*
X27520845Y-47351904D01*
X27597035Y-47313809D01*
X27635130Y-47275714D01*
X27673226Y-47199523D01*
X27673226Y-47009047D01*
X27635130Y-46932857D01*
X27597035Y-46894761D01*
X27520845Y-46856666D01*
X27368464Y-46856666D01*
X27292273Y-46894761D01*
X27254178Y-46932857D01*
X27216083Y-47009047D01*
X26492273Y-44811904D02*
X26492273Y-44011904D01*
X26682750Y-44011904D01*
X26797035Y-44050000D01*
X26873226Y-44126190D01*
X26911321Y-44202380D01*
X26949416Y-44354761D01*
X26949416Y-44469047D01*
X26911321Y-44621428D01*
X26873226Y-44697619D01*
X26797035Y-44773809D01*
X26682750Y-44811904D01*
X26492273Y-44811904D01*
X27216083Y-44011904D02*
X27749416Y-44011904D01*
X27406559Y-44811904D01*
X26949416Y-42195714D02*
X26911321Y-42233809D01*
X26797035Y-42271904D01*
X26720845Y-42271904D01*
X26606559Y-42233809D01*
X26530369Y-42157619D01*
X26492273Y-42081428D01*
X26454178Y-41929047D01*
X26454178Y-41814761D01*
X26492273Y-41662380D01*
X26530369Y-41586190D01*
X26606559Y-41510000D01*
X26720845Y-41471904D01*
X26797035Y-41471904D01*
X26911321Y-41510000D01*
X26949416Y-41548095D01*
X27635130Y-41471904D02*
X27482750Y-41471904D01*
X27406559Y-41510000D01*
X27368464Y-41548095D01*
X27292273Y-41662380D01*
X27254178Y-41814761D01*
X27254178Y-42119523D01*
X27292273Y-42195714D01*
X27330369Y-42233809D01*
X27406559Y-42271904D01*
X27558940Y-42271904D01*
X27635130Y-42233809D01*
X27673226Y-42195714D01*
X27711321Y-42119523D01*
X27711321Y-41929047D01*
X27673226Y-41852857D01*
X27635130Y-41814761D01*
X27558940Y-41776666D01*
X27406559Y-41776666D01*
X27330369Y-41814761D01*
X27292273Y-41852857D01*
X27254178Y-41929047D01*
X26492273Y-39731904D02*
X26492273Y-38931904D01*
X26682750Y-38931904D01*
X26797035Y-38970000D01*
X26873226Y-39046190D01*
X26911321Y-39122380D01*
X26949416Y-39274761D01*
X26949416Y-39389047D01*
X26911321Y-39541428D01*
X26873226Y-39617619D01*
X26797035Y-39693809D01*
X26682750Y-39731904D01*
X26492273Y-39731904D01*
X27635130Y-39198571D02*
X27635130Y-39731904D01*
X27444654Y-38893809D02*
X27254178Y-39465238D01*
X27749416Y-39465238D01*
X26473226Y-28810000D02*
X26397035Y-28771904D01*
X26282750Y-28771904D01*
X26168464Y-28810000D01*
X26092273Y-28886190D01*
X26054178Y-28962380D01*
X26016083Y-29114761D01*
X26016083Y-29229047D01*
X26054178Y-29381428D01*
X26092273Y-29457619D01*
X26168464Y-29533809D01*
X26282750Y-29571904D01*
X26358940Y-29571904D01*
X26473226Y-29533809D01*
X26511321Y-29495714D01*
X26511321Y-29229047D01*
X26358940Y-29229047D01*
X26854178Y-29571904D02*
X26854178Y-28771904D01*
X27311321Y-29571904D01*
X27311321Y-28771904D01*
X27692273Y-29571904D02*
X27692273Y-28771904D01*
X27882750Y-28771904D01*
X27997035Y-28810000D01*
X28073226Y-28886190D01*
X28111321Y-28962380D01*
X28149416Y-29114761D01*
X28149416Y-29229047D01*
X28111321Y-29381428D01*
X28073226Y-29457619D01*
X27997035Y-29533809D01*
X27882750Y-29571904D01*
X27692273Y-29571904D01*
X26473226Y-31350000D02*
X26397035Y-31311904D01*
X26282750Y-31311904D01*
X26168464Y-31350000D01*
X26092273Y-31426190D01*
X26054178Y-31502380D01*
X26016083Y-31654761D01*
X26016083Y-31769047D01*
X26054178Y-31921428D01*
X26092273Y-31997619D01*
X26168464Y-32073809D01*
X26282750Y-32111904D01*
X26358940Y-32111904D01*
X26473226Y-32073809D01*
X26511321Y-32035714D01*
X26511321Y-31769047D01*
X26358940Y-31769047D01*
X26854178Y-32111904D02*
X26854178Y-31311904D01*
X27311321Y-32111904D01*
X27311321Y-31311904D01*
X27692273Y-32111904D02*
X27692273Y-31311904D01*
X27882750Y-31311904D01*
X27997035Y-31350000D01*
X28073226Y-31426190D01*
X28111321Y-31502380D01*
X28149416Y-31654761D01*
X28149416Y-31769047D01*
X28111321Y-31921428D01*
X28073226Y-31997619D01*
X27997035Y-32073809D01*
X27882750Y-32111904D01*
X27692273Y-32111904D01*
X26492273Y-34651904D02*
X26492273Y-33851904D01*
X26682750Y-33851904D01*
X26797035Y-33890000D01*
X26873226Y-33966190D01*
X26911321Y-34042380D01*
X26949416Y-34194761D01*
X26949416Y-34309047D01*
X26911321Y-34461428D01*
X26873226Y-34537619D01*
X26797035Y-34613809D01*
X26682750Y-34651904D01*
X26492273Y-34651904D01*
X27711321Y-34651904D02*
X27254178Y-34651904D01*
X27482750Y-34651904D02*
X27482750Y-33851904D01*
X27406559Y-33966190D01*
X27330369Y-34042380D01*
X27254178Y-34080476D01*
X26492273Y-37191904D02*
X26492273Y-36391904D01*
X26682750Y-36391904D01*
X26797035Y-36430000D01*
X26873226Y-36506190D01*
X26911321Y-36582380D01*
X26949416Y-36734761D01*
X26949416Y-36849047D01*
X26911321Y-37001428D01*
X26873226Y-37077619D01*
X26797035Y-37153809D01*
X26682750Y-37191904D01*
X26492273Y-37191904D01*
X27444654Y-36391904D02*
X27520845Y-36391904D01*
X27597035Y-36430000D01*
X27635130Y-36468095D01*
X27673226Y-36544285D01*
X27711321Y-36696666D01*
X27711321Y-36887142D01*
X27673226Y-37039523D01*
X27635130Y-37115714D01*
X27597035Y-37153809D01*
X27520845Y-37191904D01*
X27444654Y-37191904D01*
X27368464Y-37153809D01*
X27330369Y-37115714D01*
X27292273Y-37039523D01*
X27254178Y-36887142D01*
X27254178Y-36696666D01*
X27292273Y-36544285D01*
X27330369Y-36468095D01*
X27368464Y-36430000D01*
X27444654Y-36391904D01*
X26492273Y-27031904D02*
X26492273Y-26231904D01*
X26682750Y-26231904D01*
X26797035Y-26270000D01*
X26873226Y-26346190D01*
X26911321Y-26422380D01*
X26949416Y-26574761D01*
X26949416Y-26689047D01*
X26911321Y-26841428D01*
X26873226Y-26917619D01*
X26797035Y-26993809D01*
X26682750Y-27031904D01*
X26492273Y-27031904D01*
X27254178Y-26308095D02*
X27292273Y-26270000D01*
X27368464Y-26231904D01*
X27558940Y-26231904D01*
X27635130Y-26270000D01*
X27673226Y-26308095D01*
X27711321Y-26384285D01*
X27711321Y-26460476D01*
X27673226Y-26574761D01*
X27216083Y-27031904D01*
X27711321Y-27031904D01*
X26781401Y-23691904D02*
X27238544Y-23691904D01*
X27009973Y-24491904D02*
X27009973Y-23691904D01*
X27429020Y-23691904D02*
X27962354Y-24491904D01*
X27962354Y-23691904D02*
X27429020Y-24491904D01*
X28419497Y-23691904D02*
X28495687Y-23691904D01*
X28571878Y-23730000D01*
X28609973Y-23768095D01*
X28648068Y-23844285D01*
X28686163Y-23996666D01*
X28686163Y-24187142D01*
X28648068Y-24339523D01*
X28609973Y-24415714D01*
X28571878Y-24453809D01*
X28495687Y-24491904D01*
X28419497Y-24491904D01*
X28343306Y-24453809D01*
X28305211Y-24415714D01*
X28267116Y-24339523D01*
X28229020Y-24187142D01*
X28229020Y-23996666D01*
X28267116Y-23844285D01*
X28305211Y-23768095D01*
X28343306Y-23730000D01*
X28419497Y-23691904D01*
X29600449Y-23653809D02*
X28914735Y-24682380D01*
X29867116Y-24491904D02*
X29867116Y-23691904D01*
X30057592Y-23691904D01*
X30171878Y-23730000D01*
X30248068Y-23806190D01*
X30286163Y-23882380D01*
X30324258Y-24034761D01*
X30324258Y-24149047D01*
X30286163Y-24301428D01*
X30248068Y-24377619D01*
X30171878Y-24453809D01*
X30057592Y-24491904D01*
X29867116Y-24491904D01*
X30590925Y-23691904D02*
X31086163Y-23691904D01*
X30819497Y-23996666D01*
X30933782Y-23996666D01*
X31009973Y-24034761D01*
X31048068Y-24072857D01*
X31086163Y-24149047D01*
X31086163Y-24339523D01*
X31048068Y-24415714D01*
X31009973Y-24453809D01*
X30933782Y-24491904D01*
X30705211Y-24491904D01*
X30629020Y-24453809D01*
X30590925Y-24415714D01*
%TO.C,J-OLED1*%
X33679166Y-58189930D02*
X33679166Y-58904216D01*
X33631547Y-59047073D01*
X33536309Y-59142311D01*
X33393452Y-59189930D01*
X33298214Y-59189930D01*
X34155357Y-58808978D02*
X34917261Y-58808978D01*
X35583928Y-58189930D02*
X35774404Y-58189930D01*
X35869642Y-58237550D01*
X35964880Y-58332788D01*
X36012500Y-58523264D01*
X36012500Y-58856597D01*
X35964880Y-59047073D01*
X35869642Y-59142311D01*
X35774404Y-59189930D01*
X35583928Y-59189930D01*
X35488690Y-59142311D01*
X35393452Y-59047073D01*
X35345833Y-58856597D01*
X35345833Y-58523264D01*
X35393452Y-58332788D01*
X35488690Y-58237550D01*
X35583928Y-58189930D01*
X36917261Y-59189930D02*
X36441071Y-59189930D01*
X36441071Y-58189930D01*
X37250595Y-58666121D02*
X37583928Y-58666121D01*
X37726785Y-59189930D02*
X37250595Y-59189930D01*
X37250595Y-58189930D01*
X37726785Y-58189930D01*
X38155357Y-59189930D02*
X38155357Y-58189930D01*
X38393452Y-58189930D01*
X38536309Y-58237550D01*
X38631547Y-58332788D01*
X38679166Y-58428026D01*
X38726785Y-58618502D01*
X38726785Y-58761359D01*
X38679166Y-58951835D01*
X38631547Y-59047073D01*
X38536309Y-59142311D01*
X38393452Y-59189930D01*
X38155357Y-59189930D01*
X39679166Y-59189930D02*
X39107738Y-59189930D01*
X39393452Y-59189930D02*
X39393452Y-58189930D01*
X39298214Y-58332788D01*
X39202976Y-58428026D01*
X39107738Y-58475645D01*
%TO.C,D1*%
X165020130Y-56459295D02*
X164020130Y-56459295D01*
X164020130Y-56221200D01*
X164067750Y-56078342D01*
X164162988Y-55983104D01*
X164258226Y-55935485D01*
X164448702Y-55887866D01*
X164591559Y-55887866D01*
X164782035Y-55935485D01*
X164877273Y-55983104D01*
X164972511Y-56078342D01*
X165020130Y-56221200D01*
X165020130Y-56459295D01*
X165020130Y-54935485D02*
X165020130Y-55506914D01*
X165020130Y-55221200D02*
X164020130Y-55221200D01*
X164162988Y-55316438D01*
X164258226Y-55411676D01*
X164305845Y-55506914D01*
X165340130Y-59793104D02*
X164340130Y-59793104D01*
X165340130Y-59221676D02*
X164768702Y-59650247D01*
X164340130Y-59221676D02*
X164911559Y-59793104D01*
%TO.C,D2*%
X56547330Y-32329295D02*
X55547330Y-32329295D01*
X55547330Y-32091200D01*
X55594950Y-31948342D01*
X55690188Y-31853104D01*
X55785426Y-31805485D01*
X55975902Y-31757866D01*
X56118759Y-31757866D01*
X56309235Y-31805485D01*
X56404473Y-31853104D01*
X56499711Y-31948342D01*
X56547330Y-32091200D01*
X56547330Y-32329295D01*
X55642569Y-31376914D02*
X55594950Y-31329295D01*
X55547330Y-31234057D01*
X55547330Y-30995961D01*
X55594950Y-30900723D01*
X55642569Y-30853104D01*
X55737807Y-30805485D01*
X55833045Y-30805485D01*
X55975902Y-30853104D01*
X56547330Y-31424533D01*
X56547330Y-30805485D01*
X56227330Y-28043104D02*
X55227330Y-28043104D01*
X56227330Y-27471676D02*
X55655902Y-27900247D01*
X55227330Y-27471676D02*
X55798759Y-28043104D01*
%TO.C,D3*%
X56547330Y-51379295D02*
X55547330Y-51379295D01*
X55547330Y-51141200D01*
X55594950Y-50998342D01*
X55690188Y-50903104D01*
X55785426Y-50855485D01*
X55975902Y-50807866D01*
X56118759Y-50807866D01*
X56309235Y-50855485D01*
X56404473Y-50903104D01*
X56499711Y-50998342D01*
X56547330Y-51141200D01*
X56547330Y-51379295D01*
X55547330Y-50474533D02*
X55547330Y-49855485D01*
X55928283Y-50188819D01*
X55928283Y-50045961D01*
X55975902Y-49950723D01*
X56023521Y-49903104D01*
X56118759Y-49855485D01*
X56356854Y-49855485D01*
X56452092Y-49903104D01*
X56499711Y-49950723D01*
X56547330Y-50045961D01*
X56547330Y-50331676D01*
X56499711Y-50426914D01*
X56452092Y-50474533D01*
X56227330Y-47093104D02*
X55227330Y-47093104D01*
X56227330Y-46521676D02*
X55655902Y-46950247D01*
X55227330Y-46521676D02*
X55798759Y-47093104D01*
%TO.C,D4*%
X56547330Y-70429295D02*
X55547330Y-70429295D01*
X55547330Y-70191200D01*
X55594950Y-70048342D01*
X55690188Y-69953104D01*
X55785426Y-69905485D01*
X55975902Y-69857866D01*
X56118759Y-69857866D01*
X56309235Y-69905485D01*
X56404473Y-69953104D01*
X56499711Y-70048342D01*
X56547330Y-70191200D01*
X56547330Y-70429295D01*
X55880664Y-69000723D02*
X56547330Y-69000723D01*
X55499711Y-69238819D02*
X56213997Y-69476914D01*
X56213997Y-68857866D01*
X56227330Y-66143104D02*
X55227330Y-66143104D01*
X56227330Y-65571676D02*
X55655902Y-66000247D01*
X55227330Y-65571676D02*
X55798759Y-66143104D01*
%TO.C,D5*%
X56547330Y-89479095D02*
X55547330Y-89479095D01*
X55547330Y-89241000D01*
X55594950Y-89098142D01*
X55690188Y-89002904D01*
X55785426Y-88955285D01*
X55975902Y-88907666D01*
X56118759Y-88907666D01*
X56309235Y-88955285D01*
X56404473Y-89002904D01*
X56499711Y-89098142D01*
X56547330Y-89241000D01*
X56547330Y-89479095D01*
X55547330Y-88002904D02*
X55547330Y-88479095D01*
X56023521Y-88526714D01*
X55975902Y-88479095D01*
X55928283Y-88383857D01*
X55928283Y-88145761D01*
X55975902Y-88050523D01*
X56023521Y-88002904D01*
X56118759Y-87955285D01*
X56356854Y-87955285D01*
X56452092Y-88002904D01*
X56499711Y-88050523D01*
X56547330Y-88145761D01*
X56547330Y-88383857D01*
X56499711Y-88479095D01*
X56452092Y-88526714D01*
X56227330Y-85192904D02*
X55227330Y-85192904D01*
X56227330Y-84621476D02*
X55655902Y-85050047D01*
X55227330Y-84621476D02*
X55798759Y-85192904D01*
%TO.C,D6*%
X75597130Y-32329295D02*
X74597130Y-32329295D01*
X74597130Y-32091200D01*
X74644750Y-31948342D01*
X74739988Y-31853104D01*
X74835226Y-31805485D01*
X75025702Y-31757866D01*
X75168559Y-31757866D01*
X75359035Y-31805485D01*
X75454273Y-31853104D01*
X75549511Y-31948342D01*
X75597130Y-32091200D01*
X75597130Y-32329295D01*
X74597130Y-30900723D02*
X74597130Y-31091200D01*
X74644750Y-31186438D01*
X74692369Y-31234057D01*
X74835226Y-31329295D01*
X75025702Y-31376914D01*
X75406654Y-31376914D01*
X75501892Y-31329295D01*
X75549511Y-31281676D01*
X75597130Y-31186438D01*
X75597130Y-30995961D01*
X75549511Y-30900723D01*
X75501892Y-30853104D01*
X75406654Y-30805485D01*
X75168559Y-30805485D01*
X75073321Y-30853104D01*
X75025702Y-30900723D01*
X74978083Y-30995961D01*
X74978083Y-31186438D01*
X75025702Y-31281676D01*
X75073321Y-31329295D01*
X75168559Y-31376914D01*
X75277130Y-28043104D02*
X74277130Y-28043104D01*
X75277130Y-27471676D02*
X74705702Y-27900247D01*
X74277130Y-27471676D02*
X74848559Y-28043104D01*
%TO.C,D7*%
X75597130Y-51379295D02*
X74597130Y-51379295D01*
X74597130Y-51141200D01*
X74644750Y-50998342D01*
X74739988Y-50903104D01*
X74835226Y-50855485D01*
X75025702Y-50807866D01*
X75168559Y-50807866D01*
X75359035Y-50855485D01*
X75454273Y-50903104D01*
X75549511Y-50998342D01*
X75597130Y-51141200D01*
X75597130Y-51379295D01*
X74597130Y-50474533D02*
X74597130Y-49807866D01*
X75597130Y-50236438D01*
X75277130Y-47093104D02*
X74277130Y-47093104D01*
X75277130Y-46521676D02*
X74705702Y-46950247D01*
X74277130Y-46521676D02*
X74848559Y-47093104D01*
%TO.C,D8*%
X75597130Y-70429295D02*
X74597130Y-70429295D01*
X74597130Y-70191200D01*
X74644750Y-70048342D01*
X74739988Y-69953104D01*
X74835226Y-69905485D01*
X75025702Y-69857866D01*
X75168559Y-69857866D01*
X75359035Y-69905485D01*
X75454273Y-69953104D01*
X75549511Y-70048342D01*
X75597130Y-70191200D01*
X75597130Y-70429295D01*
X75025702Y-69286438D02*
X74978083Y-69381676D01*
X74930464Y-69429295D01*
X74835226Y-69476914D01*
X74787607Y-69476914D01*
X74692369Y-69429295D01*
X74644750Y-69381676D01*
X74597130Y-69286438D01*
X74597130Y-69095961D01*
X74644750Y-69000723D01*
X74692369Y-68953104D01*
X74787607Y-68905485D01*
X74835226Y-68905485D01*
X74930464Y-68953104D01*
X74978083Y-69000723D01*
X75025702Y-69095961D01*
X75025702Y-69286438D01*
X75073321Y-69381676D01*
X75120940Y-69429295D01*
X75216178Y-69476914D01*
X75406654Y-69476914D01*
X75501892Y-69429295D01*
X75549511Y-69381676D01*
X75597130Y-69286438D01*
X75597130Y-69095961D01*
X75549511Y-69000723D01*
X75501892Y-68953104D01*
X75406654Y-68905485D01*
X75216178Y-68905485D01*
X75120940Y-68953104D01*
X75073321Y-69000723D01*
X75025702Y-69095961D01*
X75277130Y-66143104D02*
X74277130Y-66143104D01*
X75277130Y-65571676D02*
X74705702Y-66000247D01*
X74277130Y-65571676D02*
X74848559Y-66143104D01*
%TO.C,D9*%
X75597130Y-89479095D02*
X74597130Y-89479095D01*
X74597130Y-89241000D01*
X74644750Y-89098142D01*
X74739988Y-89002904D01*
X74835226Y-88955285D01*
X75025702Y-88907666D01*
X75168559Y-88907666D01*
X75359035Y-88955285D01*
X75454273Y-89002904D01*
X75549511Y-89098142D01*
X75597130Y-89241000D01*
X75597130Y-89479095D01*
X75597130Y-88431476D02*
X75597130Y-88241000D01*
X75549511Y-88145761D01*
X75501892Y-88098142D01*
X75359035Y-88002904D01*
X75168559Y-87955285D01*
X74787607Y-87955285D01*
X74692369Y-88002904D01*
X74644750Y-88050523D01*
X74597130Y-88145761D01*
X74597130Y-88336238D01*
X74644750Y-88431476D01*
X74692369Y-88479095D01*
X74787607Y-88526714D01*
X75025702Y-88526714D01*
X75120940Y-88479095D01*
X75168559Y-88431476D01*
X75216178Y-88336238D01*
X75216178Y-88145761D01*
X75168559Y-88050523D01*
X75120940Y-88002904D01*
X75025702Y-87955285D01*
X75277130Y-85192904D02*
X74277130Y-85192904D01*
X75277130Y-84621476D02*
X74705702Y-85050047D01*
X74277130Y-84621476D02*
X74848559Y-85192904D01*
%TO.C,D10*%
X94647130Y-32805485D02*
X93647130Y-32805485D01*
X93647130Y-32567390D01*
X93694750Y-32424533D01*
X93789988Y-32329295D01*
X93885226Y-32281676D01*
X94075702Y-32234057D01*
X94218559Y-32234057D01*
X94409035Y-32281676D01*
X94504273Y-32329295D01*
X94599511Y-32424533D01*
X94647130Y-32567390D01*
X94647130Y-32805485D01*
X94647130Y-31281676D02*
X94647130Y-31853104D01*
X94647130Y-31567390D02*
X93647130Y-31567390D01*
X93789988Y-31662628D01*
X93885226Y-31757866D01*
X93932845Y-31853104D01*
X93647130Y-30662628D02*
X93647130Y-30567390D01*
X93694750Y-30472152D01*
X93742369Y-30424533D01*
X93837607Y-30376914D01*
X94028083Y-30329295D01*
X94266178Y-30329295D01*
X94456654Y-30376914D01*
X94551892Y-30424533D01*
X94599511Y-30472152D01*
X94647130Y-30567390D01*
X94647130Y-30662628D01*
X94599511Y-30757866D01*
X94551892Y-30805485D01*
X94456654Y-30853104D01*
X94266178Y-30900723D01*
X94028083Y-30900723D01*
X93837607Y-30853104D01*
X93742369Y-30805485D01*
X93694750Y-30757866D01*
X93647130Y-30662628D01*
X94327130Y-28043104D02*
X93327130Y-28043104D01*
X94327130Y-27471676D02*
X93755702Y-27900247D01*
X93327130Y-27471676D02*
X93898559Y-28043104D01*
%TO.C,D11*%
X94647130Y-51855485D02*
X93647130Y-51855485D01*
X93647130Y-51617390D01*
X93694750Y-51474533D01*
X93789988Y-51379295D01*
X93885226Y-51331676D01*
X94075702Y-51284057D01*
X94218559Y-51284057D01*
X94409035Y-51331676D01*
X94504273Y-51379295D01*
X94599511Y-51474533D01*
X94647130Y-51617390D01*
X94647130Y-51855485D01*
X94647130Y-50331676D02*
X94647130Y-50903104D01*
X94647130Y-50617390D02*
X93647130Y-50617390D01*
X93789988Y-50712628D01*
X93885226Y-50807866D01*
X93932845Y-50903104D01*
X94647130Y-49379295D02*
X94647130Y-49950723D01*
X94647130Y-49665009D02*
X93647130Y-49665009D01*
X93789988Y-49760247D01*
X93885226Y-49855485D01*
X93932845Y-49950723D01*
X94327130Y-47093104D02*
X93327130Y-47093104D01*
X94327130Y-46521676D02*
X93755702Y-46950247D01*
X93327130Y-46521676D02*
X93898559Y-47093104D01*
%TO.C,D12*%
X94647130Y-70905485D02*
X93647130Y-70905485D01*
X93647130Y-70667390D01*
X93694750Y-70524533D01*
X93789988Y-70429295D01*
X93885226Y-70381676D01*
X94075702Y-70334057D01*
X94218559Y-70334057D01*
X94409035Y-70381676D01*
X94504273Y-70429295D01*
X94599511Y-70524533D01*
X94647130Y-70667390D01*
X94647130Y-70905485D01*
X94647130Y-69381676D02*
X94647130Y-69953104D01*
X94647130Y-69667390D02*
X93647130Y-69667390D01*
X93789988Y-69762628D01*
X93885226Y-69857866D01*
X93932845Y-69953104D01*
X93742369Y-69000723D02*
X93694750Y-68953104D01*
X93647130Y-68857866D01*
X93647130Y-68619771D01*
X93694750Y-68524533D01*
X93742369Y-68476914D01*
X93837607Y-68429295D01*
X93932845Y-68429295D01*
X94075702Y-68476914D01*
X94647130Y-69048342D01*
X94647130Y-68429295D01*
X94327130Y-66143104D02*
X93327130Y-66143104D01*
X94327130Y-65571676D02*
X93755702Y-66000247D01*
X93327130Y-65571676D02*
X93898559Y-66143104D01*
%TO.C,D13*%
X94647130Y-89955285D02*
X93647130Y-89955285D01*
X93647130Y-89717190D01*
X93694750Y-89574333D01*
X93789988Y-89479095D01*
X93885226Y-89431476D01*
X94075702Y-89383857D01*
X94218559Y-89383857D01*
X94409035Y-89431476D01*
X94504273Y-89479095D01*
X94599511Y-89574333D01*
X94647130Y-89717190D01*
X94647130Y-89955285D01*
X94647130Y-88431476D02*
X94647130Y-89002904D01*
X94647130Y-88717190D02*
X93647130Y-88717190D01*
X93789988Y-88812428D01*
X93885226Y-88907666D01*
X93932845Y-89002904D01*
X93647130Y-88098142D02*
X93647130Y-87479095D01*
X94028083Y-87812428D01*
X94028083Y-87669571D01*
X94075702Y-87574333D01*
X94123321Y-87526714D01*
X94218559Y-87479095D01*
X94456654Y-87479095D01*
X94551892Y-87526714D01*
X94599511Y-87574333D01*
X94647130Y-87669571D01*
X94647130Y-87955285D01*
X94599511Y-88050523D01*
X94551892Y-88098142D01*
X94327130Y-85192904D02*
X93327130Y-85192904D01*
X94327130Y-84621476D02*
X93755702Y-85050047D01*
X93327130Y-84621476D02*
X93898559Y-85192904D01*
%TO.C,D14*%
X112904130Y-32805485D02*
X111904130Y-32805485D01*
X111904130Y-32567390D01*
X111951750Y-32424533D01*
X112046988Y-32329295D01*
X112142226Y-32281676D01*
X112332702Y-32234057D01*
X112475559Y-32234057D01*
X112666035Y-32281676D01*
X112761273Y-32329295D01*
X112856511Y-32424533D01*
X112904130Y-32567390D01*
X112904130Y-32805485D01*
X112904130Y-31281676D02*
X112904130Y-31853104D01*
X112904130Y-31567390D02*
X111904130Y-31567390D01*
X112046988Y-31662628D01*
X112142226Y-31757866D01*
X112189845Y-31853104D01*
X112237464Y-30424533D02*
X112904130Y-30424533D01*
X111856511Y-30662628D02*
X112570797Y-30900723D01*
X112570797Y-30281676D01*
X112584130Y-28043104D02*
X111584130Y-28043104D01*
X112584130Y-27471676D02*
X112012702Y-27900247D01*
X111584130Y-27471676D02*
X112155559Y-28043104D01*
%TO.C,D15*%
X113697130Y-51855485D02*
X112697130Y-51855485D01*
X112697130Y-51617390D01*
X112744750Y-51474533D01*
X112839988Y-51379295D01*
X112935226Y-51331676D01*
X113125702Y-51284057D01*
X113268559Y-51284057D01*
X113459035Y-51331676D01*
X113554273Y-51379295D01*
X113649511Y-51474533D01*
X113697130Y-51617390D01*
X113697130Y-51855485D01*
X113697130Y-50331676D02*
X113697130Y-50903104D01*
X113697130Y-50617390D02*
X112697130Y-50617390D01*
X112839988Y-50712628D01*
X112935226Y-50807866D01*
X112982845Y-50903104D01*
X112697130Y-49426914D02*
X112697130Y-49903104D01*
X113173321Y-49950723D01*
X113125702Y-49903104D01*
X113078083Y-49807866D01*
X113078083Y-49569771D01*
X113125702Y-49474533D01*
X113173321Y-49426914D01*
X113268559Y-49379295D01*
X113506654Y-49379295D01*
X113601892Y-49426914D01*
X113649511Y-49474533D01*
X113697130Y-49569771D01*
X113697130Y-49807866D01*
X113649511Y-49903104D01*
X113601892Y-49950723D01*
X113377130Y-47093104D02*
X112377130Y-47093104D01*
X113377130Y-46521676D02*
X112805702Y-46950247D01*
X112377130Y-46521676D02*
X112948559Y-47093104D01*
%TO.C,D16*%
X113697130Y-70905485D02*
X112697130Y-70905485D01*
X112697130Y-70667390D01*
X112744750Y-70524533D01*
X112839988Y-70429295D01*
X112935226Y-70381676D01*
X113125702Y-70334057D01*
X113268559Y-70334057D01*
X113459035Y-70381676D01*
X113554273Y-70429295D01*
X113649511Y-70524533D01*
X113697130Y-70667390D01*
X113697130Y-70905485D01*
X113697130Y-69381676D02*
X113697130Y-69953104D01*
X113697130Y-69667390D02*
X112697130Y-69667390D01*
X112839988Y-69762628D01*
X112935226Y-69857866D01*
X112982845Y-69953104D01*
X112697130Y-68524533D02*
X112697130Y-68715009D01*
X112744750Y-68810247D01*
X112792369Y-68857866D01*
X112935226Y-68953104D01*
X113125702Y-69000723D01*
X113506654Y-69000723D01*
X113601892Y-68953104D01*
X113649511Y-68905485D01*
X113697130Y-68810247D01*
X113697130Y-68619771D01*
X113649511Y-68524533D01*
X113601892Y-68476914D01*
X113506654Y-68429295D01*
X113268559Y-68429295D01*
X113173321Y-68476914D01*
X113125702Y-68524533D01*
X113078083Y-68619771D01*
X113078083Y-68810247D01*
X113125702Y-68905485D01*
X113173321Y-68953104D01*
X113268559Y-69000723D01*
X113377130Y-66143104D02*
X112377130Y-66143104D01*
X113377130Y-65571676D02*
X112805702Y-66000247D01*
X112377130Y-65571676D02*
X112948559Y-66143104D01*
%TO.C,D17*%
X113697130Y-89955285D02*
X112697130Y-89955285D01*
X112697130Y-89717190D01*
X112744750Y-89574333D01*
X112839988Y-89479095D01*
X112935226Y-89431476D01*
X113125702Y-89383857D01*
X113268559Y-89383857D01*
X113459035Y-89431476D01*
X113554273Y-89479095D01*
X113649511Y-89574333D01*
X113697130Y-89717190D01*
X113697130Y-89955285D01*
X113697130Y-88431476D02*
X113697130Y-89002904D01*
X113697130Y-88717190D02*
X112697130Y-88717190D01*
X112839988Y-88812428D01*
X112935226Y-88907666D01*
X112982845Y-89002904D01*
X112697130Y-88098142D02*
X112697130Y-87431476D01*
X113697130Y-87860047D01*
X113377130Y-85192904D02*
X112377130Y-85192904D01*
X113377130Y-84621476D02*
X112805702Y-85050047D01*
X112377130Y-84621476D02*
X112948559Y-85192904D01*
%TD*%
M02*
