%TF.GenerationSoftware,KiCad,Pcbnew,(5.1.9)-1*%
%TF.CreationDate,2021-03-11T10:21:24+08:00*%
%TF.ProjectId,Retrograde Pad,52657472-6f67-4726-9164-65205061642e,rev?*%
%TF.SameCoordinates,Original*%
%TF.FileFunction,Soldermask,Top*%
%TF.FilePolarity,Negative*%
%FSLAX46Y46*%
G04 Gerber Fmt 4.6, Leading zero omitted, Abs format (unit mm)*
G04 Created by KiCad (PCBNEW (5.1.9)-1) date 2021-03-11 10:21:24*
%MOMM*%
%LPD*%
G01*
G04 APERTURE LIST*
%ADD10R,2.000000X2.000000*%
%ADD11C,2.000000*%
%ADD12R,2.000000X3.200000*%
%ADD13R,1.752600X1.752600*%
%ADD14C,1.752600*%
%ADD15R,1.700000X1.700000*%
%ADD16O,1.700000X1.700000*%
%ADD17C,3.987800*%
%ADD18C,1.750000*%
G04 APERTURE END LIST*
D10*
%TO.C,SW2*%
X96162500Y-54412500D03*
D11*
X93662500Y-54412500D03*
X91162500Y-54412500D03*
D12*
X99262500Y-61912500D03*
X88062500Y-61912500D03*
D11*
X96162500Y-68912500D03*
X91162500Y-68912500D03*
%TD*%
%TO.C,SW3*%
X148312500Y-68912500D03*
X153312500Y-68912500D03*
D12*
X145212500Y-61912500D03*
X156412500Y-61912500D03*
D11*
X148312500Y-54412500D03*
X150812500Y-54412500D03*
D10*
X153312500Y-54412500D03*
%TD*%
D11*
%TO.C,SW1*%
X190618750Y-83487500D03*
X185618750Y-83487500D03*
D12*
X193718750Y-90487500D03*
X182518750Y-90487500D03*
D11*
X190618750Y-97987500D03*
X188118750Y-97987500D03*
D10*
X185618750Y-97987500D03*
%TD*%
D13*
%TO.C,U1*%
X59055000Y-55880000D03*
D14*
X59055000Y-58420000D03*
X59055000Y-60960000D03*
X59055000Y-63500000D03*
X59055000Y-66040000D03*
X59055000Y-68580000D03*
X59055000Y-71120000D03*
X59055000Y-73660000D03*
X59055000Y-76200000D03*
X59055000Y-78740000D03*
X59055000Y-81280000D03*
X74295000Y-83820000D03*
X74295000Y-81280000D03*
X74295000Y-78740000D03*
X74295000Y-76200000D03*
X74295000Y-73660000D03*
X74295000Y-71120000D03*
X74295000Y-68580000D03*
X74295000Y-66040000D03*
X74295000Y-63500000D03*
X74295000Y-60960000D03*
X74295000Y-58420000D03*
X59055000Y-83820000D03*
X74295000Y-55880000D03*
%TD*%
D15*
%TO.C,J-OLED1*%
X63500000Y-92868750D03*
D16*
X66040000Y-92868750D03*
X68580000Y-92868750D03*
X71120000Y-92868750D03*
%TD*%
D17*
%TO.C,MX1*%
X93662500Y-61912500D03*
D18*
X98742500Y-61912500D03*
X88582500Y-61912500D03*
%TD*%
%TO.C,MX2*%
X88582500Y-80962500D03*
X98742500Y-80962500D03*
D17*
X93662500Y-80962500D03*
%TD*%
%TO.C,MX3*%
X93662500Y-100012500D03*
D18*
X98742500Y-100012500D03*
X88582500Y-100012500D03*
%TD*%
%TO.C,MX4*%
X88582500Y-119062500D03*
X98742500Y-119062500D03*
D17*
X93662500Y-119062500D03*
%TD*%
%TO.C,MX5*%
X112712500Y-61912500D03*
D18*
X117792500Y-61912500D03*
X107632500Y-61912500D03*
%TD*%
%TO.C,MX6*%
X107632500Y-80962500D03*
X117792500Y-80962500D03*
D17*
X112712500Y-80962500D03*
%TD*%
%TO.C,MX7*%
X112712500Y-100012500D03*
D18*
X117792500Y-100012500D03*
X107632500Y-100012500D03*
%TD*%
%TO.C,MX8*%
X107632500Y-119062500D03*
X117792500Y-119062500D03*
D17*
X112712500Y-119062500D03*
%TD*%
%TO.C,MX9*%
X131762500Y-61912500D03*
D18*
X136842500Y-61912500D03*
X126682500Y-61912500D03*
%TD*%
D17*
%TO.C,MX10*%
X131762500Y-80962500D03*
D18*
X136842500Y-80962500D03*
X126682500Y-80962500D03*
%TD*%
%TO.C,MX11*%
X126682500Y-100012500D03*
X136842500Y-100012500D03*
D17*
X131762500Y-100012500D03*
%TD*%
%TO.C,MX12*%
X131762500Y-119062500D03*
D18*
X136842500Y-119062500D03*
X126682500Y-119062500D03*
%TD*%
%TO.C,MX13*%
X145732500Y-61912500D03*
X155892500Y-61912500D03*
D17*
X150812500Y-61912500D03*
%TD*%
%TO.C,MX14*%
X150812500Y-80962500D03*
D18*
X155892500Y-80962500D03*
X145732500Y-80962500D03*
%TD*%
%TO.C,MX15*%
X145732500Y-100012500D03*
X155892500Y-100012500D03*
D17*
X150812500Y-100012500D03*
%TD*%
D18*
%TO.C,MX16*%
X145732500Y-119062500D03*
X155892500Y-119062500D03*
D17*
X150812500Y-119062500D03*
%TD*%
M02*
