%TF.GenerationSoftware,KiCad,Pcbnew,(5.1.9)-1*%
%TF.CreationDate,2021-03-11T10:21:24+08:00*%
%TF.ProjectId,Retrograde Pad,52657472-6f67-4726-9164-65205061642e,rev?*%
%TF.SameCoordinates,Original*%
%TF.FileFunction,Legend,Top*%
%TF.FilePolarity,Positive*%
%FSLAX46Y46*%
G04 Gerber Fmt 4.6, Leading zero omitted, Abs format (unit mm)*
G04 Created by KiCad (PCBNEW (5.1.9)-1) date 2021-03-11 10:21:24*
%MOMM*%
%LPD*%
G01*
G04 APERTURE LIST*
%ADD10C,0.120000*%
%ADD11C,0.381000*%
%ADD12C,0.150000*%
G04 APERTURE END LIST*
D10*
%TO.C,SW2*%
X96662500Y-61912500D02*
G75*
G03*
X96662500Y-61912500I-3000000J0D01*
G01*
X99562500Y-63912500D02*
X99562500Y-68012500D01*
X87762500Y-68012500D02*
X87762500Y-63912500D01*
X87762500Y-59912500D02*
X87762500Y-55812500D01*
X99562500Y-59912500D02*
X99562500Y-55812500D01*
X99562500Y-55812500D02*
X87762500Y-55812500D01*
X97462500Y-54412500D02*
X97762500Y-54112500D01*
X97762500Y-54112500D02*
X97762500Y-54712500D01*
X97762500Y-54712500D02*
X97462500Y-54412500D01*
X99562500Y-68012500D02*
X97162500Y-68012500D01*
X94962500Y-68012500D02*
X92362500Y-68012500D01*
X90162500Y-68012500D02*
X87762500Y-68012500D01*
X94162500Y-61912500D02*
X93162500Y-61912500D01*
X93662500Y-61412500D02*
X93662500Y-62412500D01*
%TO.C,SW3*%
X150812500Y-61412500D02*
X150812500Y-62412500D01*
X151312500Y-61912500D02*
X150312500Y-61912500D01*
X147312500Y-68012500D02*
X144912500Y-68012500D01*
X152112500Y-68012500D02*
X149512500Y-68012500D01*
X156712500Y-68012500D02*
X154312500Y-68012500D01*
X154912500Y-54712500D02*
X154612500Y-54412500D01*
X154912500Y-54112500D02*
X154912500Y-54712500D01*
X154612500Y-54412500D02*
X154912500Y-54112500D01*
X156712500Y-55812500D02*
X144912500Y-55812500D01*
X156712500Y-59912500D02*
X156712500Y-55812500D01*
X144912500Y-59912500D02*
X144912500Y-55812500D01*
X144912500Y-68012500D02*
X144912500Y-63912500D01*
X156712500Y-63912500D02*
X156712500Y-68012500D01*
X153812500Y-61912500D02*
G75*
G03*
X153812500Y-61912500I-3000000J0D01*
G01*
%TO.C,SW1*%
X188118750Y-90987500D02*
X188118750Y-89987500D01*
X187618750Y-90487500D02*
X188618750Y-90487500D01*
X191618750Y-84387500D02*
X194018750Y-84387500D01*
X186818750Y-84387500D02*
X189418750Y-84387500D01*
X182218750Y-84387500D02*
X184618750Y-84387500D01*
X184018750Y-97687500D02*
X184318750Y-97987500D01*
X184018750Y-98287500D02*
X184018750Y-97687500D01*
X184318750Y-97987500D02*
X184018750Y-98287500D01*
X182218750Y-96587500D02*
X194018750Y-96587500D01*
X182218750Y-92487500D02*
X182218750Y-96587500D01*
X194018750Y-92487500D02*
X194018750Y-96587500D01*
X194018750Y-84387500D02*
X194018750Y-88487500D01*
X182218750Y-88487500D02*
X182218750Y-84387500D01*
X191118750Y-90487500D02*
G75*
G03*
X191118750Y-90487500I-3000000J0D01*
G01*
D11*
%TO.C,U1*%
X57785000Y-54610000D02*
X57785000Y-85090000D01*
X57785000Y-85090000D02*
X75565000Y-85090000D01*
X75565000Y-85090000D02*
X75565000Y-54610000D01*
X60325000Y-54610000D02*
X60325000Y-57150000D01*
X60325000Y-57150000D02*
X57785000Y-57150000D01*
D12*
G36*
X71606568Y-60489360D02*
G01*
X71606568Y-60789360D01*
X71506568Y-60789360D01*
X71506568Y-60489360D01*
X71606568Y-60489360D01*
G37*
X71606568Y-60489360D02*
X71606568Y-60789360D01*
X71506568Y-60789360D01*
X71506568Y-60489360D01*
X71606568Y-60489360D01*
G36*
X71406568Y-60889360D02*
G01*
X71406568Y-60989360D01*
X71306568Y-60989360D01*
X71306568Y-60889360D01*
X71406568Y-60889360D01*
G37*
X71406568Y-60889360D02*
X71406568Y-60989360D01*
X71306568Y-60989360D01*
X71306568Y-60889360D01*
X71406568Y-60889360D01*
G36*
X71606568Y-60489360D02*
G01*
X71606568Y-60589360D01*
X71106568Y-60589360D01*
X71106568Y-60489360D01*
X71606568Y-60489360D01*
G37*
X71606568Y-60489360D02*
X71606568Y-60589360D01*
X71106568Y-60589360D01*
X71106568Y-60489360D01*
X71606568Y-60489360D01*
G36*
X71206568Y-60489360D02*
G01*
X71206568Y-61289360D01*
X71106568Y-61289360D01*
X71106568Y-60489360D01*
X71206568Y-60489360D01*
G37*
X71206568Y-60489360D02*
X71206568Y-61289360D01*
X71106568Y-61289360D01*
X71106568Y-60489360D01*
X71206568Y-60489360D01*
G36*
X71606568Y-61089360D02*
G01*
X71606568Y-61289360D01*
X71506568Y-61289360D01*
X71506568Y-61089360D01*
X71606568Y-61089360D01*
G37*
X71606568Y-61089360D02*
X71606568Y-61289360D01*
X71506568Y-61289360D01*
X71506568Y-61089360D01*
X71606568Y-61089360D01*
D11*
X75565000Y-54610000D02*
X75565000Y-52070000D01*
X75565000Y-52070000D02*
X57785000Y-52070000D01*
X57785000Y-52070000D02*
X57785000Y-54610000D01*
X60325000Y-54610000D02*
X57785000Y-54610000D01*
D10*
%TO.C,J-OLED1*%
X72450000Y-94198750D02*
X72450000Y-91538750D01*
X64770000Y-94198750D02*
X72450000Y-94198750D01*
X64770000Y-91538750D02*
X72450000Y-91538750D01*
X64770000Y-94198750D02*
X64770000Y-91538750D01*
X63500000Y-94198750D02*
X62170000Y-94198750D01*
X62170000Y-94198750D02*
X62170000Y-92868750D01*
%TO.C,SW2*%
D12*
X101267261Y-58545833D02*
X101314880Y-58402976D01*
X101314880Y-58164880D01*
X101267261Y-58069642D01*
X101219642Y-58022023D01*
X101124404Y-57974404D01*
X101029166Y-57974404D01*
X100933928Y-58022023D01*
X100886309Y-58069642D01*
X100838690Y-58164880D01*
X100791071Y-58355357D01*
X100743452Y-58450595D01*
X100695833Y-58498214D01*
X100600595Y-58545833D01*
X100505357Y-58545833D01*
X100410119Y-58498214D01*
X100362500Y-58450595D01*
X100314880Y-58355357D01*
X100314880Y-58117261D01*
X100362500Y-57974404D01*
X100314880Y-57641071D02*
X101314880Y-57402976D01*
X100600595Y-57212500D01*
X101314880Y-57022023D01*
X100314880Y-56783928D01*
X100410119Y-56450595D02*
X100362500Y-56402976D01*
X100314880Y-56307738D01*
X100314880Y-56069642D01*
X100362500Y-55974404D01*
X100410119Y-55926785D01*
X100505357Y-55879166D01*
X100600595Y-55879166D01*
X100743452Y-55926785D01*
X101314880Y-56498214D01*
X101314880Y-55879166D01*
%TO.C,SW3*%
X158417261Y-58545833D02*
X158464880Y-58402976D01*
X158464880Y-58164880D01*
X158417261Y-58069642D01*
X158369642Y-58022023D01*
X158274404Y-57974404D01*
X158179166Y-57974404D01*
X158083928Y-58022023D01*
X158036309Y-58069642D01*
X157988690Y-58164880D01*
X157941071Y-58355357D01*
X157893452Y-58450595D01*
X157845833Y-58498214D01*
X157750595Y-58545833D01*
X157655357Y-58545833D01*
X157560119Y-58498214D01*
X157512500Y-58450595D01*
X157464880Y-58355357D01*
X157464880Y-58117261D01*
X157512500Y-57974404D01*
X157464880Y-57641071D02*
X158464880Y-57402976D01*
X157750595Y-57212500D01*
X158464880Y-57022023D01*
X157464880Y-56783928D01*
X157464880Y-56498214D02*
X157464880Y-55879166D01*
X157845833Y-56212500D01*
X157845833Y-56069642D01*
X157893452Y-55974404D01*
X157941071Y-55926785D01*
X158036309Y-55879166D01*
X158274404Y-55879166D01*
X158369642Y-55926785D01*
X158417261Y-55974404D01*
X158464880Y-56069642D01*
X158464880Y-56355357D01*
X158417261Y-56450595D01*
X158369642Y-56498214D01*
%TO.C,SW1*%
X181323511Y-96520833D02*
X181371130Y-96377976D01*
X181371130Y-96139880D01*
X181323511Y-96044642D01*
X181275892Y-95997023D01*
X181180654Y-95949404D01*
X181085416Y-95949404D01*
X180990178Y-95997023D01*
X180942559Y-96044642D01*
X180894940Y-96139880D01*
X180847321Y-96330357D01*
X180799702Y-96425595D01*
X180752083Y-96473214D01*
X180656845Y-96520833D01*
X180561607Y-96520833D01*
X180466369Y-96473214D01*
X180418750Y-96425595D01*
X180371130Y-96330357D01*
X180371130Y-96092261D01*
X180418750Y-95949404D01*
X180371130Y-95616071D02*
X181371130Y-95377976D01*
X180656845Y-95187500D01*
X181371130Y-94997023D01*
X180371130Y-94758928D01*
X181371130Y-93854166D02*
X181371130Y-94425595D01*
X181371130Y-94139880D02*
X180371130Y-94139880D01*
X180513988Y-94235119D01*
X180609226Y-94330357D01*
X180656845Y-94425595D01*
%TO.C,U1*%
X71812190Y-81222857D02*
X71926476Y-81260952D01*
X71964571Y-81299047D01*
X72002666Y-81375238D01*
X72002666Y-81489523D01*
X71964571Y-81565714D01*
X71926476Y-81603809D01*
X71850285Y-81641904D01*
X71545523Y-81641904D01*
X71545523Y-80841904D01*
X71812190Y-80841904D01*
X71888380Y-80880000D01*
X71926476Y-80918095D01*
X71964571Y-80994285D01*
X71964571Y-81070476D01*
X71926476Y-81146666D01*
X71888380Y-81184761D01*
X71812190Y-81222857D01*
X71545523Y-81222857D01*
X72307428Y-80918095D02*
X72345523Y-80880000D01*
X72421714Y-80841904D01*
X72612190Y-80841904D01*
X72688380Y-80880000D01*
X72726476Y-80918095D01*
X72764571Y-80994285D01*
X72764571Y-81070476D01*
X72726476Y-81184761D01*
X72269333Y-81641904D01*
X72764571Y-81641904D01*
X71869333Y-73602857D02*
X71602666Y-73602857D01*
X71602666Y-74021904D02*
X71602666Y-73221904D01*
X71983619Y-73221904D01*
X72212190Y-73221904D02*
X72745523Y-73221904D01*
X72402666Y-74021904D01*
X71869333Y-71062857D02*
X71602666Y-71062857D01*
X71602666Y-71481904D02*
X71602666Y-70681904D01*
X71983619Y-70681904D01*
X72631238Y-70681904D02*
X72478857Y-70681904D01*
X72402666Y-70720000D01*
X72364571Y-70758095D01*
X72288380Y-70872380D01*
X72250285Y-71024761D01*
X72250285Y-71329523D01*
X72288380Y-71405714D01*
X72326476Y-71443809D01*
X72402666Y-71481904D01*
X72555047Y-71481904D01*
X72631238Y-71443809D01*
X72669333Y-71405714D01*
X72707428Y-71329523D01*
X72707428Y-71139047D01*
X72669333Y-71062857D01*
X72631238Y-71024761D01*
X72555047Y-70986666D01*
X72402666Y-70986666D01*
X72326476Y-71024761D01*
X72288380Y-71062857D01*
X72250285Y-71139047D01*
X71869333Y-68522857D02*
X71602666Y-68522857D01*
X71602666Y-68941904D02*
X71602666Y-68141904D01*
X71983619Y-68141904D01*
X72669333Y-68141904D02*
X72288380Y-68141904D01*
X72250285Y-68522857D01*
X72288380Y-68484761D01*
X72364571Y-68446666D01*
X72555047Y-68446666D01*
X72631238Y-68484761D01*
X72669333Y-68522857D01*
X72707428Y-68599047D01*
X72707428Y-68789523D01*
X72669333Y-68865714D01*
X72631238Y-68903809D01*
X72555047Y-68941904D01*
X72364571Y-68941904D01*
X72288380Y-68903809D01*
X72250285Y-68865714D01*
X71583619Y-56241904D02*
X71316952Y-55860952D01*
X71126476Y-56241904D02*
X71126476Y-55441904D01*
X71431238Y-55441904D01*
X71507428Y-55480000D01*
X71545523Y-55518095D01*
X71583619Y-55594285D01*
X71583619Y-55708571D01*
X71545523Y-55784761D01*
X71507428Y-55822857D01*
X71431238Y-55860952D01*
X71126476Y-55860952D01*
X71888380Y-56013333D02*
X72269333Y-56013333D01*
X71812190Y-56241904D02*
X72078857Y-55441904D01*
X72345523Y-56241904D01*
X72536000Y-55441904D02*
X72726476Y-56241904D01*
X72878857Y-55670476D01*
X73031238Y-56241904D01*
X73221714Y-55441904D01*
X71526476Y-58020000D02*
X71450285Y-57981904D01*
X71336000Y-57981904D01*
X71221714Y-58020000D01*
X71145523Y-58096190D01*
X71107428Y-58172380D01*
X71069333Y-58324761D01*
X71069333Y-58439047D01*
X71107428Y-58591428D01*
X71145523Y-58667619D01*
X71221714Y-58743809D01*
X71336000Y-58781904D01*
X71412190Y-58781904D01*
X71526476Y-58743809D01*
X71564571Y-58705714D01*
X71564571Y-58439047D01*
X71412190Y-58439047D01*
X71907428Y-58781904D02*
X71907428Y-57981904D01*
X72364571Y-58781904D01*
X72364571Y-57981904D01*
X72745523Y-58781904D02*
X72745523Y-57981904D01*
X72936000Y-57981904D01*
X73050285Y-58020000D01*
X73126476Y-58096190D01*
X73164571Y-58172380D01*
X73202666Y-58324761D01*
X73202666Y-58439047D01*
X73164571Y-58591428D01*
X73126476Y-58667619D01*
X73050285Y-58743809D01*
X72936000Y-58781904D01*
X72745523Y-58781904D01*
X71874786Y-61253809D02*
X71989072Y-61291904D01*
X72179548Y-61291904D01*
X72255739Y-61253809D01*
X72293834Y-61215714D01*
X72331929Y-61139523D01*
X72331929Y-61063333D01*
X72293834Y-60987142D01*
X72255739Y-60949047D01*
X72179548Y-60910952D01*
X72027167Y-60872857D01*
X71950977Y-60834761D01*
X71912881Y-60796666D01*
X71874786Y-60720476D01*
X71874786Y-60644285D01*
X71912881Y-60568095D01*
X71950977Y-60530000D01*
X72027167Y-60491904D01*
X72217643Y-60491904D01*
X72331929Y-60530000D01*
X72560500Y-60491904D02*
X73017643Y-60491904D01*
X72789072Y-61291904D02*
X72789072Y-60491904D01*
X71069333Y-63061904D02*
X71336000Y-63861904D01*
X71602666Y-63061904D01*
X72326476Y-63785714D02*
X72288380Y-63823809D01*
X72174095Y-63861904D01*
X72097904Y-63861904D01*
X71983619Y-63823809D01*
X71907428Y-63747619D01*
X71869333Y-63671428D01*
X71831238Y-63519047D01*
X71831238Y-63404761D01*
X71869333Y-63252380D01*
X71907428Y-63176190D01*
X71983619Y-63100000D01*
X72097904Y-63061904D01*
X72174095Y-63061904D01*
X72288380Y-63100000D01*
X72326476Y-63138095D01*
X73126476Y-63785714D02*
X73088380Y-63823809D01*
X72974095Y-63861904D01*
X72897904Y-63861904D01*
X72783619Y-63823809D01*
X72707428Y-63747619D01*
X72669333Y-63671428D01*
X72631238Y-63519047D01*
X72631238Y-63404761D01*
X72669333Y-63252380D01*
X72707428Y-63176190D01*
X72783619Y-63100000D01*
X72897904Y-63061904D01*
X72974095Y-63061904D01*
X73088380Y-63100000D01*
X73126476Y-63138095D01*
X71869333Y-65982857D02*
X71602666Y-65982857D01*
X71602666Y-66401904D02*
X71602666Y-65601904D01*
X71983619Y-65601904D01*
X72631238Y-65868571D02*
X72631238Y-66401904D01*
X72440761Y-65563809D02*
X72250285Y-66135238D01*
X72745523Y-66135238D01*
X71812190Y-76142857D02*
X71926476Y-76180952D01*
X71964571Y-76219047D01*
X72002666Y-76295238D01*
X72002666Y-76409523D01*
X71964571Y-76485714D01*
X71926476Y-76523809D01*
X71850285Y-76561904D01*
X71545523Y-76561904D01*
X71545523Y-75761904D01*
X71812190Y-75761904D01*
X71888380Y-75800000D01*
X71926476Y-75838095D01*
X71964571Y-75914285D01*
X71964571Y-75990476D01*
X71926476Y-76066666D01*
X71888380Y-76104761D01*
X71812190Y-76142857D01*
X71545523Y-76142857D01*
X72764571Y-76561904D02*
X72307428Y-76561904D01*
X72536000Y-76561904D02*
X72536000Y-75761904D01*
X72459809Y-75876190D01*
X72383619Y-75952380D01*
X72307428Y-75990476D01*
X71812190Y-78682857D02*
X71926476Y-78720952D01*
X71964571Y-78759047D01*
X72002666Y-78835238D01*
X72002666Y-78949523D01*
X71964571Y-79025714D01*
X71926476Y-79063809D01*
X71850285Y-79101904D01*
X71545523Y-79101904D01*
X71545523Y-78301904D01*
X71812190Y-78301904D01*
X71888380Y-78340000D01*
X71926476Y-78378095D01*
X71964571Y-78454285D01*
X71964571Y-78530476D01*
X71926476Y-78606666D01*
X71888380Y-78644761D01*
X71812190Y-78682857D01*
X71545523Y-78682857D01*
X72269333Y-78301904D02*
X72764571Y-78301904D01*
X72497904Y-78606666D01*
X72612190Y-78606666D01*
X72688380Y-78644761D01*
X72726476Y-78682857D01*
X72764571Y-78759047D01*
X72764571Y-78949523D01*
X72726476Y-79025714D01*
X72688380Y-79063809D01*
X72612190Y-79101904D01*
X72383619Y-79101904D01*
X72307428Y-79063809D01*
X72269333Y-79025714D01*
X71812190Y-83762857D02*
X71926476Y-83800952D01*
X71964571Y-83839047D01*
X72002666Y-83915238D01*
X72002666Y-84029523D01*
X71964571Y-84105714D01*
X71926476Y-84143809D01*
X71850285Y-84181904D01*
X71545523Y-84181904D01*
X71545523Y-83381904D01*
X71812190Y-83381904D01*
X71888380Y-83420000D01*
X71926476Y-83458095D01*
X71964571Y-83534285D01*
X71964571Y-83610476D01*
X71926476Y-83686666D01*
X71888380Y-83724761D01*
X71812190Y-83762857D01*
X71545523Y-83762857D01*
X72688380Y-83381904D02*
X72536000Y-83381904D01*
X72459809Y-83420000D01*
X72421714Y-83458095D01*
X72345523Y-83572380D01*
X72307428Y-83724761D01*
X72307428Y-84029523D01*
X72345523Y-84105714D01*
X72383619Y-84143809D01*
X72459809Y-84181904D01*
X72612190Y-84181904D01*
X72688380Y-84143809D01*
X72726476Y-84105714D01*
X72764571Y-84029523D01*
X72764571Y-83839047D01*
X72726476Y-83762857D01*
X72688380Y-83724761D01*
X72612190Y-83686666D01*
X72459809Y-83686666D01*
X72383619Y-83724761D01*
X72345523Y-83762857D01*
X72307428Y-83839047D01*
X60890190Y-83762857D02*
X61004476Y-83800952D01*
X61042571Y-83839047D01*
X61080666Y-83915238D01*
X61080666Y-84029523D01*
X61042571Y-84105714D01*
X61004476Y-84143809D01*
X60928285Y-84181904D01*
X60623523Y-84181904D01*
X60623523Y-83381904D01*
X60890190Y-83381904D01*
X60966380Y-83420000D01*
X61004476Y-83458095D01*
X61042571Y-83534285D01*
X61042571Y-83610476D01*
X61004476Y-83686666D01*
X60966380Y-83724761D01*
X60890190Y-83762857D01*
X60623523Y-83762857D01*
X61804476Y-83381904D02*
X61423523Y-83381904D01*
X61385428Y-83762857D01*
X61423523Y-83724761D01*
X61499714Y-83686666D01*
X61690190Y-83686666D01*
X61766380Y-83724761D01*
X61804476Y-83762857D01*
X61842571Y-83839047D01*
X61842571Y-84029523D01*
X61804476Y-84105714D01*
X61766380Y-84143809D01*
X61690190Y-84181904D01*
X61499714Y-84181904D01*
X61423523Y-84143809D01*
X61385428Y-84105714D01*
X60890190Y-81222857D02*
X61004476Y-81260952D01*
X61042571Y-81299047D01*
X61080666Y-81375238D01*
X61080666Y-81489523D01*
X61042571Y-81565714D01*
X61004476Y-81603809D01*
X60928285Y-81641904D01*
X60623523Y-81641904D01*
X60623523Y-80841904D01*
X60890190Y-80841904D01*
X60966380Y-80880000D01*
X61004476Y-80918095D01*
X61042571Y-80994285D01*
X61042571Y-81070476D01*
X61004476Y-81146666D01*
X60966380Y-81184761D01*
X60890190Y-81222857D01*
X60623523Y-81222857D01*
X61766380Y-81108571D02*
X61766380Y-81641904D01*
X61575904Y-80803809D02*
X61385428Y-81375238D01*
X61880666Y-81375238D01*
X60661619Y-78682857D02*
X60928285Y-78682857D01*
X61042571Y-79101904D02*
X60661619Y-79101904D01*
X60661619Y-78301904D01*
X61042571Y-78301904D01*
X61728285Y-78301904D02*
X61575904Y-78301904D01*
X61499714Y-78340000D01*
X61461619Y-78378095D01*
X61385428Y-78492380D01*
X61347333Y-78644761D01*
X61347333Y-78949523D01*
X61385428Y-79025714D01*
X61423523Y-79063809D01*
X61499714Y-79101904D01*
X61652095Y-79101904D01*
X61728285Y-79063809D01*
X61766380Y-79025714D01*
X61804476Y-78949523D01*
X61804476Y-78759047D01*
X61766380Y-78682857D01*
X61728285Y-78644761D01*
X61652095Y-78606666D01*
X61499714Y-78606666D01*
X61423523Y-78644761D01*
X61385428Y-78682857D01*
X61347333Y-78759047D01*
X60623523Y-76561904D02*
X60623523Y-75761904D01*
X60814000Y-75761904D01*
X60928285Y-75800000D01*
X61004476Y-75876190D01*
X61042571Y-75952380D01*
X61080666Y-76104761D01*
X61080666Y-76219047D01*
X61042571Y-76371428D01*
X61004476Y-76447619D01*
X60928285Y-76523809D01*
X60814000Y-76561904D01*
X60623523Y-76561904D01*
X61347333Y-75761904D02*
X61880666Y-75761904D01*
X61537809Y-76561904D01*
X61080666Y-73945714D02*
X61042571Y-73983809D01*
X60928285Y-74021904D01*
X60852095Y-74021904D01*
X60737809Y-73983809D01*
X60661619Y-73907619D01*
X60623523Y-73831428D01*
X60585428Y-73679047D01*
X60585428Y-73564761D01*
X60623523Y-73412380D01*
X60661619Y-73336190D01*
X60737809Y-73260000D01*
X60852095Y-73221904D01*
X60928285Y-73221904D01*
X61042571Y-73260000D01*
X61080666Y-73298095D01*
X61766380Y-73221904D02*
X61614000Y-73221904D01*
X61537809Y-73260000D01*
X61499714Y-73298095D01*
X61423523Y-73412380D01*
X61385428Y-73564761D01*
X61385428Y-73869523D01*
X61423523Y-73945714D01*
X61461619Y-73983809D01*
X61537809Y-74021904D01*
X61690190Y-74021904D01*
X61766380Y-73983809D01*
X61804476Y-73945714D01*
X61842571Y-73869523D01*
X61842571Y-73679047D01*
X61804476Y-73602857D01*
X61766380Y-73564761D01*
X61690190Y-73526666D01*
X61537809Y-73526666D01*
X61461619Y-73564761D01*
X61423523Y-73602857D01*
X61385428Y-73679047D01*
X60623523Y-71481904D02*
X60623523Y-70681904D01*
X60814000Y-70681904D01*
X60928285Y-70720000D01*
X61004476Y-70796190D01*
X61042571Y-70872380D01*
X61080666Y-71024761D01*
X61080666Y-71139047D01*
X61042571Y-71291428D01*
X61004476Y-71367619D01*
X60928285Y-71443809D01*
X60814000Y-71481904D01*
X60623523Y-71481904D01*
X61766380Y-70948571D02*
X61766380Y-71481904D01*
X61575904Y-70643809D02*
X61385428Y-71215238D01*
X61880666Y-71215238D01*
X60604476Y-60560000D02*
X60528285Y-60521904D01*
X60414000Y-60521904D01*
X60299714Y-60560000D01*
X60223523Y-60636190D01*
X60185428Y-60712380D01*
X60147333Y-60864761D01*
X60147333Y-60979047D01*
X60185428Y-61131428D01*
X60223523Y-61207619D01*
X60299714Y-61283809D01*
X60414000Y-61321904D01*
X60490190Y-61321904D01*
X60604476Y-61283809D01*
X60642571Y-61245714D01*
X60642571Y-60979047D01*
X60490190Y-60979047D01*
X60985428Y-61321904D02*
X60985428Y-60521904D01*
X61442571Y-61321904D01*
X61442571Y-60521904D01*
X61823523Y-61321904D02*
X61823523Y-60521904D01*
X62014000Y-60521904D01*
X62128285Y-60560000D01*
X62204476Y-60636190D01*
X62242571Y-60712380D01*
X62280666Y-60864761D01*
X62280666Y-60979047D01*
X62242571Y-61131428D01*
X62204476Y-61207619D01*
X62128285Y-61283809D01*
X62014000Y-61321904D01*
X61823523Y-61321904D01*
X60604476Y-63100000D02*
X60528285Y-63061904D01*
X60414000Y-63061904D01*
X60299714Y-63100000D01*
X60223523Y-63176190D01*
X60185428Y-63252380D01*
X60147333Y-63404761D01*
X60147333Y-63519047D01*
X60185428Y-63671428D01*
X60223523Y-63747619D01*
X60299714Y-63823809D01*
X60414000Y-63861904D01*
X60490190Y-63861904D01*
X60604476Y-63823809D01*
X60642571Y-63785714D01*
X60642571Y-63519047D01*
X60490190Y-63519047D01*
X60985428Y-63861904D02*
X60985428Y-63061904D01*
X61442571Y-63861904D01*
X61442571Y-63061904D01*
X61823523Y-63861904D02*
X61823523Y-63061904D01*
X62014000Y-63061904D01*
X62128285Y-63100000D01*
X62204476Y-63176190D01*
X62242571Y-63252380D01*
X62280666Y-63404761D01*
X62280666Y-63519047D01*
X62242571Y-63671428D01*
X62204476Y-63747619D01*
X62128285Y-63823809D01*
X62014000Y-63861904D01*
X61823523Y-63861904D01*
X60623523Y-66401904D02*
X60623523Y-65601904D01*
X60814000Y-65601904D01*
X60928285Y-65640000D01*
X61004476Y-65716190D01*
X61042571Y-65792380D01*
X61080666Y-65944761D01*
X61080666Y-66059047D01*
X61042571Y-66211428D01*
X61004476Y-66287619D01*
X60928285Y-66363809D01*
X60814000Y-66401904D01*
X60623523Y-66401904D01*
X61842571Y-66401904D02*
X61385428Y-66401904D01*
X61614000Y-66401904D02*
X61614000Y-65601904D01*
X61537809Y-65716190D01*
X61461619Y-65792380D01*
X61385428Y-65830476D01*
X60623523Y-68941904D02*
X60623523Y-68141904D01*
X60814000Y-68141904D01*
X60928285Y-68180000D01*
X61004476Y-68256190D01*
X61042571Y-68332380D01*
X61080666Y-68484761D01*
X61080666Y-68599047D01*
X61042571Y-68751428D01*
X61004476Y-68827619D01*
X60928285Y-68903809D01*
X60814000Y-68941904D01*
X60623523Y-68941904D01*
X61575904Y-68141904D02*
X61652095Y-68141904D01*
X61728285Y-68180000D01*
X61766380Y-68218095D01*
X61804476Y-68294285D01*
X61842571Y-68446666D01*
X61842571Y-68637142D01*
X61804476Y-68789523D01*
X61766380Y-68865714D01*
X61728285Y-68903809D01*
X61652095Y-68941904D01*
X61575904Y-68941904D01*
X61499714Y-68903809D01*
X61461619Y-68865714D01*
X61423523Y-68789523D01*
X61385428Y-68637142D01*
X61385428Y-68446666D01*
X61423523Y-68294285D01*
X61461619Y-68218095D01*
X61499714Y-68180000D01*
X61575904Y-68141904D01*
X60623523Y-58781904D02*
X60623523Y-57981904D01*
X60814000Y-57981904D01*
X60928285Y-58020000D01*
X61004476Y-58096190D01*
X61042571Y-58172380D01*
X61080666Y-58324761D01*
X61080666Y-58439047D01*
X61042571Y-58591428D01*
X61004476Y-58667619D01*
X60928285Y-58743809D01*
X60814000Y-58781904D01*
X60623523Y-58781904D01*
X61385428Y-58058095D02*
X61423523Y-58020000D01*
X61499714Y-57981904D01*
X61690190Y-57981904D01*
X61766380Y-58020000D01*
X61804476Y-58058095D01*
X61842571Y-58134285D01*
X61842571Y-58210476D01*
X61804476Y-58324761D01*
X61347333Y-58781904D01*
X61842571Y-58781904D01*
X60912651Y-55441904D02*
X61369794Y-55441904D01*
X61141223Y-56241904D02*
X61141223Y-55441904D01*
X61560270Y-55441904D02*
X62093604Y-56241904D01*
X62093604Y-55441904D02*
X61560270Y-56241904D01*
X62550747Y-55441904D02*
X62626937Y-55441904D01*
X62703128Y-55480000D01*
X62741223Y-55518095D01*
X62779318Y-55594285D01*
X62817413Y-55746666D01*
X62817413Y-55937142D01*
X62779318Y-56089523D01*
X62741223Y-56165714D01*
X62703128Y-56203809D01*
X62626937Y-56241904D01*
X62550747Y-56241904D01*
X62474556Y-56203809D01*
X62436461Y-56165714D01*
X62398366Y-56089523D01*
X62360270Y-55937142D01*
X62360270Y-55746666D01*
X62398366Y-55594285D01*
X62436461Y-55518095D01*
X62474556Y-55480000D01*
X62550747Y-55441904D01*
X63731699Y-55403809D02*
X63045985Y-56432380D01*
X63998366Y-56241904D02*
X63998366Y-55441904D01*
X64188842Y-55441904D01*
X64303128Y-55480000D01*
X64379318Y-55556190D01*
X64417413Y-55632380D01*
X64455508Y-55784761D01*
X64455508Y-55899047D01*
X64417413Y-56051428D01*
X64379318Y-56127619D01*
X64303128Y-56203809D01*
X64188842Y-56241904D01*
X63998366Y-56241904D01*
X64722175Y-55441904D02*
X65217413Y-55441904D01*
X64950747Y-55746666D01*
X65065032Y-55746666D01*
X65141223Y-55784761D01*
X65179318Y-55822857D01*
X65217413Y-55899047D01*
X65217413Y-56089523D01*
X65179318Y-56165714D01*
X65141223Y-56203809D01*
X65065032Y-56241904D01*
X64836461Y-56241904D01*
X64760270Y-56203809D01*
X64722175Y-56165714D01*
%TO.C,J-OLED1*%
X64635416Y-89939880D02*
X64635416Y-90654166D01*
X64587797Y-90797023D01*
X64492559Y-90892261D01*
X64349702Y-90939880D01*
X64254464Y-90939880D01*
X65111607Y-90558928D02*
X65873511Y-90558928D01*
X66540178Y-89939880D02*
X66730654Y-89939880D01*
X66825892Y-89987500D01*
X66921130Y-90082738D01*
X66968750Y-90273214D01*
X66968750Y-90606547D01*
X66921130Y-90797023D01*
X66825892Y-90892261D01*
X66730654Y-90939880D01*
X66540178Y-90939880D01*
X66444940Y-90892261D01*
X66349702Y-90797023D01*
X66302083Y-90606547D01*
X66302083Y-90273214D01*
X66349702Y-90082738D01*
X66444940Y-89987500D01*
X66540178Y-89939880D01*
X67873511Y-90939880D02*
X67397321Y-90939880D01*
X67397321Y-89939880D01*
X68206845Y-90416071D02*
X68540178Y-90416071D01*
X68683035Y-90939880D02*
X68206845Y-90939880D01*
X68206845Y-89939880D01*
X68683035Y-89939880D01*
X69111607Y-90939880D02*
X69111607Y-89939880D01*
X69349702Y-89939880D01*
X69492559Y-89987500D01*
X69587797Y-90082738D01*
X69635416Y-90177976D01*
X69683035Y-90368452D01*
X69683035Y-90511309D01*
X69635416Y-90701785D01*
X69587797Y-90797023D01*
X69492559Y-90892261D01*
X69349702Y-90939880D01*
X69111607Y-90939880D01*
X70635416Y-90939880D02*
X70063988Y-90939880D01*
X70349702Y-90939880D02*
X70349702Y-89939880D01*
X70254464Y-90082738D01*
X70159226Y-90177976D01*
X70063988Y-90225595D01*
%TD*%
M02*
