%TF.GenerationSoftware,KiCad,Pcbnew,(5.1.9)-1*%
%TF.CreationDate,2021-04-16T17:12:59+08:00*%
%TF.ProjectId,Retrograde Pad 2,52657472-6f67-4726-9164-652050616420,rev?*%
%TF.SameCoordinates,Original*%
%TF.FileFunction,Legend,Bot*%
%TF.FilePolarity,Positive*%
%FSLAX46Y46*%
G04 Gerber Fmt 4.6, Leading zero omitted, Abs format (unit mm)*
G04 Created by KiCad (PCBNEW (5.1.9)-1) date 2021-04-16 17:12:59*
%MOMM*%
%LPD*%
G01*
G04 APERTURE LIST*
%ADD10C,0.381000*%
%ADD11C,0.150000*%
G04 APERTURE END LIST*
D10*
%TO.C,U1*%
X26193750Y-25400000D02*
X23653750Y-25400000D01*
X26193750Y-22860000D02*
X26193750Y-25400000D01*
D11*
G36*
X38588385Y-29149030D02*
G01*
X38588385Y-29249030D01*
X38688385Y-29249030D01*
X38688385Y-29149030D01*
X38588385Y-29149030D01*
G37*
X38588385Y-29149030D02*
X38588385Y-29249030D01*
X38688385Y-29249030D01*
X38688385Y-29149030D01*
X38588385Y-29149030D01*
G36*
X38788385Y-28749030D02*
G01*
X38788385Y-29549030D01*
X38888385Y-29549030D01*
X38888385Y-28749030D01*
X38788385Y-28749030D01*
G37*
X38788385Y-28749030D02*
X38788385Y-29549030D01*
X38888385Y-29549030D01*
X38888385Y-28749030D01*
X38788385Y-28749030D01*
G36*
X38388385Y-29349030D02*
G01*
X38388385Y-29549030D01*
X38488385Y-29549030D01*
X38488385Y-29349030D01*
X38388385Y-29349030D01*
G37*
X38388385Y-29349030D02*
X38388385Y-29549030D01*
X38488385Y-29549030D01*
X38488385Y-29349030D01*
X38388385Y-29349030D01*
G36*
X38388385Y-28749030D02*
G01*
X38388385Y-29049030D01*
X38488385Y-29049030D01*
X38488385Y-28749030D01*
X38388385Y-28749030D01*
G37*
X38388385Y-28749030D02*
X38388385Y-29049030D01*
X38488385Y-29049030D01*
X38488385Y-28749030D01*
X38388385Y-28749030D01*
G36*
X38388385Y-28749030D02*
G01*
X38388385Y-28849030D01*
X38888385Y-28849030D01*
X38888385Y-28749030D01*
X38388385Y-28749030D01*
G37*
X38388385Y-28749030D02*
X38388385Y-28849030D01*
X38888385Y-28849030D01*
X38888385Y-28749030D01*
X38388385Y-28749030D01*
D10*
X41433750Y-53340000D02*
X41433750Y-20320000D01*
X23653750Y-53340000D02*
X41433750Y-53340000D01*
X23653750Y-20320000D02*
X23653750Y-53340000D01*
X41433750Y-20320000D02*
X23653750Y-20320000D01*
X26193750Y-22860000D02*
X23653750Y-22860000D01*
D11*
X27673226Y-27031904D02*
X27673226Y-26231904D01*
X27482750Y-26231904D01*
X27368464Y-26270000D01*
X27292273Y-26346190D01*
X27254178Y-26422380D01*
X27216083Y-26574761D01*
X27216083Y-26689047D01*
X27254178Y-26841428D01*
X27292273Y-26917619D01*
X27368464Y-26993809D01*
X27482750Y-27031904D01*
X27673226Y-27031904D01*
X26911321Y-26308095D02*
X26873226Y-26270000D01*
X26797035Y-26231904D01*
X26606559Y-26231904D01*
X26530369Y-26270000D01*
X26492273Y-26308095D01*
X26454178Y-26384285D01*
X26454178Y-26460476D01*
X26492273Y-26574761D01*
X26949416Y-27031904D01*
X26454178Y-27031904D01*
X27673226Y-37191904D02*
X27673226Y-36391904D01*
X27482750Y-36391904D01*
X27368464Y-36430000D01*
X27292273Y-36506190D01*
X27254178Y-36582380D01*
X27216083Y-36734761D01*
X27216083Y-36849047D01*
X27254178Y-37001428D01*
X27292273Y-37077619D01*
X27368464Y-37153809D01*
X27482750Y-37191904D01*
X27673226Y-37191904D01*
X26720845Y-36391904D02*
X26644654Y-36391904D01*
X26568464Y-36430000D01*
X26530369Y-36468095D01*
X26492273Y-36544285D01*
X26454178Y-36696666D01*
X26454178Y-36887142D01*
X26492273Y-37039523D01*
X26530369Y-37115714D01*
X26568464Y-37153809D01*
X26644654Y-37191904D01*
X26720845Y-37191904D01*
X26797035Y-37153809D01*
X26835130Y-37115714D01*
X26873226Y-37039523D01*
X26911321Y-36887142D01*
X26911321Y-36696666D01*
X26873226Y-36544285D01*
X26835130Y-36468095D01*
X26797035Y-36430000D01*
X26720845Y-36391904D01*
X27673226Y-34651904D02*
X27673226Y-33851904D01*
X27482750Y-33851904D01*
X27368464Y-33890000D01*
X27292273Y-33966190D01*
X27254178Y-34042380D01*
X27216083Y-34194761D01*
X27216083Y-34309047D01*
X27254178Y-34461428D01*
X27292273Y-34537619D01*
X27368464Y-34613809D01*
X27482750Y-34651904D01*
X27673226Y-34651904D01*
X26454178Y-34651904D02*
X26911321Y-34651904D01*
X26682750Y-34651904D02*
X26682750Y-33851904D01*
X26758940Y-33966190D01*
X26835130Y-34042380D01*
X26911321Y-34080476D01*
X27692273Y-31350000D02*
X27768464Y-31311904D01*
X27882750Y-31311904D01*
X27997035Y-31350000D01*
X28073226Y-31426190D01*
X28111321Y-31502380D01*
X28149416Y-31654761D01*
X28149416Y-31769047D01*
X28111321Y-31921428D01*
X28073226Y-31997619D01*
X27997035Y-32073809D01*
X27882750Y-32111904D01*
X27806559Y-32111904D01*
X27692273Y-32073809D01*
X27654178Y-32035714D01*
X27654178Y-31769047D01*
X27806559Y-31769047D01*
X27311321Y-32111904D02*
X27311321Y-31311904D01*
X26854178Y-32111904D01*
X26854178Y-31311904D01*
X26473226Y-32111904D02*
X26473226Y-31311904D01*
X26282750Y-31311904D01*
X26168464Y-31350000D01*
X26092273Y-31426190D01*
X26054178Y-31502380D01*
X26016083Y-31654761D01*
X26016083Y-31769047D01*
X26054178Y-31921428D01*
X26092273Y-31997619D01*
X26168464Y-32073809D01*
X26282750Y-32111904D01*
X26473226Y-32111904D01*
X27692273Y-28810000D02*
X27768464Y-28771904D01*
X27882750Y-28771904D01*
X27997035Y-28810000D01*
X28073226Y-28886190D01*
X28111321Y-28962380D01*
X28149416Y-29114761D01*
X28149416Y-29229047D01*
X28111321Y-29381428D01*
X28073226Y-29457619D01*
X27997035Y-29533809D01*
X27882750Y-29571904D01*
X27806559Y-29571904D01*
X27692273Y-29533809D01*
X27654178Y-29495714D01*
X27654178Y-29229047D01*
X27806559Y-29229047D01*
X27311321Y-29571904D02*
X27311321Y-28771904D01*
X26854178Y-29571904D01*
X26854178Y-28771904D01*
X26473226Y-29571904D02*
X26473226Y-28771904D01*
X26282750Y-28771904D01*
X26168464Y-28810000D01*
X26092273Y-28886190D01*
X26054178Y-28962380D01*
X26016083Y-29114761D01*
X26016083Y-29229047D01*
X26054178Y-29381428D01*
X26092273Y-29457619D01*
X26168464Y-29533809D01*
X26282750Y-29571904D01*
X26473226Y-29571904D01*
X27673226Y-39731904D02*
X27673226Y-38931904D01*
X27482750Y-38931904D01*
X27368464Y-38970000D01*
X27292273Y-39046190D01*
X27254178Y-39122380D01*
X27216083Y-39274761D01*
X27216083Y-39389047D01*
X27254178Y-39541428D01*
X27292273Y-39617619D01*
X27368464Y-39693809D01*
X27482750Y-39731904D01*
X27673226Y-39731904D01*
X26530369Y-39198571D02*
X26530369Y-39731904D01*
X26720845Y-38893809D02*
X26911321Y-39465238D01*
X26416083Y-39465238D01*
X27216083Y-42195714D02*
X27254178Y-42233809D01*
X27368464Y-42271904D01*
X27444654Y-42271904D01*
X27558940Y-42233809D01*
X27635130Y-42157619D01*
X27673226Y-42081428D01*
X27711321Y-41929047D01*
X27711321Y-41814761D01*
X27673226Y-41662380D01*
X27635130Y-41586190D01*
X27558940Y-41510000D01*
X27444654Y-41471904D01*
X27368464Y-41471904D01*
X27254178Y-41510000D01*
X27216083Y-41548095D01*
X26530369Y-41471904D02*
X26682750Y-41471904D01*
X26758940Y-41510000D01*
X26797035Y-41548095D01*
X26873226Y-41662380D01*
X26911321Y-41814761D01*
X26911321Y-42119523D01*
X26873226Y-42195714D01*
X26835130Y-42233809D01*
X26758940Y-42271904D01*
X26606559Y-42271904D01*
X26530369Y-42233809D01*
X26492273Y-42195714D01*
X26454178Y-42119523D01*
X26454178Y-41929047D01*
X26492273Y-41852857D01*
X26530369Y-41814761D01*
X26606559Y-41776666D01*
X26758940Y-41776666D01*
X26835130Y-41814761D01*
X26873226Y-41852857D01*
X26911321Y-41929047D01*
X27673226Y-44811904D02*
X27673226Y-44011904D01*
X27482750Y-44011904D01*
X27368464Y-44050000D01*
X27292273Y-44126190D01*
X27254178Y-44202380D01*
X27216083Y-44354761D01*
X27216083Y-44469047D01*
X27254178Y-44621428D01*
X27292273Y-44697619D01*
X27368464Y-44773809D01*
X27482750Y-44811904D01*
X27673226Y-44811904D01*
X26949416Y-44011904D02*
X26416083Y-44011904D01*
X26758940Y-44811904D01*
X27635130Y-46932857D02*
X27368464Y-46932857D01*
X27254178Y-47351904D02*
X27635130Y-47351904D01*
X27635130Y-46551904D01*
X27254178Y-46551904D01*
X26568464Y-46551904D02*
X26720845Y-46551904D01*
X26797035Y-46590000D01*
X26835130Y-46628095D01*
X26911321Y-46742380D01*
X26949416Y-46894761D01*
X26949416Y-47199523D01*
X26911321Y-47275714D01*
X26873226Y-47313809D01*
X26797035Y-47351904D01*
X26644654Y-47351904D01*
X26568464Y-47313809D01*
X26530369Y-47275714D01*
X26492273Y-47199523D01*
X26492273Y-47009047D01*
X26530369Y-46932857D01*
X26568464Y-46894761D01*
X26644654Y-46856666D01*
X26797035Y-46856666D01*
X26873226Y-46894761D01*
X26911321Y-46932857D01*
X26949416Y-47009047D01*
X27406559Y-49472857D02*
X27292273Y-49510952D01*
X27254178Y-49549047D01*
X27216083Y-49625238D01*
X27216083Y-49739523D01*
X27254178Y-49815714D01*
X27292273Y-49853809D01*
X27368464Y-49891904D01*
X27673226Y-49891904D01*
X27673226Y-49091904D01*
X27406559Y-49091904D01*
X27330369Y-49130000D01*
X27292273Y-49168095D01*
X27254178Y-49244285D01*
X27254178Y-49320476D01*
X27292273Y-49396666D01*
X27330369Y-49434761D01*
X27406559Y-49472857D01*
X27673226Y-49472857D01*
X26530369Y-49358571D02*
X26530369Y-49891904D01*
X26720845Y-49053809D02*
X26911321Y-49625238D01*
X26416083Y-49625238D01*
X27406559Y-52012857D02*
X27292273Y-52050952D01*
X27254178Y-52089047D01*
X27216083Y-52165238D01*
X27216083Y-52279523D01*
X27254178Y-52355714D01*
X27292273Y-52393809D01*
X27368464Y-52431904D01*
X27673226Y-52431904D01*
X27673226Y-51631904D01*
X27406559Y-51631904D01*
X27330369Y-51670000D01*
X27292273Y-51708095D01*
X27254178Y-51784285D01*
X27254178Y-51860476D01*
X27292273Y-51936666D01*
X27330369Y-51974761D01*
X27406559Y-52012857D01*
X27673226Y-52012857D01*
X26492273Y-51631904D02*
X26873226Y-51631904D01*
X26911321Y-52012857D01*
X26873226Y-51974761D01*
X26797035Y-51936666D01*
X26606559Y-51936666D01*
X26530369Y-51974761D01*
X26492273Y-52012857D01*
X26454178Y-52089047D01*
X26454178Y-52279523D01*
X26492273Y-52355714D01*
X26530369Y-52393809D01*
X26606559Y-52431904D01*
X26797035Y-52431904D01*
X26873226Y-52393809D01*
X26911321Y-52355714D01*
X38328559Y-52012857D02*
X38214273Y-52050952D01*
X38176178Y-52089047D01*
X38138083Y-52165238D01*
X38138083Y-52279523D01*
X38176178Y-52355714D01*
X38214273Y-52393809D01*
X38290464Y-52431904D01*
X38595226Y-52431904D01*
X38595226Y-51631904D01*
X38328559Y-51631904D01*
X38252369Y-51670000D01*
X38214273Y-51708095D01*
X38176178Y-51784285D01*
X38176178Y-51860476D01*
X38214273Y-51936666D01*
X38252369Y-51974761D01*
X38328559Y-52012857D01*
X38595226Y-52012857D01*
X37452369Y-51631904D02*
X37604750Y-51631904D01*
X37680940Y-51670000D01*
X37719035Y-51708095D01*
X37795226Y-51822380D01*
X37833321Y-51974761D01*
X37833321Y-52279523D01*
X37795226Y-52355714D01*
X37757130Y-52393809D01*
X37680940Y-52431904D01*
X37528559Y-52431904D01*
X37452369Y-52393809D01*
X37414273Y-52355714D01*
X37376178Y-52279523D01*
X37376178Y-52089047D01*
X37414273Y-52012857D01*
X37452369Y-51974761D01*
X37528559Y-51936666D01*
X37680940Y-51936666D01*
X37757130Y-51974761D01*
X37795226Y-52012857D01*
X37833321Y-52089047D01*
X38328559Y-46932857D02*
X38214273Y-46970952D01*
X38176178Y-47009047D01*
X38138083Y-47085238D01*
X38138083Y-47199523D01*
X38176178Y-47275714D01*
X38214273Y-47313809D01*
X38290464Y-47351904D01*
X38595226Y-47351904D01*
X38595226Y-46551904D01*
X38328559Y-46551904D01*
X38252369Y-46590000D01*
X38214273Y-46628095D01*
X38176178Y-46704285D01*
X38176178Y-46780476D01*
X38214273Y-46856666D01*
X38252369Y-46894761D01*
X38328559Y-46932857D01*
X38595226Y-46932857D01*
X37871416Y-46551904D02*
X37376178Y-46551904D01*
X37642845Y-46856666D01*
X37528559Y-46856666D01*
X37452369Y-46894761D01*
X37414273Y-46932857D01*
X37376178Y-47009047D01*
X37376178Y-47199523D01*
X37414273Y-47275714D01*
X37452369Y-47313809D01*
X37528559Y-47351904D01*
X37757130Y-47351904D01*
X37833321Y-47313809D01*
X37871416Y-47275714D01*
X38328559Y-44392857D02*
X38214273Y-44430952D01*
X38176178Y-44469047D01*
X38138083Y-44545238D01*
X38138083Y-44659523D01*
X38176178Y-44735714D01*
X38214273Y-44773809D01*
X38290464Y-44811904D01*
X38595226Y-44811904D01*
X38595226Y-44011904D01*
X38328559Y-44011904D01*
X38252369Y-44050000D01*
X38214273Y-44088095D01*
X38176178Y-44164285D01*
X38176178Y-44240476D01*
X38214273Y-44316666D01*
X38252369Y-44354761D01*
X38328559Y-44392857D01*
X38595226Y-44392857D01*
X37376178Y-44811904D02*
X37833321Y-44811904D01*
X37604750Y-44811904D02*
X37604750Y-44011904D01*
X37680940Y-44126190D01*
X37757130Y-44202380D01*
X37833321Y-44240476D01*
X38271416Y-34232857D02*
X38538083Y-34232857D01*
X38538083Y-34651904D02*
X38538083Y-33851904D01*
X38157130Y-33851904D01*
X37509511Y-34118571D02*
X37509511Y-34651904D01*
X37699988Y-33813809D02*
X37890464Y-34385238D01*
X37395226Y-34385238D01*
X39071416Y-31311904D02*
X38804750Y-32111904D01*
X38538083Y-31311904D01*
X37814273Y-32035714D02*
X37852369Y-32073809D01*
X37966654Y-32111904D01*
X38042845Y-32111904D01*
X38157130Y-32073809D01*
X38233321Y-31997619D01*
X38271416Y-31921428D01*
X38309511Y-31769047D01*
X38309511Y-31654761D01*
X38271416Y-31502380D01*
X38233321Y-31426190D01*
X38157130Y-31350000D01*
X38042845Y-31311904D01*
X37966654Y-31311904D01*
X37852369Y-31350000D01*
X37814273Y-31388095D01*
X37014273Y-32035714D02*
X37052369Y-32073809D01*
X37166654Y-32111904D01*
X37242845Y-32111904D01*
X37357130Y-32073809D01*
X37433321Y-31997619D01*
X37471416Y-31921428D01*
X37509511Y-31769047D01*
X37509511Y-31654761D01*
X37471416Y-31502380D01*
X37433321Y-31426190D01*
X37357130Y-31350000D01*
X37242845Y-31311904D01*
X37166654Y-31311904D01*
X37052369Y-31350000D01*
X37014273Y-31388095D01*
X38614273Y-26270000D02*
X38690464Y-26231904D01*
X38804750Y-26231904D01*
X38919035Y-26270000D01*
X38995226Y-26346190D01*
X39033321Y-26422380D01*
X39071416Y-26574761D01*
X39071416Y-26689047D01*
X39033321Y-26841428D01*
X38995226Y-26917619D01*
X38919035Y-26993809D01*
X38804750Y-27031904D01*
X38728559Y-27031904D01*
X38614273Y-26993809D01*
X38576178Y-26955714D01*
X38576178Y-26689047D01*
X38728559Y-26689047D01*
X38233321Y-27031904D02*
X38233321Y-26231904D01*
X37776178Y-27031904D01*
X37776178Y-26231904D01*
X37395226Y-27031904D02*
X37395226Y-26231904D01*
X37204750Y-26231904D01*
X37090464Y-26270000D01*
X37014273Y-26346190D01*
X36976178Y-26422380D01*
X36938083Y-26574761D01*
X36938083Y-26689047D01*
X36976178Y-26841428D01*
X37014273Y-26917619D01*
X37090464Y-26993809D01*
X37204750Y-27031904D01*
X37395226Y-27031904D01*
X38557130Y-24491904D02*
X38823797Y-24110952D01*
X39014273Y-24491904D02*
X39014273Y-23691904D01*
X38709511Y-23691904D01*
X38633321Y-23730000D01*
X38595226Y-23768095D01*
X38557130Y-23844285D01*
X38557130Y-23958571D01*
X38595226Y-24034761D01*
X38633321Y-24072857D01*
X38709511Y-24110952D01*
X39014273Y-24110952D01*
X38252369Y-24263333D02*
X37871416Y-24263333D01*
X38328559Y-24491904D02*
X38061892Y-23691904D01*
X37795226Y-24491904D01*
X37604750Y-23691904D02*
X37414273Y-24491904D01*
X37261892Y-23920476D01*
X37109511Y-24491904D01*
X36919035Y-23691904D01*
X38271416Y-36772857D02*
X38538083Y-36772857D01*
X38538083Y-37191904D02*
X38538083Y-36391904D01*
X38157130Y-36391904D01*
X37471416Y-36391904D02*
X37852369Y-36391904D01*
X37890464Y-36772857D01*
X37852369Y-36734761D01*
X37776178Y-36696666D01*
X37585702Y-36696666D01*
X37509511Y-36734761D01*
X37471416Y-36772857D01*
X37433321Y-36849047D01*
X37433321Y-37039523D01*
X37471416Y-37115714D01*
X37509511Y-37153809D01*
X37585702Y-37191904D01*
X37776178Y-37191904D01*
X37852369Y-37153809D01*
X37890464Y-37115714D01*
X38271416Y-39312857D02*
X38538083Y-39312857D01*
X38538083Y-39731904D02*
X38538083Y-38931904D01*
X38157130Y-38931904D01*
X37509511Y-38931904D02*
X37661892Y-38931904D01*
X37738083Y-38970000D01*
X37776178Y-39008095D01*
X37852369Y-39122380D01*
X37890464Y-39274761D01*
X37890464Y-39579523D01*
X37852369Y-39655714D01*
X37814273Y-39693809D01*
X37738083Y-39731904D01*
X37585702Y-39731904D01*
X37509511Y-39693809D01*
X37471416Y-39655714D01*
X37433321Y-39579523D01*
X37433321Y-39389047D01*
X37471416Y-39312857D01*
X37509511Y-39274761D01*
X37585702Y-39236666D01*
X37738083Y-39236666D01*
X37814273Y-39274761D01*
X37852369Y-39312857D01*
X37890464Y-39389047D01*
X38271416Y-41852857D02*
X38538083Y-41852857D01*
X38538083Y-42271904D02*
X38538083Y-41471904D01*
X38157130Y-41471904D01*
X37928559Y-41471904D02*
X37395226Y-41471904D01*
X37738083Y-42271904D01*
X38328559Y-49472857D02*
X38214273Y-49510952D01*
X38176178Y-49549047D01*
X38138083Y-49625238D01*
X38138083Y-49739523D01*
X38176178Y-49815714D01*
X38214273Y-49853809D01*
X38290464Y-49891904D01*
X38595226Y-49891904D01*
X38595226Y-49091904D01*
X38328559Y-49091904D01*
X38252369Y-49130000D01*
X38214273Y-49168095D01*
X38176178Y-49244285D01*
X38176178Y-49320476D01*
X38214273Y-49396666D01*
X38252369Y-49434761D01*
X38328559Y-49472857D01*
X38595226Y-49472857D01*
X37833321Y-49168095D02*
X37795226Y-49130000D01*
X37719035Y-49091904D01*
X37528559Y-49091904D01*
X37452369Y-49130000D01*
X37414273Y-49168095D01*
X37376178Y-49244285D01*
X37376178Y-49320476D01*
X37414273Y-49434761D01*
X37871416Y-49891904D01*
X37376178Y-49891904D01*
X31162354Y-23691904D02*
X30705211Y-23691904D01*
X30933782Y-24491904D02*
X30933782Y-23691904D01*
X30514735Y-23691904D02*
X29981401Y-24491904D01*
X29981401Y-23691904D02*
X30514735Y-24491904D01*
X29524258Y-23691904D02*
X29448068Y-23691904D01*
X29371878Y-23730000D01*
X29333782Y-23768095D01*
X29295687Y-23844285D01*
X29257592Y-23996666D01*
X29257592Y-24187142D01*
X29295687Y-24339523D01*
X29333782Y-24415714D01*
X29371878Y-24453809D01*
X29448068Y-24491904D01*
X29524258Y-24491904D01*
X29600449Y-24453809D01*
X29638544Y-24415714D01*
X29676639Y-24339523D01*
X29714735Y-24187142D01*
X29714735Y-23996666D01*
X29676639Y-23844285D01*
X29638544Y-23768095D01*
X29600449Y-23730000D01*
X29524258Y-23691904D01*
X28343306Y-23653809D02*
X29029020Y-24682380D01*
X28076639Y-24491904D02*
X28076639Y-23691904D01*
X27886163Y-23691904D01*
X27771878Y-23730000D01*
X27695687Y-23806190D01*
X27657592Y-23882380D01*
X27619497Y-24034761D01*
X27619497Y-24149047D01*
X27657592Y-24301428D01*
X27695687Y-24377619D01*
X27771878Y-24453809D01*
X27886163Y-24491904D01*
X28076639Y-24491904D01*
X27352830Y-23691904D02*
X26857592Y-23691904D01*
X27124258Y-23996666D01*
X27009973Y-23996666D01*
X26933782Y-24034761D01*
X26895687Y-24072857D01*
X26857592Y-24149047D01*
X26857592Y-24339523D01*
X26895687Y-24415714D01*
X26933782Y-24453809D01*
X27009973Y-24491904D01*
X27238544Y-24491904D01*
X27314735Y-24453809D01*
X27352830Y-24415714D01*
X38117083Y-29513809D02*
X38002797Y-29551904D01*
X37812321Y-29551904D01*
X37736130Y-29513809D01*
X37698035Y-29475714D01*
X37659940Y-29399523D01*
X37659940Y-29323333D01*
X37698035Y-29247142D01*
X37736130Y-29209047D01*
X37812321Y-29170952D01*
X37964702Y-29132857D01*
X38040892Y-29094761D01*
X38078988Y-29056666D01*
X38117083Y-28980476D01*
X38117083Y-28904285D01*
X38078988Y-28828095D01*
X38040892Y-28790000D01*
X37964702Y-28751904D01*
X37774226Y-28751904D01*
X37659940Y-28790000D01*
X37431369Y-28751904D02*
X36974226Y-28751904D01*
X37202797Y-29551904D02*
X37202797Y-28751904D01*
%TD*%
M02*
