%TF.GenerationSoftware,KiCad,Pcbnew,(5.1.9)-1*%
%TF.CreationDate,2021-03-11T10:21:24+08:00*%
%TF.ProjectId,Retrograde Pad,52657472-6f67-4726-9164-65205061642e,rev?*%
%TF.SameCoordinates,Original*%
%TF.FileFunction,Legend,Bot*%
%TF.FilePolarity,Positive*%
%FSLAX46Y46*%
G04 Gerber Fmt 4.6, Leading zero omitted, Abs format (unit mm)*
G04 Created by KiCad (PCBNEW (5.1.9)-1) date 2021-03-11 10:21:24*
%MOMM*%
%LPD*%
G01*
G04 APERTURE LIST*
%ADD10C,0.120000*%
%ADD11C,0.381000*%
%ADD12C,0.150000*%
G04 APERTURE END LIST*
D10*
%TO.C,C1*%
X108008750Y-72736252D02*
X108008750Y-72213748D01*
X109478750Y-72736252D02*
X109478750Y-72213748D01*
%TO.C,C2*%
X146594500Y-110027998D02*
X146594500Y-110550502D01*
X145124500Y-110027998D02*
X145124500Y-110550502D01*
%TO.C,C3*%
X128528750Y-72736252D02*
X128528750Y-72213748D01*
X127058750Y-72736252D02*
X127058750Y-72213748D01*
%TO.C,C4*%
X126265000Y-110027998D02*
X126265000Y-110550502D01*
X127735000Y-110027998D02*
X127735000Y-110550502D01*
%TO.C,C5*%
X146108750Y-72736252D02*
X146108750Y-72213748D01*
X147578750Y-72736252D02*
X147578750Y-72213748D01*
%TO.C,C6*%
X108685000Y-110027998D02*
X108685000Y-110550502D01*
X107215000Y-110027998D02*
X107215000Y-110550502D01*
%TO.C,C7*%
X147578750Y-91786252D02*
X147578750Y-91263748D01*
X146108750Y-91786252D02*
X146108750Y-91263748D01*
%TO.C,C8*%
X107215000Y-91263748D02*
X107215000Y-91786252D01*
X108685000Y-91263748D02*
X108685000Y-91786252D01*
%TO.C,D18*%
X98743750Y-75775000D02*
X98743750Y-74625000D01*
X106043750Y-75775000D02*
X98743750Y-75775000D01*
X106043750Y-70275000D02*
X98743750Y-70275000D01*
%TO.C,D19*%
X144143750Y-108089250D02*
X144143750Y-109239250D01*
X136843750Y-108089250D02*
X144143750Y-108089250D01*
X136843750Y-113589250D02*
X144143750Y-113589250D01*
%TO.C,D20*%
X125093750Y-70275000D02*
X117793750Y-70275000D01*
X125093750Y-75775000D02*
X117793750Y-75775000D01*
X117793750Y-75775000D02*
X117793750Y-74625000D01*
%TO.C,D21*%
X117793750Y-113589250D02*
X125093750Y-113589250D01*
X117793750Y-108089250D02*
X125093750Y-108089250D01*
X125093750Y-108089250D02*
X125093750Y-109239250D01*
%TO.C,D22*%
X136843750Y-75775000D02*
X136843750Y-74625000D01*
X144143750Y-75775000D02*
X136843750Y-75775000D01*
X144143750Y-70275000D02*
X136843750Y-70275000D01*
%TO.C,D23*%
X106043750Y-108089250D02*
X106043750Y-109239250D01*
X98743750Y-108089250D02*
X106043750Y-108089250D01*
X98743750Y-113589250D02*
X106043750Y-113589250D01*
%TO.C,D24*%
X144143750Y-89325000D02*
X136843750Y-89325000D01*
X144143750Y-94825000D02*
X136843750Y-94825000D01*
X136843750Y-94825000D02*
X136843750Y-93675000D01*
%TO.C,D25*%
X98743750Y-94825000D02*
X106043750Y-94825000D01*
X98743750Y-89325000D02*
X106043750Y-89325000D01*
X106043750Y-89325000D02*
X106043750Y-90475000D01*
D11*
%TO.C,U1*%
X60325000Y-57150000D02*
X57785000Y-57150000D01*
X60325000Y-54610000D02*
X60325000Y-57150000D01*
D12*
G36*
X72719635Y-60899030D02*
G01*
X72719635Y-60999030D01*
X72819635Y-60999030D01*
X72819635Y-60899030D01*
X72719635Y-60899030D01*
G37*
X72719635Y-60899030D02*
X72719635Y-60999030D01*
X72819635Y-60999030D01*
X72819635Y-60899030D01*
X72719635Y-60899030D01*
G36*
X72919635Y-60499030D02*
G01*
X72919635Y-61299030D01*
X73019635Y-61299030D01*
X73019635Y-60499030D01*
X72919635Y-60499030D01*
G37*
X72919635Y-60499030D02*
X72919635Y-61299030D01*
X73019635Y-61299030D01*
X73019635Y-60499030D01*
X72919635Y-60499030D01*
G36*
X72519635Y-61099030D02*
G01*
X72519635Y-61299030D01*
X72619635Y-61299030D01*
X72619635Y-61099030D01*
X72519635Y-61099030D01*
G37*
X72519635Y-61099030D02*
X72519635Y-61299030D01*
X72619635Y-61299030D01*
X72619635Y-61099030D01*
X72519635Y-61099030D01*
G36*
X72519635Y-60499030D02*
G01*
X72519635Y-60799030D01*
X72619635Y-60799030D01*
X72619635Y-60499030D01*
X72519635Y-60499030D01*
G37*
X72519635Y-60499030D02*
X72519635Y-60799030D01*
X72619635Y-60799030D01*
X72619635Y-60499030D01*
X72519635Y-60499030D01*
G36*
X72519635Y-60499030D02*
G01*
X72519635Y-60599030D01*
X73019635Y-60599030D01*
X73019635Y-60499030D01*
X72519635Y-60499030D01*
G37*
X72519635Y-60499030D02*
X72519635Y-60599030D01*
X73019635Y-60599030D01*
X73019635Y-60499030D01*
X72519635Y-60499030D01*
D11*
X75565000Y-85090000D02*
X75565000Y-52070000D01*
X57785000Y-85090000D02*
X75565000Y-85090000D01*
X57785000Y-52070000D02*
X57785000Y-85090000D01*
X75565000Y-52070000D02*
X57785000Y-52070000D01*
X60325000Y-54610000D02*
X57785000Y-54610000D01*
D10*
%TO.C,D1*%
X189118750Y-81128750D02*
X186258750Y-81128750D01*
X186258750Y-81128750D02*
X186258750Y-79208750D01*
X186258750Y-79208750D02*
X189118750Y-79208750D01*
%TO.C,D2*%
X85097500Y-60052500D02*
X85097500Y-62912500D01*
X83177500Y-60052500D02*
X85097500Y-60052500D01*
X83177500Y-62912500D02*
X83177500Y-60052500D01*
%TO.C,D3*%
X85097500Y-79102500D02*
X85097500Y-81962500D01*
X83177500Y-79102500D02*
X85097500Y-79102500D01*
X83177500Y-81962500D02*
X83177500Y-79102500D01*
%TO.C,D4*%
X83177500Y-101012500D02*
X83177500Y-98152500D01*
X83177500Y-98152500D02*
X85097500Y-98152500D01*
X85097500Y-98152500D02*
X85097500Y-101012500D01*
%TO.C,D5*%
X83177500Y-120062500D02*
X83177500Y-117202500D01*
X83177500Y-117202500D02*
X85097500Y-117202500D01*
X85097500Y-117202500D02*
X85097500Y-120062500D01*
%TO.C,D6*%
X102227500Y-62912500D02*
X102227500Y-60052500D01*
X102227500Y-60052500D02*
X104147500Y-60052500D01*
X104147500Y-60052500D02*
X104147500Y-62912500D01*
%TO.C,D7*%
X104147500Y-79102500D02*
X104147500Y-81962500D01*
X102227500Y-79102500D02*
X104147500Y-79102500D01*
X102227500Y-81962500D02*
X102227500Y-79102500D01*
%TO.C,D8*%
X104147500Y-98152500D02*
X104147500Y-101012500D01*
X102227500Y-98152500D02*
X104147500Y-98152500D01*
X102227500Y-101012500D02*
X102227500Y-98152500D01*
%TO.C,D9*%
X104147500Y-117202500D02*
X104147500Y-120062500D01*
X102227500Y-117202500D02*
X104147500Y-117202500D01*
X102227500Y-120062500D02*
X102227500Y-117202500D01*
%TO.C,D10*%
X123197500Y-60052500D02*
X123197500Y-62912500D01*
X121277500Y-60052500D02*
X123197500Y-60052500D01*
X121277500Y-62912500D02*
X121277500Y-60052500D01*
%TO.C,D11*%
X121277500Y-81962500D02*
X121277500Y-79102500D01*
X121277500Y-79102500D02*
X123197500Y-79102500D01*
X123197500Y-79102500D02*
X123197500Y-81962500D01*
%TO.C,D12*%
X121277500Y-101012500D02*
X121277500Y-98152500D01*
X121277500Y-98152500D02*
X123197500Y-98152500D01*
X123197500Y-98152500D02*
X123197500Y-101012500D01*
%TO.C,D13*%
X123197500Y-117202500D02*
X123197500Y-120062500D01*
X121277500Y-117202500D02*
X123197500Y-117202500D01*
X121277500Y-120062500D02*
X121277500Y-117202500D01*
%TO.C,D14*%
X140327500Y-62912500D02*
X140327500Y-60052500D01*
X140327500Y-60052500D02*
X142247500Y-60052500D01*
X142247500Y-60052500D02*
X142247500Y-62912500D01*
%TO.C,D15*%
X142247500Y-79102500D02*
X142247500Y-81962500D01*
X140327500Y-79102500D02*
X142247500Y-79102500D01*
X140327500Y-81962500D02*
X140327500Y-79102500D01*
%TO.C,D16*%
X142247500Y-98152500D02*
X142247500Y-101012500D01*
X140327500Y-98152500D02*
X142247500Y-98152500D01*
X140327500Y-101012500D02*
X140327500Y-98152500D01*
%TO.C,D17*%
X140327500Y-120062500D02*
X140327500Y-117202500D01*
X140327500Y-117202500D02*
X142247500Y-117202500D01*
X142247500Y-117202500D02*
X142247500Y-120062500D01*
%TO.C,C1*%
D12*
X110780892Y-72308333D02*
X110828511Y-72260714D01*
X110876130Y-72117857D01*
X110876130Y-72022619D01*
X110828511Y-71879761D01*
X110733273Y-71784523D01*
X110638035Y-71736904D01*
X110447559Y-71689285D01*
X110304702Y-71689285D01*
X110114226Y-71736904D01*
X110018988Y-71784523D01*
X109923750Y-71879761D01*
X109876130Y-72022619D01*
X109876130Y-72117857D01*
X109923750Y-72260714D01*
X109971369Y-72308333D01*
X110876130Y-73260714D02*
X110876130Y-72689285D01*
X110876130Y-72975000D02*
X109876130Y-72975000D01*
X110018988Y-72879761D01*
X110114226Y-72784523D01*
X110161845Y-72689285D01*
%TO.C,C2*%
X147994642Y-110122583D02*
X148042261Y-110074964D01*
X148089880Y-109932107D01*
X148089880Y-109836869D01*
X148042261Y-109694011D01*
X147947023Y-109598773D01*
X147851785Y-109551154D01*
X147661309Y-109503535D01*
X147518452Y-109503535D01*
X147327976Y-109551154D01*
X147232738Y-109598773D01*
X147137500Y-109694011D01*
X147089880Y-109836869D01*
X147089880Y-109932107D01*
X147137500Y-110074964D01*
X147185119Y-110122583D01*
X147185119Y-110503535D02*
X147137500Y-110551154D01*
X147089880Y-110646392D01*
X147089880Y-110884488D01*
X147137500Y-110979726D01*
X147185119Y-111027345D01*
X147280357Y-111074964D01*
X147375595Y-111074964D01*
X147518452Y-111027345D01*
X148089880Y-110455916D01*
X148089880Y-111074964D01*
%TO.C,C3*%
X129830892Y-72308333D02*
X129878511Y-72260714D01*
X129926130Y-72117857D01*
X129926130Y-72022619D01*
X129878511Y-71879761D01*
X129783273Y-71784523D01*
X129688035Y-71736904D01*
X129497559Y-71689285D01*
X129354702Y-71689285D01*
X129164226Y-71736904D01*
X129068988Y-71784523D01*
X128973750Y-71879761D01*
X128926130Y-72022619D01*
X128926130Y-72117857D01*
X128973750Y-72260714D01*
X129021369Y-72308333D01*
X128926130Y-72641666D02*
X128926130Y-73260714D01*
X129307083Y-72927380D01*
X129307083Y-73070238D01*
X129354702Y-73165476D01*
X129402321Y-73213095D01*
X129497559Y-73260714D01*
X129735654Y-73260714D01*
X129830892Y-73213095D01*
X129878511Y-73165476D01*
X129926130Y-73070238D01*
X129926130Y-72784523D01*
X129878511Y-72689285D01*
X129830892Y-72641666D01*
%TO.C,C4*%
X129325642Y-110196333D02*
X129373261Y-110148714D01*
X129420880Y-110005857D01*
X129420880Y-109910619D01*
X129373261Y-109767761D01*
X129278023Y-109672523D01*
X129182785Y-109624904D01*
X128992309Y-109577285D01*
X128849452Y-109577285D01*
X128658976Y-109624904D01*
X128563738Y-109672523D01*
X128468500Y-109767761D01*
X128420880Y-109910619D01*
X128420880Y-110005857D01*
X128468500Y-110148714D01*
X128516119Y-110196333D01*
X128754214Y-111053476D02*
X129420880Y-111053476D01*
X128373261Y-110815380D02*
X129087547Y-110577285D01*
X129087547Y-111196333D01*
%TO.C,C5*%
X148880892Y-72308333D02*
X148928511Y-72260714D01*
X148976130Y-72117857D01*
X148976130Y-72022619D01*
X148928511Y-71879761D01*
X148833273Y-71784523D01*
X148738035Y-71736904D01*
X148547559Y-71689285D01*
X148404702Y-71689285D01*
X148214226Y-71736904D01*
X148118988Y-71784523D01*
X148023750Y-71879761D01*
X147976130Y-72022619D01*
X147976130Y-72117857D01*
X148023750Y-72260714D01*
X148071369Y-72308333D01*
X147976130Y-73213095D02*
X147976130Y-72736904D01*
X148452321Y-72689285D01*
X148404702Y-72736904D01*
X148357083Y-72832142D01*
X148357083Y-73070238D01*
X148404702Y-73165476D01*
X148452321Y-73213095D01*
X148547559Y-73260714D01*
X148785654Y-73260714D01*
X148880892Y-73213095D01*
X148928511Y-73165476D01*
X148976130Y-73070238D01*
X148976130Y-72832142D01*
X148928511Y-72736904D01*
X148880892Y-72689285D01*
%TO.C,C6*%
X110116892Y-110122583D02*
X110164511Y-110074964D01*
X110212130Y-109932107D01*
X110212130Y-109836869D01*
X110164511Y-109694011D01*
X110069273Y-109598773D01*
X109974035Y-109551154D01*
X109783559Y-109503535D01*
X109640702Y-109503535D01*
X109450226Y-109551154D01*
X109354988Y-109598773D01*
X109259750Y-109694011D01*
X109212130Y-109836869D01*
X109212130Y-109932107D01*
X109259750Y-110074964D01*
X109307369Y-110122583D01*
X109212130Y-110979726D02*
X109212130Y-110789250D01*
X109259750Y-110694011D01*
X109307369Y-110646392D01*
X109450226Y-110551154D01*
X109640702Y-110503535D01*
X110021654Y-110503535D01*
X110116892Y-110551154D01*
X110164511Y-110598773D01*
X110212130Y-110694011D01*
X110212130Y-110884488D01*
X110164511Y-110979726D01*
X110116892Y-111027345D01*
X110021654Y-111074964D01*
X109783559Y-111074964D01*
X109688321Y-111027345D01*
X109640702Y-110979726D01*
X109593083Y-110884488D01*
X109593083Y-110694011D01*
X109640702Y-110598773D01*
X109688321Y-110551154D01*
X109783559Y-110503535D01*
%TO.C,C7*%
X148880892Y-91358333D02*
X148928511Y-91310714D01*
X148976130Y-91167857D01*
X148976130Y-91072619D01*
X148928511Y-90929761D01*
X148833273Y-90834523D01*
X148738035Y-90786904D01*
X148547559Y-90739285D01*
X148404702Y-90739285D01*
X148214226Y-90786904D01*
X148118988Y-90834523D01*
X148023750Y-90929761D01*
X147976130Y-91072619D01*
X147976130Y-91167857D01*
X148023750Y-91310714D01*
X148071369Y-91358333D01*
X147976130Y-91691666D02*
X147976130Y-92358333D01*
X148976130Y-91929761D01*
%TO.C,C8*%
X110212142Y-91358333D02*
X110259761Y-91310714D01*
X110307380Y-91167857D01*
X110307380Y-91072619D01*
X110259761Y-90929761D01*
X110164523Y-90834523D01*
X110069285Y-90786904D01*
X109878809Y-90739285D01*
X109735952Y-90739285D01*
X109545476Y-90786904D01*
X109450238Y-90834523D01*
X109355000Y-90929761D01*
X109307380Y-91072619D01*
X109307380Y-91167857D01*
X109355000Y-91310714D01*
X109402619Y-91358333D01*
X109735952Y-91929761D02*
X109688333Y-91834523D01*
X109640714Y-91786904D01*
X109545476Y-91739285D01*
X109497857Y-91739285D01*
X109402619Y-91786904D01*
X109355000Y-91834523D01*
X109307380Y-91929761D01*
X109307380Y-92120238D01*
X109355000Y-92215476D01*
X109402619Y-92263095D01*
X109497857Y-92310714D01*
X109545476Y-92310714D01*
X109640714Y-92263095D01*
X109688333Y-92215476D01*
X109735952Y-92120238D01*
X109735952Y-91929761D01*
X109783571Y-91834523D01*
X109831190Y-91786904D01*
X109926428Y-91739285D01*
X110116904Y-91739285D01*
X110212142Y-91786904D01*
X110259761Y-91834523D01*
X110307380Y-91929761D01*
X110307380Y-92120238D01*
X110259761Y-92215476D01*
X110212142Y-92263095D01*
X110116904Y-92310714D01*
X109926428Y-92310714D01*
X109831190Y-92263095D01*
X109783571Y-92215476D01*
X109735952Y-92120238D01*
%TO.C,D18*%
X103608035Y-69977380D02*
X103608035Y-68977380D01*
X103369940Y-68977380D01*
X103227083Y-69025000D01*
X103131845Y-69120238D01*
X103084226Y-69215476D01*
X103036607Y-69405952D01*
X103036607Y-69548809D01*
X103084226Y-69739285D01*
X103131845Y-69834523D01*
X103227083Y-69929761D01*
X103369940Y-69977380D01*
X103608035Y-69977380D01*
X102084226Y-69977380D02*
X102655654Y-69977380D01*
X102369940Y-69977380D02*
X102369940Y-68977380D01*
X102465178Y-69120238D01*
X102560416Y-69215476D01*
X102655654Y-69263095D01*
X101512797Y-69405952D02*
X101608035Y-69358333D01*
X101655654Y-69310714D01*
X101703273Y-69215476D01*
X101703273Y-69167857D01*
X101655654Y-69072619D01*
X101608035Y-69025000D01*
X101512797Y-68977380D01*
X101322321Y-68977380D01*
X101227083Y-69025000D01*
X101179464Y-69072619D01*
X101131845Y-69167857D01*
X101131845Y-69215476D01*
X101179464Y-69310714D01*
X101227083Y-69358333D01*
X101322321Y-69405952D01*
X101512797Y-69405952D01*
X101608035Y-69453571D01*
X101655654Y-69501190D01*
X101703273Y-69596428D01*
X101703273Y-69786904D01*
X101655654Y-69882142D01*
X101608035Y-69929761D01*
X101512797Y-69977380D01*
X101322321Y-69977380D01*
X101227083Y-69929761D01*
X101179464Y-69882142D01*
X101131845Y-69786904D01*
X101131845Y-69596428D01*
X101179464Y-69501190D01*
X101227083Y-69453571D01*
X101322321Y-69405952D01*
X106258035Y-71877380D02*
X106829464Y-71877380D01*
X106543750Y-71877380D02*
X106543750Y-70877380D01*
X106638988Y-71020238D01*
X106734226Y-71115476D01*
X106829464Y-71163095D01*
%TO.C,D19*%
X141708035Y-114791630D02*
X141708035Y-113791630D01*
X141469940Y-113791630D01*
X141327083Y-113839250D01*
X141231845Y-113934488D01*
X141184226Y-114029726D01*
X141136607Y-114220202D01*
X141136607Y-114363059D01*
X141184226Y-114553535D01*
X141231845Y-114648773D01*
X141327083Y-114744011D01*
X141469940Y-114791630D01*
X141708035Y-114791630D01*
X140184226Y-114791630D02*
X140755654Y-114791630D01*
X140469940Y-114791630D02*
X140469940Y-113791630D01*
X140565178Y-113934488D01*
X140660416Y-114029726D01*
X140755654Y-114077345D01*
X139708035Y-114791630D02*
X139517559Y-114791630D01*
X139422321Y-114744011D01*
X139374702Y-114696392D01*
X139279464Y-114553535D01*
X139231845Y-114363059D01*
X139231845Y-113982107D01*
X139279464Y-113886869D01*
X139327083Y-113839250D01*
X139422321Y-113791630D01*
X139612797Y-113791630D01*
X139708035Y-113839250D01*
X139755654Y-113886869D01*
X139803273Y-113982107D01*
X139803273Y-114220202D01*
X139755654Y-114315440D01*
X139708035Y-114363059D01*
X139612797Y-114410678D01*
X139422321Y-114410678D01*
X139327083Y-114363059D01*
X139279464Y-114315440D01*
X139231845Y-114220202D01*
X136058035Y-112891630D02*
X136629464Y-112891630D01*
X136343750Y-112891630D02*
X136343750Y-111891630D01*
X136438988Y-112034488D01*
X136534226Y-112129726D01*
X136629464Y-112177345D01*
%TO.C,D20*%
X122658035Y-69977380D02*
X122658035Y-68977380D01*
X122419940Y-68977380D01*
X122277083Y-69025000D01*
X122181845Y-69120238D01*
X122134226Y-69215476D01*
X122086607Y-69405952D01*
X122086607Y-69548809D01*
X122134226Y-69739285D01*
X122181845Y-69834523D01*
X122277083Y-69929761D01*
X122419940Y-69977380D01*
X122658035Y-69977380D01*
X121705654Y-69072619D02*
X121658035Y-69025000D01*
X121562797Y-68977380D01*
X121324702Y-68977380D01*
X121229464Y-69025000D01*
X121181845Y-69072619D01*
X121134226Y-69167857D01*
X121134226Y-69263095D01*
X121181845Y-69405952D01*
X121753273Y-69977380D01*
X121134226Y-69977380D01*
X120515178Y-68977380D02*
X120419940Y-68977380D01*
X120324702Y-69025000D01*
X120277083Y-69072619D01*
X120229464Y-69167857D01*
X120181845Y-69358333D01*
X120181845Y-69596428D01*
X120229464Y-69786904D01*
X120277083Y-69882142D01*
X120324702Y-69929761D01*
X120419940Y-69977380D01*
X120515178Y-69977380D01*
X120610416Y-69929761D01*
X120658035Y-69882142D01*
X120705654Y-69786904D01*
X120753273Y-69596428D01*
X120753273Y-69358333D01*
X120705654Y-69167857D01*
X120658035Y-69072619D01*
X120610416Y-69025000D01*
X120515178Y-68977380D01*
X125308035Y-71877380D02*
X125879464Y-71877380D01*
X125593750Y-71877380D02*
X125593750Y-70877380D01*
X125688988Y-71020238D01*
X125784226Y-71115476D01*
X125879464Y-71163095D01*
%TO.C,D21*%
X122658035Y-114791630D02*
X122658035Y-113791630D01*
X122419940Y-113791630D01*
X122277083Y-113839250D01*
X122181845Y-113934488D01*
X122134226Y-114029726D01*
X122086607Y-114220202D01*
X122086607Y-114363059D01*
X122134226Y-114553535D01*
X122181845Y-114648773D01*
X122277083Y-114744011D01*
X122419940Y-114791630D01*
X122658035Y-114791630D01*
X121705654Y-113886869D02*
X121658035Y-113839250D01*
X121562797Y-113791630D01*
X121324702Y-113791630D01*
X121229464Y-113839250D01*
X121181845Y-113886869D01*
X121134226Y-113982107D01*
X121134226Y-114077345D01*
X121181845Y-114220202D01*
X121753273Y-114791630D01*
X121134226Y-114791630D01*
X120181845Y-114791630D02*
X120753273Y-114791630D01*
X120467559Y-114791630D02*
X120467559Y-113791630D01*
X120562797Y-113934488D01*
X120658035Y-114029726D01*
X120753273Y-114077345D01*
X117008035Y-112891630D02*
X117579464Y-112891630D01*
X117293750Y-112891630D02*
X117293750Y-111891630D01*
X117388988Y-112034488D01*
X117484226Y-112129726D01*
X117579464Y-112177345D01*
%TO.C,D22*%
X141708035Y-69977380D02*
X141708035Y-68977380D01*
X141469940Y-68977380D01*
X141327083Y-69025000D01*
X141231845Y-69120238D01*
X141184226Y-69215476D01*
X141136607Y-69405952D01*
X141136607Y-69548809D01*
X141184226Y-69739285D01*
X141231845Y-69834523D01*
X141327083Y-69929761D01*
X141469940Y-69977380D01*
X141708035Y-69977380D01*
X140755654Y-69072619D02*
X140708035Y-69025000D01*
X140612797Y-68977380D01*
X140374702Y-68977380D01*
X140279464Y-69025000D01*
X140231845Y-69072619D01*
X140184226Y-69167857D01*
X140184226Y-69263095D01*
X140231845Y-69405952D01*
X140803273Y-69977380D01*
X140184226Y-69977380D01*
X139803273Y-69072619D02*
X139755654Y-69025000D01*
X139660416Y-68977380D01*
X139422321Y-68977380D01*
X139327083Y-69025000D01*
X139279464Y-69072619D01*
X139231845Y-69167857D01*
X139231845Y-69263095D01*
X139279464Y-69405952D01*
X139850892Y-69977380D01*
X139231845Y-69977380D01*
X144358035Y-71877380D02*
X144929464Y-71877380D01*
X144643750Y-71877380D02*
X144643750Y-70877380D01*
X144738988Y-71020238D01*
X144834226Y-71115476D01*
X144929464Y-71163095D01*
%TO.C,D23*%
X103608035Y-114791630D02*
X103608035Y-113791630D01*
X103369940Y-113791630D01*
X103227083Y-113839250D01*
X103131845Y-113934488D01*
X103084226Y-114029726D01*
X103036607Y-114220202D01*
X103036607Y-114363059D01*
X103084226Y-114553535D01*
X103131845Y-114648773D01*
X103227083Y-114744011D01*
X103369940Y-114791630D01*
X103608035Y-114791630D01*
X102655654Y-113886869D02*
X102608035Y-113839250D01*
X102512797Y-113791630D01*
X102274702Y-113791630D01*
X102179464Y-113839250D01*
X102131845Y-113886869D01*
X102084226Y-113982107D01*
X102084226Y-114077345D01*
X102131845Y-114220202D01*
X102703273Y-114791630D01*
X102084226Y-114791630D01*
X101750892Y-113791630D02*
X101131845Y-113791630D01*
X101465178Y-114172583D01*
X101322321Y-114172583D01*
X101227083Y-114220202D01*
X101179464Y-114267821D01*
X101131845Y-114363059D01*
X101131845Y-114601154D01*
X101179464Y-114696392D01*
X101227083Y-114744011D01*
X101322321Y-114791630D01*
X101608035Y-114791630D01*
X101703273Y-114744011D01*
X101750892Y-114696392D01*
X97958035Y-112891630D02*
X98529464Y-112891630D01*
X98243750Y-112891630D02*
X98243750Y-111891630D01*
X98338988Y-112034488D01*
X98434226Y-112129726D01*
X98529464Y-112177345D01*
%TO.C,D24*%
X141708035Y-89027380D02*
X141708035Y-88027380D01*
X141469940Y-88027380D01*
X141327083Y-88075000D01*
X141231845Y-88170238D01*
X141184226Y-88265476D01*
X141136607Y-88455952D01*
X141136607Y-88598809D01*
X141184226Y-88789285D01*
X141231845Y-88884523D01*
X141327083Y-88979761D01*
X141469940Y-89027380D01*
X141708035Y-89027380D01*
X140755654Y-88122619D02*
X140708035Y-88075000D01*
X140612797Y-88027380D01*
X140374702Y-88027380D01*
X140279464Y-88075000D01*
X140231845Y-88122619D01*
X140184226Y-88217857D01*
X140184226Y-88313095D01*
X140231845Y-88455952D01*
X140803273Y-89027380D01*
X140184226Y-89027380D01*
X139327083Y-88360714D02*
X139327083Y-89027380D01*
X139565178Y-87979761D02*
X139803273Y-88694047D01*
X139184226Y-88694047D01*
X144358035Y-90927380D02*
X144929464Y-90927380D01*
X144643750Y-90927380D02*
X144643750Y-89927380D01*
X144738988Y-90070238D01*
X144834226Y-90165476D01*
X144929464Y-90213095D01*
%TO.C,D25*%
X103608035Y-96027380D02*
X103608035Y-95027380D01*
X103369940Y-95027380D01*
X103227083Y-95075000D01*
X103131845Y-95170238D01*
X103084226Y-95265476D01*
X103036607Y-95455952D01*
X103036607Y-95598809D01*
X103084226Y-95789285D01*
X103131845Y-95884523D01*
X103227083Y-95979761D01*
X103369940Y-96027380D01*
X103608035Y-96027380D01*
X102655654Y-95122619D02*
X102608035Y-95075000D01*
X102512797Y-95027380D01*
X102274702Y-95027380D01*
X102179464Y-95075000D01*
X102131845Y-95122619D01*
X102084226Y-95217857D01*
X102084226Y-95313095D01*
X102131845Y-95455952D01*
X102703273Y-96027380D01*
X102084226Y-96027380D01*
X101179464Y-95027380D02*
X101655654Y-95027380D01*
X101703273Y-95503571D01*
X101655654Y-95455952D01*
X101560416Y-95408333D01*
X101322321Y-95408333D01*
X101227083Y-95455952D01*
X101179464Y-95503571D01*
X101131845Y-95598809D01*
X101131845Y-95836904D01*
X101179464Y-95932142D01*
X101227083Y-95979761D01*
X101322321Y-96027380D01*
X101560416Y-96027380D01*
X101655654Y-95979761D01*
X101703273Y-95932142D01*
X97958035Y-94127380D02*
X98529464Y-94127380D01*
X98243750Y-94127380D02*
X98243750Y-93127380D01*
X98338988Y-93270238D01*
X98434226Y-93365476D01*
X98529464Y-93413095D01*
%TO.C,U1*%
X61804476Y-58781904D02*
X61804476Y-57981904D01*
X61614000Y-57981904D01*
X61499714Y-58020000D01*
X61423523Y-58096190D01*
X61385428Y-58172380D01*
X61347333Y-58324761D01*
X61347333Y-58439047D01*
X61385428Y-58591428D01*
X61423523Y-58667619D01*
X61499714Y-58743809D01*
X61614000Y-58781904D01*
X61804476Y-58781904D01*
X61042571Y-58058095D02*
X61004476Y-58020000D01*
X60928285Y-57981904D01*
X60737809Y-57981904D01*
X60661619Y-58020000D01*
X60623523Y-58058095D01*
X60585428Y-58134285D01*
X60585428Y-58210476D01*
X60623523Y-58324761D01*
X61080666Y-58781904D01*
X60585428Y-58781904D01*
X61804476Y-68941904D02*
X61804476Y-68141904D01*
X61614000Y-68141904D01*
X61499714Y-68180000D01*
X61423523Y-68256190D01*
X61385428Y-68332380D01*
X61347333Y-68484761D01*
X61347333Y-68599047D01*
X61385428Y-68751428D01*
X61423523Y-68827619D01*
X61499714Y-68903809D01*
X61614000Y-68941904D01*
X61804476Y-68941904D01*
X60852095Y-68141904D02*
X60775904Y-68141904D01*
X60699714Y-68180000D01*
X60661619Y-68218095D01*
X60623523Y-68294285D01*
X60585428Y-68446666D01*
X60585428Y-68637142D01*
X60623523Y-68789523D01*
X60661619Y-68865714D01*
X60699714Y-68903809D01*
X60775904Y-68941904D01*
X60852095Y-68941904D01*
X60928285Y-68903809D01*
X60966380Y-68865714D01*
X61004476Y-68789523D01*
X61042571Y-68637142D01*
X61042571Y-68446666D01*
X61004476Y-68294285D01*
X60966380Y-68218095D01*
X60928285Y-68180000D01*
X60852095Y-68141904D01*
X61804476Y-66401904D02*
X61804476Y-65601904D01*
X61614000Y-65601904D01*
X61499714Y-65640000D01*
X61423523Y-65716190D01*
X61385428Y-65792380D01*
X61347333Y-65944761D01*
X61347333Y-66059047D01*
X61385428Y-66211428D01*
X61423523Y-66287619D01*
X61499714Y-66363809D01*
X61614000Y-66401904D01*
X61804476Y-66401904D01*
X60585428Y-66401904D02*
X61042571Y-66401904D01*
X60814000Y-66401904D02*
X60814000Y-65601904D01*
X60890190Y-65716190D01*
X60966380Y-65792380D01*
X61042571Y-65830476D01*
X61823523Y-63100000D02*
X61899714Y-63061904D01*
X62014000Y-63061904D01*
X62128285Y-63100000D01*
X62204476Y-63176190D01*
X62242571Y-63252380D01*
X62280666Y-63404761D01*
X62280666Y-63519047D01*
X62242571Y-63671428D01*
X62204476Y-63747619D01*
X62128285Y-63823809D01*
X62014000Y-63861904D01*
X61937809Y-63861904D01*
X61823523Y-63823809D01*
X61785428Y-63785714D01*
X61785428Y-63519047D01*
X61937809Y-63519047D01*
X61442571Y-63861904D02*
X61442571Y-63061904D01*
X60985428Y-63861904D01*
X60985428Y-63061904D01*
X60604476Y-63861904D02*
X60604476Y-63061904D01*
X60414000Y-63061904D01*
X60299714Y-63100000D01*
X60223523Y-63176190D01*
X60185428Y-63252380D01*
X60147333Y-63404761D01*
X60147333Y-63519047D01*
X60185428Y-63671428D01*
X60223523Y-63747619D01*
X60299714Y-63823809D01*
X60414000Y-63861904D01*
X60604476Y-63861904D01*
X61823523Y-60560000D02*
X61899714Y-60521904D01*
X62014000Y-60521904D01*
X62128285Y-60560000D01*
X62204476Y-60636190D01*
X62242571Y-60712380D01*
X62280666Y-60864761D01*
X62280666Y-60979047D01*
X62242571Y-61131428D01*
X62204476Y-61207619D01*
X62128285Y-61283809D01*
X62014000Y-61321904D01*
X61937809Y-61321904D01*
X61823523Y-61283809D01*
X61785428Y-61245714D01*
X61785428Y-60979047D01*
X61937809Y-60979047D01*
X61442571Y-61321904D02*
X61442571Y-60521904D01*
X60985428Y-61321904D01*
X60985428Y-60521904D01*
X60604476Y-61321904D02*
X60604476Y-60521904D01*
X60414000Y-60521904D01*
X60299714Y-60560000D01*
X60223523Y-60636190D01*
X60185428Y-60712380D01*
X60147333Y-60864761D01*
X60147333Y-60979047D01*
X60185428Y-61131428D01*
X60223523Y-61207619D01*
X60299714Y-61283809D01*
X60414000Y-61321904D01*
X60604476Y-61321904D01*
X61804476Y-71481904D02*
X61804476Y-70681904D01*
X61614000Y-70681904D01*
X61499714Y-70720000D01*
X61423523Y-70796190D01*
X61385428Y-70872380D01*
X61347333Y-71024761D01*
X61347333Y-71139047D01*
X61385428Y-71291428D01*
X61423523Y-71367619D01*
X61499714Y-71443809D01*
X61614000Y-71481904D01*
X61804476Y-71481904D01*
X60661619Y-70948571D02*
X60661619Y-71481904D01*
X60852095Y-70643809D02*
X61042571Y-71215238D01*
X60547333Y-71215238D01*
X61347333Y-73945714D02*
X61385428Y-73983809D01*
X61499714Y-74021904D01*
X61575904Y-74021904D01*
X61690190Y-73983809D01*
X61766380Y-73907619D01*
X61804476Y-73831428D01*
X61842571Y-73679047D01*
X61842571Y-73564761D01*
X61804476Y-73412380D01*
X61766380Y-73336190D01*
X61690190Y-73260000D01*
X61575904Y-73221904D01*
X61499714Y-73221904D01*
X61385428Y-73260000D01*
X61347333Y-73298095D01*
X60661619Y-73221904D02*
X60814000Y-73221904D01*
X60890190Y-73260000D01*
X60928285Y-73298095D01*
X61004476Y-73412380D01*
X61042571Y-73564761D01*
X61042571Y-73869523D01*
X61004476Y-73945714D01*
X60966380Y-73983809D01*
X60890190Y-74021904D01*
X60737809Y-74021904D01*
X60661619Y-73983809D01*
X60623523Y-73945714D01*
X60585428Y-73869523D01*
X60585428Y-73679047D01*
X60623523Y-73602857D01*
X60661619Y-73564761D01*
X60737809Y-73526666D01*
X60890190Y-73526666D01*
X60966380Y-73564761D01*
X61004476Y-73602857D01*
X61042571Y-73679047D01*
X61804476Y-76561904D02*
X61804476Y-75761904D01*
X61614000Y-75761904D01*
X61499714Y-75800000D01*
X61423523Y-75876190D01*
X61385428Y-75952380D01*
X61347333Y-76104761D01*
X61347333Y-76219047D01*
X61385428Y-76371428D01*
X61423523Y-76447619D01*
X61499714Y-76523809D01*
X61614000Y-76561904D01*
X61804476Y-76561904D01*
X61080666Y-75761904D02*
X60547333Y-75761904D01*
X60890190Y-76561904D01*
X61766380Y-78682857D02*
X61499714Y-78682857D01*
X61385428Y-79101904D02*
X61766380Y-79101904D01*
X61766380Y-78301904D01*
X61385428Y-78301904D01*
X60699714Y-78301904D02*
X60852095Y-78301904D01*
X60928285Y-78340000D01*
X60966380Y-78378095D01*
X61042571Y-78492380D01*
X61080666Y-78644761D01*
X61080666Y-78949523D01*
X61042571Y-79025714D01*
X61004476Y-79063809D01*
X60928285Y-79101904D01*
X60775904Y-79101904D01*
X60699714Y-79063809D01*
X60661619Y-79025714D01*
X60623523Y-78949523D01*
X60623523Y-78759047D01*
X60661619Y-78682857D01*
X60699714Y-78644761D01*
X60775904Y-78606666D01*
X60928285Y-78606666D01*
X61004476Y-78644761D01*
X61042571Y-78682857D01*
X61080666Y-78759047D01*
X61537809Y-81222857D02*
X61423523Y-81260952D01*
X61385428Y-81299047D01*
X61347333Y-81375238D01*
X61347333Y-81489523D01*
X61385428Y-81565714D01*
X61423523Y-81603809D01*
X61499714Y-81641904D01*
X61804476Y-81641904D01*
X61804476Y-80841904D01*
X61537809Y-80841904D01*
X61461619Y-80880000D01*
X61423523Y-80918095D01*
X61385428Y-80994285D01*
X61385428Y-81070476D01*
X61423523Y-81146666D01*
X61461619Y-81184761D01*
X61537809Y-81222857D01*
X61804476Y-81222857D01*
X60661619Y-81108571D02*
X60661619Y-81641904D01*
X60852095Y-80803809D02*
X61042571Y-81375238D01*
X60547333Y-81375238D01*
X61537809Y-83762857D02*
X61423523Y-83800952D01*
X61385428Y-83839047D01*
X61347333Y-83915238D01*
X61347333Y-84029523D01*
X61385428Y-84105714D01*
X61423523Y-84143809D01*
X61499714Y-84181904D01*
X61804476Y-84181904D01*
X61804476Y-83381904D01*
X61537809Y-83381904D01*
X61461619Y-83420000D01*
X61423523Y-83458095D01*
X61385428Y-83534285D01*
X61385428Y-83610476D01*
X61423523Y-83686666D01*
X61461619Y-83724761D01*
X61537809Y-83762857D01*
X61804476Y-83762857D01*
X60623523Y-83381904D02*
X61004476Y-83381904D01*
X61042571Y-83762857D01*
X61004476Y-83724761D01*
X60928285Y-83686666D01*
X60737809Y-83686666D01*
X60661619Y-83724761D01*
X60623523Y-83762857D01*
X60585428Y-83839047D01*
X60585428Y-84029523D01*
X60623523Y-84105714D01*
X60661619Y-84143809D01*
X60737809Y-84181904D01*
X60928285Y-84181904D01*
X61004476Y-84143809D01*
X61042571Y-84105714D01*
X72459809Y-83762857D02*
X72345523Y-83800952D01*
X72307428Y-83839047D01*
X72269333Y-83915238D01*
X72269333Y-84029523D01*
X72307428Y-84105714D01*
X72345523Y-84143809D01*
X72421714Y-84181904D01*
X72726476Y-84181904D01*
X72726476Y-83381904D01*
X72459809Y-83381904D01*
X72383619Y-83420000D01*
X72345523Y-83458095D01*
X72307428Y-83534285D01*
X72307428Y-83610476D01*
X72345523Y-83686666D01*
X72383619Y-83724761D01*
X72459809Y-83762857D01*
X72726476Y-83762857D01*
X71583619Y-83381904D02*
X71736000Y-83381904D01*
X71812190Y-83420000D01*
X71850285Y-83458095D01*
X71926476Y-83572380D01*
X71964571Y-83724761D01*
X71964571Y-84029523D01*
X71926476Y-84105714D01*
X71888380Y-84143809D01*
X71812190Y-84181904D01*
X71659809Y-84181904D01*
X71583619Y-84143809D01*
X71545523Y-84105714D01*
X71507428Y-84029523D01*
X71507428Y-83839047D01*
X71545523Y-83762857D01*
X71583619Y-83724761D01*
X71659809Y-83686666D01*
X71812190Y-83686666D01*
X71888380Y-83724761D01*
X71926476Y-83762857D01*
X71964571Y-83839047D01*
X72459809Y-78682857D02*
X72345523Y-78720952D01*
X72307428Y-78759047D01*
X72269333Y-78835238D01*
X72269333Y-78949523D01*
X72307428Y-79025714D01*
X72345523Y-79063809D01*
X72421714Y-79101904D01*
X72726476Y-79101904D01*
X72726476Y-78301904D01*
X72459809Y-78301904D01*
X72383619Y-78340000D01*
X72345523Y-78378095D01*
X72307428Y-78454285D01*
X72307428Y-78530476D01*
X72345523Y-78606666D01*
X72383619Y-78644761D01*
X72459809Y-78682857D01*
X72726476Y-78682857D01*
X72002666Y-78301904D02*
X71507428Y-78301904D01*
X71774095Y-78606666D01*
X71659809Y-78606666D01*
X71583619Y-78644761D01*
X71545523Y-78682857D01*
X71507428Y-78759047D01*
X71507428Y-78949523D01*
X71545523Y-79025714D01*
X71583619Y-79063809D01*
X71659809Y-79101904D01*
X71888380Y-79101904D01*
X71964571Y-79063809D01*
X72002666Y-79025714D01*
X72459809Y-76142857D02*
X72345523Y-76180952D01*
X72307428Y-76219047D01*
X72269333Y-76295238D01*
X72269333Y-76409523D01*
X72307428Y-76485714D01*
X72345523Y-76523809D01*
X72421714Y-76561904D01*
X72726476Y-76561904D01*
X72726476Y-75761904D01*
X72459809Y-75761904D01*
X72383619Y-75800000D01*
X72345523Y-75838095D01*
X72307428Y-75914285D01*
X72307428Y-75990476D01*
X72345523Y-76066666D01*
X72383619Y-76104761D01*
X72459809Y-76142857D01*
X72726476Y-76142857D01*
X71507428Y-76561904D02*
X71964571Y-76561904D01*
X71736000Y-76561904D02*
X71736000Y-75761904D01*
X71812190Y-75876190D01*
X71888380Y-75952380D01*
X71964571Y-75990476D01*
X72402666Y-65982857D02*
X72669333Y-65982857D01*
X72669333Y-66401904D02*
X72669333Y-65601904D01*
X72288380Y-65601904D01*
X71640761Y-65868571D02*
X71640761Y-66401904D01*
X71831238Y-65563809D02*
X72021714Y-66135238D01*
X71526476Y-66135238D01*
X73202666Y-63061904D02*
X72936000Y-63861904D01*
X72669333Y-63061904D01*
X71945523Y-63785714D02*
X71983619Y-63823809D01*
X72097904Y-63861904D01*
X72174095Y-63861904D01*
X72288380Y-63823809D01*
X72364571Y-63747619D01*
X72402666Y-63671428D01*
X72440761Y-63519047D01*
X72440761Y-63404761D01*
X72402666Y-63252380D01*
X72364571Y-63176190D01*
X72288380Y-63100000D01*
X72174095Y-63061904D01*
X72097904Y-63061904D01*
X71983619Y-63100000D01*
X71945523Y-63138095D01*
X71145523Y-63785714D02*
X71183619Y-63823809D01*
X71297904Y-63861904D01*
X71374095Y-63861904D01*
X71488380Y-63823809D01*
X71564571Y-63747619D01*
X71602666Y-63671428D01*
X71640761Y-63519047D01*
X71640761Y-63404761D01*
X71602666Y-63252380D01*
X71564571Y-63176190D01*
X71488380Y-63100000D01*
X71374095Y-63061904D01*
X71297904Y-63061904D01*
X71183619Y-63100000D01*
X71145523Y-63138095D01*
X72745523Y-58020000D02*
X72821714Y-57981904D01*
X72936000Y-57981904D01*
X73050285Y-58020000D01*
X73126476Y-58096190D01*
X73164571Y-58172380D01*
X73202666Y-58324761D01*
X73202666Y-58439047D01*
X73164571Y-58591428D01*
X73126476Y-58667619D01*
X73050285Y-58743809D01*
X72936000Y-58781904D01*
X72859809Y-58781904D01*
X72745523Y-58743809D01*
X72707428Y-58705714D01*
X72707428Y-58439047D01*
X72859809Y-58439047D01*
X72364571Y-58781904D02*
X72364571Y-57981904D01*
X71907428Y-58781904D01*
X71907428Y-57981904D01*
X71526476Y-58781904D02*
X71526476Y-57981904D01*
X71336000Y-57981904D01*
X71221714Y-58020000D01*
X71145523Y-58096190D01*
X71107428Y-58172380D01*
X71069333Y-58324761D01*
X71069333Y-58439047D01*
X71107428Y-58591428D01*
X71145523Y-58667619D01*
X71221714Y-58743809D01*
X71336000Y-58781904D01*
X71526476Y-58781904D01*
X72688380Y-56241904D02*
X72955047Y-55860952D01*
X73145523Y-56241904D02*
X73145523Y-55441904D01*
X72840761Y-55441904D01*
X72764571Y-55480000D01*
X72726476Y-55518095D01*
X72688380Y-55594285D01*
X72688380Y-55708571D01*
X72726476Y-55784761D01*
X72764571Y-55822857D01*
X72840761Y-55860952D01*
X73145523Y-55860952D01*
X72383619Y-56013333D02*
X72002666Y-56013333D01*
X72459809Y-56241904D02*
X72193142Y-55441904D01*
X71926476Y-56241904D01*
X71736000Y-55441904D02*
X71545523Y-56241904D01*
X71393142Y-55670476D01*
X71240761Y-56241904D01*
X71050285Y-55441904D01*
X72402666Y-68522857D02*
X72669333Y-68522857D01*
X72669333Y-68941904D02*
X72669333Y-68141904D01*
X72288380Y-68141904D01*
X71602666Y-68141904D02*
X71983619Y-68141904D01*
X72021714Y-68522857D01*
X71983619Y-68484761D01*
X71907428Y-68446666D01*
X71716952Y-68446666D01*
X71640761Y-68484761D01*
X71602666Y-68522857D01*
X71564571Y-68599047D01*
X71564571Y-68789523D01*
X71602666Y-68865714D01*
X71640761Y-68903809D01*
X71716952Y-68941904D01*
X71907428Y-68941904D01*
X71983619Y-68903809D01*
X72021714Y-68865714D01*
X72402666Y-71062857D02*
X72669333Y-71062857D01*
X72669333Y-71481904D02*
X72669333Y-70681904D01*
X72288380Y-70681904D01*
X71640761Y-70681904D02*
X71793142Y-70681904D01*
X71869333Y-70720000D01*
X71907428Y-70758095D01*
X71983619Y-70872380D01*
X72021714Y-71024761D01*
X72021714Y-71329523D01*
X71983619Y-71405714D01*
X71945523Y-71443809D01*
X71869333Y-71481904D01*
X71716952Y-71481904D01*
X71640761Y-71443809D01*
X71602666Y-71405714D01*
X71564571Y-71329523D01*
X71564571Y-71139047D01*
X71602666Y-71062857D01*
X71640761Y-71024761D01*
X71716952Y-70986666D01*
X71869333Y-70986666D01*
X71945523Y-71024761D01*
X71983619Y-71062857D01*
X72021714Y-71139047D01*
X72402666Y-73602857D02*
X72669333Y-73602857D01*
X72669333Y-74021904D02*
X72669333Y-73221904D01*
X72288380Y-73221904D01*
X72059809Y-73221904D02*
X71526476Y-73221904D01*
X71869333Y-74021904D01*
X72459809Y-81222857D02*
X72345523Y-81260952D01*
X72307428Y-81299047D01*
X72269333Y-81375238D01*
X72269333Y-81489523D01*
X72307428Y-81565714D01*
X72345523Y-81603809D01*
X72421714Y-81641904D01*
X72726476Y-81641904D01*
X72726476Y-80841904D01*
X72459809Y-80841904D01*
X72383619Y-80880000D01*
X72345523Y-80918095D01*
X72307428Y-80994285D01*
X72307428Y-81070476D01*
X72345523Y-81146666D01*
X72383619Y-81184761D01*
X72459809Y-81222857D01*
X72726476Y-81222857D01*
X71964571Y-80918095D02*
X71926476Y-80880000D01*
X71850285Y-80841904D01*
X71659809Y-80841904D01*
X71583619Y-80880000D01*
X71545523Y-80918095D01*
X71507428Y-80994285D01*
X71507428Y-81070476D01*
X71545523Y-81184761D01*
X72002666Y-81641904D01*
X71507428Y-81641904D01*
X65293604Y-55441904D02*
X64836461Y-55441904D01*
X65065032Y-56241904D02*
X65065032Y-55441904D01*
X64645985Y-55441904D02*
X64112651Y-56241904D01*
X64112651Y-55441904D02*
X64645985Y-56241904D01*
X63655508Y-55441904D02*
X63579318Y-55441904D01*
X63503128Y-55480000D01*
X63465032Y-55518095D01*
X63426937Y-55594285D01*
X63388842Y-55746666D01*
X63388842Y-55937142D01*
X63426937Y-56089523D01*
X63465032Y-56165714D01*
X63503128Y-56203809D01*
X63579318Y-56241904D01*
X63655508Y-56241904D01*
X63731699Y-56203809D01*
X63769794Y-56165714D01*
X63807889Y-56089523D01*
X63845985Y-55937142D01*
X63845985Y-55746666D01*
X63807889Y-55594285D01*
X63769794Y-55518095D01*
X63731699Y-55480000D01*
X63655508Y-55441904D01*
X62474556Y-55403809D02*
X63160270Y-56432380D01*
X62207889Y-56241904D02*
X62207889Y-55441904D01*
X62017413Y-55441904D01*
X61903128Y-55480000D01*
X61826937Y-55556190D01*
X61788842Y-55632380D01*
X61750747Y-55784761D01*
X61750747Y-55899047D01*
X61788842Y-56051428D01*
X61826937Y-56127619D01*
X61903128Y-56203809D01*
X62017413Y-56241904D01*
X62207889Y-56241904D01*
X61484080Y-55441904D02*
X60988842Y-55441904D01*
X61255508Y-55746666D01*
X61141223Y-55746666D01*
X61065032Y-55784761D01*
X61026937Y-55822857D01*
X60988842Y-55899047D01*
X60988842Y-56089523D01*
X61026937Y-56165714D01*
X61065032Y-56203809D01*
X61141223Y-56241904D01*
X61369794Y-56241904D01*
X61445985Y-56203809D01*
X61484080Y-56165714D01*
X72248333Y-61263809D02*
X72134047Y-61301904D01*
X71943571Y-61301904D01*
X71867380Y-61263809D01*
X71829285Y-61225714D01*
X71791190Y-61149523D01*
X71791190Y-61073333D01*
X71829285Y-60997142D01*
X71867380Y-60959047D01*
X71943571Y-60920952D01*
X72095952Y-60882857D01*
X72172142Y-60844761D01*
X72210238Y-60806666D01*
X72248333Y-60730476D01*
X72248333Y-60654285D01*
X72210238Y-60578095D01*
X72172142Y-60540000D01*
X72095952Y-60501904D01*
X71905476Y-60501904D01*
X71791190Y-60540000D01*
X71562619Y-60501904D02*
X71105476Y-60501904D01*
X71334047Y-61301904D02*
X71334047Y-60501904D01*
%TO.C,D1*%
X188856845Y-79033630D02*
X188856845Y-78033630D01*
X188618750Y-78033630D01*
X188475892Y-78081250D01*
X188380654Y-78176488D01*
X188333035Y-78271726D01*
X188285416Y-78462202D01*
X188285416Y-78605059D01*
X188333035Y-78795535D01*
X188380654Y-78890773D01*
X188475892Y-78986011D01*
X188618750Y-79033630D01*
X188856845Y-79033630D01*
X187333035Y-79033630D02*
X187904464Y-79033630D01*
X187618750Y-79033630D02*
X187618750Y-78033630D01*
X187713988Y-78176488D01*
X187809226Y-78271726D01*
X187904464Y-78319345D01*
%TO.C,D2*%
X82939880Y-61174404D02*
X81939880Y-61174404D01*
X81939880Y-61412500D01*
X81987500Y-61555357D01*
X82082738Y-61650595D01*
X82177976Y-61698214D01*
X82368452Y-61745833D01*
X82511309Y-61745833D01*
X82701785Y-61698214D01*
X82797023Y-61650595D01*
X82892261Y-61555357D01*
X82939880Y-61412500D01*
X82939880Y-61174404D01*
X82035119Y-62126785D02*
X81987500Y-62174404D01*
X81939880Y-62269642D01*
X81939880Y-62507738D01*
X81987500Y-62602976D01*
X82035119Y-62650595D01*
X82130357Y-62698214D01*
X82225595Y-62698214D01*
X82368452Y-62650595D01*
X82939880Y-62079166D01*
X82939880Y-62698214D01*
%TO.C,D3*%
X82939880Y-80224404D02*
X81939880Y-80224404D01*
X81939880Y-80462500D01*
X81987500Y-80605357D01*
X82082738Y-80700595D01*
X82177976Y-80748214D01*
X82368452Y-80795833D01*
X82511309Y-80795833D01*
X82701785Y-80748214D01*
X82797023Y-80700595D01*
X82892261Y-80605357D01*
X82939880Y-80462500D01*
X82939880Y-80224404D01*
X81939880Y-81129166D02*
X81939880Y-81748214D01*
X82320833Y-81414880D01*
X82320833Y-81557738D01*
X82368452Y-81652976D01*
X82416071Y-81700595D01*
X82511309Y-81748214D01*
X82749404Y-81748214D01*
X82844642Y-81700595D01*
X82892261Y-81652976D01*
X82939880Y-81557738D01*
X82939880Y-81272023D01*
X82892261Y-81176785D01*
X82844642Y-81129166D01*
%TO.C,D4*%
X82939880Y-99274404D02*
X81939880Y-99274404D01*
X81939880Y-99512500D01*
X81987500Y-99655357D01*
X82082738Y-99750595D01*
X82177976Y-99798214D01*
X82368452Y-99845833D01*
X82511309Y-99845833D01*
X82701785Y-99798214D01*
X82797023Y-99750595D01*
X82892261Y-99655357D01*
X82939880Y-99512500D01*
X82939880Y-99274404D01*
X82273214Y-100702976D02*
X82939880Y-100702976D01*
X81892261Y-100464880D02*
X82606547Y-100226785D01*
X82606547Y-100845833D01*
%TO.C,D5*%
X82939880Y-118324404D02*
X81939880Y-118324404D01*
X81939880Y-118562500D01*
X81987500Y-118705357D01*
X82082738Y-118800595D01*
X82177976Y-118848214D01*
X82368452Y-118895833D01*
X82511309Y-118895833D01*
X82701785Y-118848214D01*
X82797023Y-118800595D01*
X82892261Y-118705357D01*
X82939880Y-118562500D01*
X82939880Y-118324404D01*
X81939880Y-119800595D02*
X81939880Y-119324404D01*
X82416071Y-119276785D01*
X82368452Y-119324404D01*
X82320833Y-119419642D01*
X82320833Y-119657738D01*
X82368452Y-119752976D01*
X82416071Y-119800595D01*
X82511309Y-119848214D01*
X82749404Y-119848214D01*
X82844642Y-119800595D01*
X82892261Y-119752976D01*
X82939880Y-119657738D01*
X82939880Y-119419642D01*
X82892261Y-119324404D01*
X82844642Y-119276785D01*
%TO.C,D6*%
X101989880Y-61174404D02*
X100989880Y-61174404D01*
X100989880Y-61412500D01*
X101037500Y-61555357D01*
X101132738Y-61650595D01*
X101227976Y-61698214D01*
X101418452Y-61745833D01*
X101561309Y-61745833D01*
X101751785Y-61698214D01*
X101847023Y-61650595D01*
X101942261Y-61555357D01*
X101989880Y-61412500D01*
X101989880Y-61174404D01*
X100989880Y-62602976D02*
X100989880Y-62412500D01*
X101037500Y-62317261D01*
X101085119Y-62269642D01*
X101227976Y-62174404D01*
X101418452Y-62126785D01*
X101799404Y-62126785D01*
X101894642Y-62174404D01*
X101942261Y-62222023D01*
X101989880Y-62317261D01*
X101989880Y-62507738D01*
X101942261Y-62602976D01*
X101894642Y-62650595D01*
X101799404Y-62698214D01*
X101561309Y-62698214D01*
X101466071Y-62650595D01*
X101418452Y-62602976D01*
X101370833Y-62507738D01*
X101370833Y-62317261D01*
X101418452Y-62222023D01*
X101466071Y-62174404D01*
X101561309Y-62126785D01*
%TO.C,D7*%
X101989880Y-80224404D02*
X100989880Y-80224404D01*
X100989880Y-80462500D01*
X101037500Y-80605357D01*
X101132738Y-80700595D01*
X101227976Y-80748214D01*
X101418452Y-80795833D01*
X101561309Y-80795833D01*
X101751785Y-80748214D01*
X101847023Y-80700595D01*
X101942261Y-80605357D01*
X101989880Y-80462500D01*
X101989880Y-80224404D01*
X100989880Y-81129166D02*
X100989880Y-81795833D01*
X101989880Y-81367261D01*
%TO.C,D8*%
X101989880Y-99274404D02*
X100989880Y-99274404D01*
X100989880Y-99512500D01*
X101037500Y-99655357D01*
X101132738Y-99750595D01*
X101227976Y-99798214D01*
X101418452Y-99845833D01*
X101561309Y-99845833D01*
X101751785Y-99798214D01*
X101847023Y-99750595D01*
X101942261Y-99655357D01*
X101989880Y-99512500D01*
X101989880Y-99274404D01*
X101418452Y-100417261D02*
X101370833Y-100322023D01*
X101323214Y-100274404D01*
X101227976Y-100226785D01*
X101180357Y-100226785D01*
X101085119Y-100274404D01*
X101037500Y-100322023D01*
X100989880Y-100417261D01*
X100989880Y-100607738D01*
X101037500Y-100702976D01*
X101085119Y-100750595D01*
X101180357Y-100798214D01*
X101227976Y-100798214D01*
X101323214Y-100750595D01*
X101370833Y-100702976D01*
X101418452Y-100607738D01*
X101418452Y-100417261D01*
X101466071Y-100322023D01*
X101513690Y-100274404D01*
X101608928Y-100226785D01*
X101799404Y-100226785D01*
X101894642Y-100274404D01*
X101942261Y-100322023D01*
X101989880Y-100417261D01*
X101989880Y-100607738D01*
X101942261Y-100702976D01*
X101894642Y-100750595D01*
X101799404Y-100798214D01*
X101608928Y-100798214D01*
X101513690Y-100750595D01*
X101466071Y-100702976D01*
X101418452Y-100607738D01*
%TO.C,D9*%
X101989880Y-118324404D02*
X100989880Y-118324404D01*
X100989880Y-118562500D01*
X101037500Y-118705357D01*
X101132738Y-118800595D01*
X101227976Y-118848214D01*
X101418452Y-118895833D01*
X101561309Y-118895833D01*
X101751785Y-118848214D01*
X101847023Y-118800595D01*
X101942261Y-118705357D01*
X101989880Y-118562500D01*
X101989880Y-118324404D01*
X101989880Y-119372023D02*
X101989880Y-119562500D01*
X101942261Y-119657738D01*
X101894642Y-119705357D01*
X101751785Y-119800595D01*
X101561309Y-119848214D01*
X101180357Y-119848214D01*
X101085119Y-119800595D01*
X101037500Y-119752976D01*
X100989880Y-119657738D01*
X100989880Y-119467261D01*
X101037500Y-119372023D01*
X101085119Y-119324404D01*
X101180357Y-119276785D01*
X101418452Y-119276785D01*
X101513690Y-119324404D01*
X101561309Y-119372023D01*
X101608928Y-119467261D01*
X101608928Y-119657738D01*
X101561309Y-119752976D01*
X101513690Y-119800595D01*
X101418452Y-119848214D01*
%TO.C,D10*%
X121039880Y-60698214D02*
X120039880Y-60698214D01*
X120039880Y-60936309D01*
X120087500Y-61079166D01*
X120182738Y-61174404D01*
X120277976Y-61222023D01*
X120468452Y-61269642D01*
X120611309Y-61269642D01*
X120801785Y-61222023D01*
X120897023Y-61174404D01*
X120992261Y-61079166D01*
X121039880Y-60936309D01*
X121039880Y-60698214D01*
X121039880Y-62222023D02*
X121039880Y-61650595D01*
X121039880Y-61936309D02*
X120039880Y-61936309D01*
X120182738Y-61841071D01*
X120277976Y-61745833D01*
X120325595Y-61650595D01*
X120039880Y-62841071D02*
X120039880Y-62936309D01*
X120087500Y-63031547D01*
X120135119Y-63079166D01*
X120230357Y-63126785D01*
X120420833Y-63174404D01*
X120658928Y-63174404D01*
X120849404Y-63126785D01*
X120944642Y-63079166D01*
X120992261Y-63031547D01*
X121039880Y-62936309D01*
X121039880Y-62841071D01*
X120992261Y-62745833D01*
X120944642Y-62698214D01*
X120849404Y-62650595D01*
X120658928Y-62602976D01*
X120420833Y-62602976D01*
X120230357Y-62650595D01*
X120135119Y-62698214D01*
X120087500Y-62745833D01*
X120039880Y-62841071D01*
%TO.C,D11*%
X121039880Y-79748214D02*
X120039880Y-79748214D01*
X120039880Y-79986309D01*
X120087500Y-80129166D01*
X120182738Y-80224404D01*
X120277976Y-80272023D01*
X120468452Y-80319642D01*
X120611309Y-80319642D01*
X120801785Y-80272023D01*
X120897023Y-80224404D01*
X120992261Y-80129166D01*
X121039880Y-79986309D01*
X121039880Y-79748214D01*
X121039880Y-81272023D02*
X121039880Y-80700595D01*
X121039880Y-80986309D02*
X120039880Y-80986309D01*
X120182738Y-80891071D01*
X120277976Y-80795833D01*
X120325595Y-80700595D01*
X121039880Y-82224404D02*
X121039880Y-81652976D01*
X121039880Y-81938690D02*
X120039880Y-81938690D01*
X120182738Y-81843452D01*
X120277976Y-81748214D01*
X120325595Y-81652976D01*
%TO.C,D12*%
X121039880Y-98798214D02*
X120039880Y-98798214D01*
X120039880Y-99036309D01*
X120087500Y-99179166D01*
X120182738Y-99274404D01*
X120277976Y-99322023D01*
X120468452Y-99369642D01*
X120611309Y-99369642D01*
X120801785Y-99322023D01*
X120897023Y-99274404D01*
X120992261Y-99179166D01*
X121039880Y-99036309D01*
X121039880Y-98798214D01*
X121039880Y-100322023D02*
X121039880Y-99750595D01*
X121039880Y-100036309D02*
X120039880Y-100036309D01*
X120182738Y-99941071D01*
X120277976Y-99845833D01*
X120325595Y-99750595D01*
X120135119Y-100702976D02*
X120087500Y-100750595D01*
X120039880Y-100845833D01*
X120039880Y-101083928D01*
X120087500Y-101179166D01*
X120135119Y-101226785D01*
X120230357Y-101274404D01*
X120325595Y-101274404D01*
X120468452Y-101226785D01*
X121039880Y-100655357D01*
X121039880Y-101274404D01*
%TO.C,D13*%
X121039880Y-117848214D02*
X120039880Y-117848214D01*
X120039880Y-118086309D01*
X120087500Y-118229166D01*
X120182738Y-118324404D01*
X120277976Y-118372023D01*
X120468452Y-118419642D01*
X120611309Y-118419642D01*
X120801785Y-118372023D01*
X120897023Y-118324404D01*
X120992261Y-118229166D01*
X121039880Y-118086309D01*
X121039880Y-117848214D01*
X121039880Y-119372023D02*
X121039880Y-118800595D01*
X121039880Y-119086309D02*
X120039880Y-119086309D01*
X120182738Y-118991071D01*
X120277976Y-118895833D01*
X120325595Y-118800595D01*
X120039880Y-119705357D02*
X120039880Y-120324404D01*
X120420833Y-119991071D01*
X120420833Y-120133928D01*
X120468452Y-120229166D01*
X120516071Y-120276785D01*
X120611309Y-120324404D01*
X120849404Y-120324404D01*
X120944642Y-120276785D01*
X120992261Y-120229166D01*
X121039880Y-120133928D01*
X121039880Y-119848214D01*
X120992261Y-119752976D01*
X120944642Y-119705357D01*
%TO.C,D14*%
X140089880Y-60698214D02*
X139089880Y-60698214D01*
X139089880Y-60936309D01*
X139137500Y-61079166D01*
X139232738Y-61174404D01*
X139327976Y-61222023D01*
X139518452Y-61269642D01*
X139661309Y-61269642D01*
X139851785Y-61222023D01*
X139947023Y-61174404D01*
X140042261Y-61079166D01*
X140089880Y-60936309D01*
X140089880Y-60698214D01*
X140089880Y-62222023D02*
X140089880Y-61650595D01*
X140089880Y-61936309D02*
X139089880Y-61936309D01*
X139232738Y-61841071D01*
X139327976Y-61745833D01*
X139375595Y-61650595D01*
X139423214Y-63079166D02*
X140089880Y-63079166D01*
X139042261Y-62841071D02*
X139756547Y-62602976D01*
X139756547Y-63222023D01*
%TO.C,D15*%
X140089880Y-79748214D02*
X139089880Y-79748214D01*
X139089880Y-79986309D01*
X139137500Y-80129166D01*
X139232738Y-80224404D01*
X139327976Y-80272023D01*
X139518452Y-80319642D01*
X139661309Y-80319642D01*
X139851785Y-80272023D01*
X139947023Y-80224404D01*
X140042261Y-80129166D01*
X140089880Y-79986309D01*
X140089880Y-79748214D01*
X140089880Y-81272023D02*
X140089880Y-80700595D01*
X140089880Y-80986309D02*
X139089880Y-80986309D01*
X139232738Y-80891071D01*
X139327976Y-80795833D01*
X139375595Y-80700595D01*
X139089880Y-82176785D02*
X139089880Y-81700595D01*
X139566071Y-81652976D01*
X139518452Y-81700595D01*
X139470833Y-81795833D01*
X139470833Y-82033928D01*
X139518452Y-82129166D01*
X139566071Y-82176785D01*
X139661309Y-82224404D01*
X139899404Y-82224404D01*
X139994642Y-82176785D01*
X140042261Y-82129166D01*
X140089880Y-82033928D01*
X140089880Y-81795833D01*
X140042261Y-81700595D01*
X139994642Y-81652976D01*
%TO.C,D16*%
X140089880Y-98798214D02*
X139089880Y-98798214D01*
X139089880Y-99036309D01*
X139137500Y-99179166D01*
X139232738Y-99274404D01*
X139327976Y-99322023D01*
X139518452Y-99369642D01*
X139661309Y-99369642D01*
X139851785Y-99322023D01*
X139947023Y-99274404D01*
X140042261Y-99179166D01*
X140089880Y-99036309D01*
X140089880Y-98798214D01*
X140089880Y-100322023D02*
X140089880Y-99750595D01*
X140089880Y-100036309D02*
X139089880Y-100036309D01*
X139232738Y-99941071D01*
X139327976Y-99845833D01*
X139375595Y-99750595D01*
X139089880Y-101179166D02*
X139089880Y-100988690D01*
X139137500Y-100893452D01*
X139185119Y-100845833D01*
X139327976Y-100750595D01*
X139518452Y-100702976D01*
X139899404Y-100702976D01*
X139994642Y-100750595D01*
X140042261Y-100798214D01*
X140089880Y-100893452D01*
X140089880Y-101083928D01*
X140042261Y-101179166D01*
X139994642Y-101226785D01*
X139899404Y-101274404D01*
X139661309Y-101274404D01*
X139566071Y-101226785D01*
X139518452Y-101179166D01*
X139470833Y-101083928D01*
X139470833Y-100893452D01*
X139518452Y-100798214D01*
X139566071Y-100750595D01*
X139661309Y-100702976D01*
%TO.C,D17*%
X140089880Y-117848214D02*
X139089880Y-117848214D01*
X139089880Y-118086309D01*
X139137500Y-118229166D01*
X139232738Y-118324404D01*
X139327976Y-118372023D01*
X139518452Y-118419642D01*
X139661309Y-118419642D01*
X139851785Y-118372023D01*
X139947023Y-118324404D01*
X140042261Y-118229166D01*
X140089880Y-118086309D01*
X140089880Y-117848214D01*
X140089880Y-119372023D02*
X140089880Y-118800595D01*
X140089880Y-119086309D02*
X139089880Y-119086309D01*
X139232738Y-118991071D01*
X139327976Y-118895833D01*
X139375595Y-118800595D01*
X139089880Y-119705357D02*
X139089880Y-120372023D01*
X140089880Y-119943452D01*
%TD*%
M02*
