M48
; DRILL file {KiCad (5.1.9)-1} date 04/16/21 17:12:56
; FORMAT={-:-/ absolute / metric / decimal}
; #@! TF.CreationDate,2021-04-16T17:12:56+08:00
; #@! TF.GenerationSoftware,Kicad,Pcbnew,(5.1.9)-1
; #@! TF.FileFunction,Plated,1,2,PTH
FMAT,2
METRIC
T1C0.400
T2C0.800
T3C1.000
T4C1.092
T5C1.470
T6C1.500
%
G90
G05
T1
X30.956Y-42.069
X34.114Y-56.009
X34.119Y-54.988
X34.131Y-53.975
X34.144Y-52.962
X42.862Y-56.356
X43.656Y-55.562
X45.681Y-22.662
X46.038Y-24.606
X46.038Y-53.181
X46.038Y-54.769
X47.625Y-25.4
X49.212Y-26.194
X66.516Y-38.962
X66.516Y-42.227
X85.566Y-39.528
X104.616Y-40.391
X123.666Y-41.116
T2
X53.975Y-27.781
X53.975Y-35.401
X53.975Y-46.831
X53.975Y-54.451
X53.975Y-65.881
X53.975Y-73.501
X53.975Y-84.931
X53.975Y-92.551
X73.025Y-27.781
X73.025Y-35.401
X73.025Y-46.831
X73.025Y-54.451
X73.025Y-65.881
X73.025Y-73.501
X73.025Y-84.931
X73.025Y-92.551
X92.075Y-27.781
X92.075Y-35.401
X92.075Y-46.831
X92.075Y-54.451
X92.075Y-65.881
X92.075Y-73.501
X92.075Y-84.931
X92.075Y-92.551
X110.332Y-27.781
X110.332Y-35.401
X111.125Y-46.831
X111.125Y-54.451
X111.125Y-65.881
X111.125Y-73.501
X111.125Y-84.931
X111.125Y-92.551
X166.688Y-51.911
X166.688Y-59.531
T3
X32.544Y-61.119
X35.084Y-61.119
X37.624Y-61.119
X40.164Y-61.119
X60.206Y-22.662
X60.206Y-37.163
X62.706Y-22.662
X65.206Y-22.662
X65.206Y-37.163
X117.356Y-22.662
X117.356Y-37.163
X119.856Y-22.662
X122.356Y-22.662
X122.356Y-37.163
X154.663Y-51.737
X154.663Y-66.237
X157.163Y-66.237
X159.663Y-51.737
X159.663Y-66.237
T4
X24.924Y-24.13
X24.924Y-26.67
X24.924Y-29.21
X24.924Y-31.75
X24.924Y-34.29
X24.924Y-36.83
X24.924Y-39.37
X24.924Y-41.91
X24.924Y-44.45
X24.924Y-46.99
X24.924Y-49.53
X24.924Y-52.07
X40.164Y-24.13
X40.164Y-26.67
X40.164Y-29.21
X40.164Y-31.75
X40.164Y-34.29
X40.164Y-36.83
X40.164Y-39.37
X40.164Y-41.91
X40.164Y-44.45
X40.164Y-46.99
X40.164Y-49.53
X40.164Y-52.07
T5
X60.166Y-35.242
X60.166Y-54.292
X60.166Y-73.342
X60.166Y-92.392
X66.516Y-32.703
X66.516Y-51.752
X66.516Y-70.802
X66.516Y-89.852
X79.216Y-35.242
X79.216Y-54.292
X79.216Y-73.342
X79.216Y-92.392
X85.566Y-32.703
X85.566Y-51.752
X85.566Y-70.802
X85.566Y-89.852
X98.266Y-35.242
X98.266Y-54.292
X98.266Y-73.342
X98.266Y-92.392
X104.616Y-32.703
X104.616Y-51.752
X104.616Y-70.802
X104.616Y-89.852
X117.316Y-35.242
X117.316Y-54.292
X117.316Y-73.342
X117.316Y-92.392
X123.666Y-32.703
X123.666Y-51.752
X123.666Y-70.802
X123.666Y-89.852
T6
G00X57.106Y-29.512
M15
G01X57.106Y-30.812
M16
G05
G00X68.306Y-29.512
M15
G01X68.306Y-30.812
M16
G05
G00X114.256Y-29.512
M15
G01X114.256Y-30.812
M16
G05
G00X125.456Y-29.512
M15
G01X125.456Y-30.812
M16
G05
G00X151.563Y-59.387
M15
G01X151.563Y-58.087
M16
G05
G00X162.763Y-59.387
M15
G01X162.763Y-58.087
M16
G05
T0
M30
