M48
; DRILL file {KiCad (5.1.9)-1} date 04/16/21 17:12:56
; FORMAT={-:-/ absolute / metric / decimal}
; #@! TF.CreationDate,2021-04-16T17:12:56+08:00
; #@! TF.GenerationSoftware,Kicad,Pcbnew,(5.1.9)-1
; #@! TF.FileFunction,NonPlated,1,2,NPTH
FMAT,2
METRIC
T1C0.500
T2C0.508
T3C0.787
T4C1.270
T5C1.750
T6C3.988
%
G90
G05
T3
X62.547Y-97.091
X62.547Y-100.552
X63.817Y-97.091
X63.817Y-100.552
X65.087Y-97.091
X65.087Y-100.552
X66.358Y-97.091
X66.358Y-100.552
X67.627Y-97.091
X67.627Y-100.552
X99.06Y-97.091
X99.06Y-100.552
X100.33Y-97.091
X100.33Y-100.552
X101.6Y-97.091
X101.6Y-100.552
X102.87Y-97.091
X102.87Y-100.552
X104.14Y-97.091
X104.14Y-100.552
X131.604Y-97.091
X131.604Y-100.552
X132.874Y-97.091
X132.874Y-100.552
X134.144Y-97.091
X134.144Y-100.552
X135.414Y-97.091
X135.414Y-100.552
X136.684Y-97.091
X136.684Y-100.552
X168.116Y-97.091
X168.116Y-100.552
X169.386Y-97.091
X169.386Y-100.552
X170.656Y-97.091
X170.656Y-100.552
X171.926Y-97.091
X171.926Y-100.552
X173.196Y-97.091
X173.196Y-100.552
T5
X57.626Y-30.162
X57.626Y-49.212
X57.626Y-68.262
X57.626Y-87.312
X67.786Y-30.162
X67.786Y-49.212
X67.786Y-68.262
X67.786Y-87.312
X76.676Y-30.162
X76.676Y-49.212
X76.676Y-68.262
X76.676Y-87.312
X86.836Y-30.162
X86.836Y-49.212
X86.836Y-68.262
X86.836Y-87.312
X95.726Y-30.162
X95.726Y-49.212
X95.726Y-68.262
X95.726Y-87.312
X105.886Y-30.162
X105.886Y-49.212
X105.886Y-68.262
X105.886Y-87.312
X114.776Y-30.162
X114.776Y-49.212
X114.776Y-68.262
X114.776Y-87.312
X124.936Y-30.162
X124.936Y-49.212
X124.936Y-68.262
X124.936Y-87.312
T6
X62.706Y-30.162
X62.706Y-49.212
X62.706Y-68.262
X62.706Y-87.312
X81.756Y-30.162
X81.756Y-49.212
X81.756Y-68.262
X81.756Y-87.312
X100.806Y-30.162
X100.806Y-49.212
X100.806Y-68.262
X100.806Y-87.312
X119.856Y-30.162
X119.856Y-49.212
X119.856Y-68.262
X119.856Y-87.312
T1
G00X151.312Y-132.906
M15
G01X151.312Y-144.906
M16
G05
G00X151.312Y-132.906
M15
G01X163.012Y-132.906
M16
G05
T2
G00X55.15Y-103.6
M15
G01X55.15Y-107.664
M16
G05
G00X55.15Y-112.998
M15
G01X55.15Y-117.062
M16
G05
G00X55.15Y-122.65
M15
G01X55.15Y-126.714
M16
G05
G00X55.15Y-132.048
M15
G01X55.15Y-136.112
M16
G05
G00X55.15Y-141.7
M15
G01X55.15Y-145.764
M16
G05
G00X55.15Y-151.098
M15
G01X55.15Y-155.162
M16
G05
G00X55.15Y-160.75
M15
G01X55.15Y-164.814
M16
G05
G00X55.15Y-170.148
M15
G01X55.15Y-174.212
M16
G05
G00X55.15Y-107.664
M15
G01X55.975Y-107.664
M16
G05
G00X55.15Y-112.998
M15
G01X55.975Y-112.998
M16
G05
G00X55.15Y-126.714
M15
G01X55.975Y-126.714
M16
G05
G00X55.15Y-132.048
M15
G01X55.975Y-132.048
M16
G05
G00X55.15Y-145.764
M15
G01X55.975Y-145.764
M16
G05
G00X55.15Y-151.098
M15
G01X55.975Y-151.098
M16
G05
G00X55.15Y-164.814
M15
G01X55.975Y-164.814
M16
G05
G00X55.15Y-170.148
M15
G01X55.975Y-170.148
M16
G05
G00X55.975Y-107.664
M15
G01X55.975Y-112.998
M16
G05
G00X55.975Y-126.714
M15
G01X55.975Y-132.048
M16
G05
G00X55.975Y-145.764
M15
G01X55.975Y-151.098
M16
G05
G00X55.975Y-164.814
M15
G01X55.975Y-170.148
M16
G05
G00X55.162Y-103.6
M15
G01X70.25Y-103.6
M16
G05
G00X55.162Y-117.062
M15
G01X70.25Y-117.062
M16
G05
G00X55.162Y-122.65
M15
G01X70.25Y-122.65
M16
G05
G00X55.162Y-136.112
M15
G01X70.25Y-136.112
M16
G05
G00X55.162Y-141.7
M15
G01X70.25Y-141.7
M16
G05
G00X55.162Y-155.162
M15
G01X70.25Y-155.162
M16
G05
G00X55.162Y-160.75
M15
G01X70.25Y-160.75
M16
G05
G00X55.162Y-174.212
M15
G01X70.25Y-174.212
M16
G05
G00X69.437Y-107.664
M15
G01X69.437Y-112.998
M16
G05
G00X69.437Y-126.714
M15
G01X69.437Y-132.048
M16
G05
G00X69.437Y-145.764
M15
G01X69.437Y-151.098
M16
G05
G00X69.437Y-164.814
M15
G01X69.437Y-170.148
M16
G05
G00X69.437Y-107.664
M15
G01X70.263Y-107.664
M16
G05
G00X69.437Y-112.998
M15
G01X70.263Y-112.998
M16
G05
G00X69.437Y-126.714
M15
G01X70.263Y-126.714
M16
G05
G00X69.437Y-132.048
M15
G01X70.263Y-132.048
M16
G05
G00X69.437Y-145.764
M15
G01X70.263Y-145.764
M16
G05
G00X69.437Y-151.098
M15
G01X70.263Y-151.098
M16
G05
G00X69.437Y-164.814
M15
G01X70.263Y-164.814
M16
G05
G00X69.437Y-170.148
M15
G01X70.263Y-170.148
M16
G05
G00X70.263Y-103.6
M15
G01X70.263Y-107.664
M16
G05
G00X70.263Y-112.998
M15
G01X70.263Y-117.062
M16
G05
G00X70.263Y-122.65
M15
G01X70.263Y-126.714
M16
G05
G00X70.263Y-132.048
M15
G01X70.263Y-136.112
M16
G05
G00X70.263Y-141.7
M15
G01X70.263Y-145.764
M16
G05
G00X70.263Y-151.098
M15
G01X70.263Y-155.162
M16
G05
G00X70.263Y-160.75
M15
G01X70.263Y-164.814
M16
G05
G00X70.263Y-170.148
M15
G01X70.263Y-174.212
M16
G05
G00X74.2Y-103.6
M15
G01X74.2Y-107.664
M16
G05
G00X74.2Y-112.998
M15
G01X74.2Y-117.062
M16
G05
G00X74.2Y-122.65
M15
G01X74.2Y-126.714
M16
G05
G00X74.2Y-132.048
M15
G01X74.2Y-136.112
M16
G05
G00X74.2Y-141.7
M15
G01X74.2Y-145.764
M16
G05
G00X74.2Y-151.098
M15
G01X74.2Y-155.162
M16
G05
G00X74.2Y-160.75
M15
G01X74.2Y-164.814
M16
G05
G00X74.2Y-170.148
M15
G01X74.2Y-174.212
M16
G05
G00X74.2Y-107.664
M15
G01X75.025Y-107.664
M16
G05
G00X74.2Y-112.998
M15
G01X75.025Y-112.998
M16
G05
G00X74.2Y-126.714
M15
G01X75.025Y-126.714
M16
G05
G00X74.2Y-132.048
M15
G01X75.025Y-132.048
M16
G05
G00X74.2Y-145.764
M15
G01X75.025Y-145.764
M16
G05
G00X74.2Y-151.098
M15
G01X75.025Y-151.098
M16
G05
G00X74.2Y-164.814
M15
G01X75.025Y-164.814
M16
G05
G00X74.2Y-170.148
M15
G01X75.025Y-170.148
M16
G05
G00X75.025Y-107.664
M15
G01X75.025Y-112.998
M16
G05
G00X75.025Y-126.714
M15
G01X75.025Y-132.048
M16
G05
G00X75.025Y-145.764
M15
G01X75.025Y-151.098
M16
G05
G00X75.025Y-164.814
M15
G01X75.025Y-170.148
M16
G05
G00X74.212Y-103.6
M15
G01X89.3Y-103.6
M16
G05
G00X74.212Y-117.062
M15
G01X89.3Y-117.062
M16
G05
G00X74.212Y-122.65
M15
G01X89.3Y-122.65
M16
G05
G00X74.212Y-136.112
M15
G01X89.3Y-136.112
M16
G05
G00X74.212Y-141.7
M15
G01X89.3Y-141.7
M16
G05
G00X74.212Y-155.162
M15
G01X89.3Y-155.162
M16
G05
G00X74.212Y-160.75
M15
G01X89.3Y-160.75
M16
G05
G00X74.212Y-174.212
M15
G01X89.3Y-174.212
M16
G05
G00X88.487Y-107.664
M15
G01X88.487Y-112.998
M16
G05
G00X88.487Y-126.714
M15
G01X88.487Y-132.048
M16
G05
G00X88.487Y-145.764
M15
G01X88.487Y-151.098
M16
G05
G00X88.487Y-164.814
M15
G01X88.487Y-170.148
M16
G05
G00X88.487Y-107.664
M15
G01X89.313Y-107.664
M16
G05
G00X88.487Y-112.998
M15
G01X89.313Y-112.998
M16
G05
G00X88.487Y-126.714
M15
G01X89.313Y-126.714
M16
G05
G00X88.487Y-132.048
M15
G01X89.313Y-132.048
M16
G05
G00X88.487Y-145.764
M15
G01X89.313Y-145.764
M16
G05
G00X88.487Y-151.098
M15
G01X89.313Y-151.098
M16
G05
G00X88.487Y-164.814
M15
G01X89.313Y-164.814
M16
G05
G00X88.487Y-170.148
M15
G01X89.313Y-170.148
M16
G05
G00X89.313Y-103.6
M15
G01X89.313Y-107.664
M16
G05
G00X89.313Y-112.998
M15
G01X89.313Y-117.062
M16
G05
G00X89.313Y-122.65
M15
G01X89.313Y-126.714
M16
G05
G00X89.313Y-132.048
M15
G01X89.313Y-136.112
M16
G05
G00X89.313Y-141.7
M15
G01X89.313Y-145.764
M16
G05
G00X89.313Y-151.098
M15
G01X89.313Y-155.162
M16
G05
G00X89.313Y-160.75
M15
G01X89.313Y-164.814
M16
G05
G00X89.313Y-170.148
M15
G01X89.313Y-174.212
M16
G05
G00X93.25Y-103.6
M15
G01X93.25Y-107.664
M16
G05
G00X93.25Y-112.998
M15
G01X93.25Y-117.062
M16
G05
G00X93.25Y-122.65
M15
G01X93.25Y-126.714
M16
G05
G00X93.25Y-132.048
M15
G01X93.25Y-136.112
M16
G05
G00X93.25Y-141.7
M15
G01X93.25Y-145.764
M16
G05
G00X93.25Y-151.098
M15
G01X93.25Y-155.162
M16
G05
G00X93.25Y-160.75
M15
G01X93.25Y-164.814
M16
G05
G00X93.25Y-170.148
M15
G01X93.25Y-174.212
M16
G05
G00X93.25Y-107.664
M15
G01X94.075Y-107.664
M16
G05
G00X93.25Y-112.998
M15
G01X94.075Y-112.998
M16
G05
G00X93.25Y-126.714
M15
G01X94.075Y-126.714
M16
G05
G00X93.25Y-132.048
M15
G01X94.075Y-132.048
M16
G05
G00X93.25Y-145.764
M15
G01X94.075Y-145.764
M16
G05
G00X93.25Y-151.098
M15
G01X94.075Y-151.098
M16
G05
G00X93.25Y-164.814
M15
G01X94.075Y-164.814
M16
G05
G00X93.25Y-170.148
M15
G01X94.075Y-170.148
M16
G05
G00X94.075Y-107.664
M15
G01X94.075Y-112.998
M16
G05
G00X94.075Y-126.714
M15
G01X94.075Y-132.048
M16
G05
G00X94.075Y-145.764
M15
G01X94.075Y-151.098
M16
G05
G00X94.075Y-164.814
M15
G01X94.075Y-170.148
M16
G05
G00X93.262Y-103.6
M15
G01X108.35Y-103.6
M16
G05
G00X93.262Y-117.062
M15
G01X108.35Y-117.062
M16
G05
G00X93.262Y-122.65
M15
G01X108.35Y-122.65
M16
G05
G00X93.262Y-136.112
M15
G01X108.35Y-136.112
M16
G05
G00X93.262Y-141.7
M15
G01X108.35Y-141.7
M16
G05
G00X93.262Y-155.162
M15
G01X108.35Y-155.162
M16
G05
G00X93.262Y-160.75
M15
G01X108.35Y-160.75
M16
G05
G00X93.262Y-174.212
M15
G01X108.35Y-174.212
M16
G05
G00X107.537Y-107.664
M15
G01X107.537Y-112.998
M16
G05
G00X107.537Y-126.714
M15
G01X107.537Y-132.048
M16
G05
G00X107.537Y-145.764
M15
G01X107.537Y-151.098
M16
G05
G00X107.537Y-164.814
M15
G01X107.537Y-170.148
M16
G05
G00X107.537Y-107.664
M15
G01X108.363Y-107.664
M16
G05
G00X107.537Y-112.998
M15
G01X108.363Y-112.998
M16
G05
G00X107.537Y-126.714
M15
G01X108.363Y-126.714
M16
G05
G00X107.537Y-132.048
M15
G01X108.363Y-132.048
M16
G05
G00X107.537Y-145.764
M15
G01X108.363Y-145.764
M16
G05
G00X107.537Y-151.098
M15
G01X108.363Y-151.098
M16
G05
G00X107.537Y-164.814
M15
G01X108.363Y-164.814
M16
G05
G00X107.537Y-170.148
M15
G01X108.363Y-170.148
M16
G05
G00X108.363Y-103.6
M15
G01X108.363Y-107.664
M16
G05
G00X108.363Y-112.998
M15
G01X108.363Y-117.062
M16
G05
G00X108.363Y-122.65
M15
G01X108.363Y-126.714
M16
G05
G00X108.363Y-132.048
M15
G01X108.363Y-136.112
M16
G05
G00X108.363Y-141.7
M15
G01X108.363Y-145.764
M16
G05
G00X108.363Y-151.098
M15
G01X108.363Y-155.162
M16
G05
G00X108.363Y-160.75
M15
G01X108.363Y-164.814
M16
G05
G00X108.363Y-170.148
M15
G01X108.363Y-174.212
M16
G05
G00X112.3Y-103.6
M15
G01X112.3Y-107.664
M16
G05
G00X112.3Y-112.998
M15
G01X112.3Y-117.062
M16
G05
G00X112.3Y-122.65
M15
G01X112.3Y-126.714
M16
G05
G00X112.3Y-132.048
M15
G01X112.3Y-136.112
M16
G05
G00X112.3Y-141.7
M15
G01X112.3Y-145.764
M16
G05
G00X112.3Y-151.098
M15
G01X112.3Y-155.162
M16
G05
G00X112.3Y-160.75
M15
G01X112.3Y-164.814
M16
G05
G00X112.3Y-170.148
M15
G01X112.3Y-174.212
M16
G05
G00X112.3Y-107.664
M15
G01X113.125Y-107.664
M16
G05
G00X112.3Y-112.998
M15
G01X113.125Y-112.998
M16
G05
G00X112.3Y-126.714
M15
G01X113.125Y-126.714
M16
G05
G00X112.3Y-132.048
M15
G01X113.125Y-132.048
M16
G05
G00X112.3Y-145.764
M15
G01X113.125Y-145.764
M16
G05
G00X112.3Y-151.098
M15
G01X113.125Y-151.098
M16
G05
G00X112.3Y-164.814
M15
G01X113.125Y-164.814
M16
G05
G00X112.3Y-170.148
M15
G01X113.125Y-170.148
M16
G05
G00X113.125Y-107.664
M15
G01X113.125Y-112.998
M16
G05
G00X113.125Y-126.714
M15
G01X113.125Y-132.048
M16
G05
G00X113.125Y-145.764
M15
G01X113.125Y-151.098
M16
G05
G00X113.125Y-164.814
M15
G01X113.125Y-170.148
M16
G05
G00X112.312Y-103.6
M15
G01X127.4Y-103.6
M16
G05
G00X112.312Y-117.062
M15
G01X127.4Y-117.062
M16
G05
G00X112.312Y-122.65
M15
G01X127.4Y-122.65
M16
G05
G00X112.312Y-136.112
M15
G01X127.4Y-136.112
M16
G05
G00X112.312Y-141.7
M15
G01X127.4Y-141.7
M16
G05
G00X112.312Y-155.162
M15
G01X127.4Y-155.162
M16
G05
G00X112.312Y-160.75
M15
G01X127.4Y-160.75
M16
G05
G00X112.312Y-174.212
M15
G01X127.4Y-174.212
M16
G05
G00X126.587Y-107.664
M15
G01X126.587Y-112.998
M16
G05
G00X126.587Y-126.714
M15
G01X126.587Y-132.048
M16
G05
G00X126.587Y-145.764
M15
G01X126.587Y-151.098
M16
G05
G00X126.587Y-164.814
M15
G01X126.587Y-170.148
M16
G05
G00X126.587Y-107.664
M15
G01X127.413Y-107.664
M16
G05
G00X126.587Y-112.998
M15
G01X127.413Y-112.998
M16
G05
G00X126.587Y-126.714
M15
G01X127.413Y-126.714
M16
G05
G00X126.587Y-132.048
M15
G01X127.413Y-132.048
M16
G05
G00X126.587Y-145.764
M15
G01X127.413Y-145.764
M16
G05
G00X126.587Y-151.098
M15
G01X127.413Y-151.098
M16
G05
G00X126.587Y-164.814
M15
G01X127.413Y-164.814
M16
G05
G00X126.587Y-170.148
M15
G01X127.413Y-170.148
M16
G05
G00X127.413Y-103.6
M15
G01X127.413Y-107.664
M16
G05
G00X127.413Y-112.998
M15
G01X127.413Y-117.062
M16
G05
G00X127.413Y-122.65
M15
G01X127.413Y-126.714
M16
G05
G00X127.413Y-132.048
M15
G01X127.413Y-136.112
M16
G05
G00X127.413Y-141.7
M15
G01X127.413Y-145.764
M16
G05
G00X127.413Y-151.098
M15
G01X127.413Y-155.162
M16
G05
G00X127.413Y-160.75
M15
G01X127.413Y-164.814
M16
G05
G00X127.413Y-170.148
M15
G01X127.413Y-174.212
M16
G05
G00X151.316Y-144.906
M15
G01X163.008Y-144.906
M16
G05
G00X163.012Y-132.91
M15
G01X163.012Y-144.902
M16
G05
T4
G00X60.801Y-103.346
M15
G01X64.611Y-103.346
M16
G05
G00X60.801Y-117.316
M15
G01X64.611Y-117.316
M16
G05
G00X60.801Y-122.396
M15
G01X64.611Y-122.396
M16
G05
G00X60.801Y-136.366
M15
G01X64.611Y-136.366
M16
G05
G00X60.801Y-141.446
M15
G01X64.611Y-141.446
M16
G05
G00X60.801Y-155.416
M15
G01X64.611Y-155.416
M16
G05
G00X60.801Y-160.496
M15
G01X64.611Y-160.496
M16
G05
G00X60.801Y-174.466
M15
G01X64.611Y-174.466
M16
G05
G00X79.851Y-103.346
M15
G01X83.661Y-103.346
M16
G05
G00X79.851Y-117.316
M15
G01X83.661Y-117.316
M16
G05
G00X79.851Y-122.396
M15
G01X83.661Y-122.396
M16
G05
G00X79.851Y-136.366
M15
G01X83.661Y-136.366
M16
G05
G00X79.851Y-141.446
M15
G01X83.661Y-141.446
M16
G05
G00X79.851Y-155.416
M15
G01X83.661Y-155.416
M16
G05
G00X79.851Y-160.496
M15
G01X83.661Y-160.496
M16
G05
G00X79.851Y-174.466
M15
G01X83.661Y-174.466
M16
G05
G00X98.901Y-103.346
M15
G01X102.711Y-103.346
M16
G05
G00X98.901Y-117.316
M15
G01X102.711Y-117.316
M16
G05
G00X98.901Y-122.396
M15
G01X102.711Y-122.396
M16
G05
G00X98.901Y-136.366
M15
G01X102.711Y-136.366
M16
G05
G00X98.901Y-141.446
M15
G01X102.711Y-141.446
M16
G05
G00X98.901Y-155.416
M15
G01X102.711Y-155.416
M16
G05
G00X98.901Y-160.496
M15
G01X102.711Y-160.496
M16
G05
G00X98.901Y-174.466
M15
G01X102.711Y-174.466
M16
G05
G00X117.951Y-103.346
M15
G01X121.761Y-103.346
M16
G05
G00X117.951Y-117.316
M15
G01X121.761Y-117.316
M16
G05
G00X117.951Y-122.396
M15
G01X121.761Y-122.396
M16
G05
G00X117.951Y-136.366
M15
G01X121.761Y-136.366
M16
G05
G00X117.951Y-141.446
M15
G01X121.761Y-141.446
M16
G05
G00X117.951Y-155.416
M15
G01X121.761Y-155.416
M16
G05
G00X117.951Y-160.496
M15
G01X121.761Y-160.496
M16
G05
G00X117.951Y-174.466
M15
G01X121.761Y-174.466
M16
G05
T0
M30
