M48
; DRILL file {KiCad (5.1.9)-1} date 03/11/21 10:21:20
; FORMAT={-:-/ absolute / inch / decimal}
; #@! TF.CreationDate,2021-03-11T10:21:20+08:00
; #@! TF.GenerationSoftware,Kicad,Pcbnew,(5.1.9)-1
; #@! TF.FileFunction,Plated,1,2,PTH
FMAT,2
INCH
T1C0.0157
T2C0.0394
T3C0.0430
T4C0.0579
T5C0.0591
%
G90
G05
T1
X2.7188Y-2.5
X2.75Y-2.375
X3.0625Y-2.25
X3.125Y-2.25
X3.125Y-4.0938
X3.125Y-4.1562
X3.1875Y-2.3125
X3.1875Y-4.5625
X3.1938Y-3.8687
X3.25Y-2.3125
X3.8375Y-2.8406
X3.8375Y-3.475
X3.875Y-4.375
X3.9062Y-3.75
X3.9688Y-3.7812
X3.9688Y-4.25
X4.5875Y-2.85
X5.3375Y-3.0162
X5.5Y-2.9688
X5.5Y-3.5312
X5.6562Y-3.7812
X5.8125Y-4.375
X6.0875Y-3.0562
T2
X2.5Y-3.6562
X2.6Y-3.6562
X2.7Y-3.6562
X2.8Y-3.6562
X3.5891Y-2.1422
X3.5891Y-2.7131
X3.6875Y-2.1422
X3.7859Y-2.1422
X3.7859Y-2.7131
X5.8391Y-2.1422
X5.8391Y-2.7131
X5.9375Y-2.1422
X6.0359Y-2.1422
X6.0359Y-2.7131
X7.3078Y-3.2869
X7.3078Y-3.8578
X7.4062Y-3.8578
X7.5047Y-3.2869
X7.5047Y-3.8578
T3
X2.325Y-2.2
X2.325Y-2.3
X2.325Y-2.4
X2.325Y-2.5
X2.325Y-2.6
X2.325Y-2.7
X2.325Y-2.8
X2.325Y-2.9
X2.325Y-3.0
X2.325Y-3.1
X2.325Y-3.2
X2.325Y-3.3
X2.925Y-2.2
X2.925Y-2.3
X2.925Y-2.4
X2.925Y-2.5
X2.925Y-2.6
X2.925Y-2.7
X2.925Y-2.8
X2.925Y-2.9
X2.925Y-3.0
X2.925Y-3.1
X2.925Y-3.2
X2.925Y-3.3
T4
X3.5875Y-2.6375
X3.5875Y-3.3875
X3.5875Y-4.1375
X3.5875Y-4.8875
X3.8375Y-2.5375
X3.8375Y-3.2875
X3.8375Y-4.0375
X3.8375Y-4.7875
X4.3375Y-2.6375
X4.3375Y-3.3875
X4.3375Y-4.1375
X4.3375Y-4.8875
X4.5875Y-2.5375
X4.5875Y-3.2875
X4.5875Y-4.0375
X4.5875Y-4.7875
X5.0875Y-2.6375
X5.0875Y-3.3875
X5.0875Y-4.1375
X5.0875Y-4.8875
X5.3375Y-2.5375
X5.3375Y-3.2875
X5.3375Y-4.0375
X5.3375Y-4.7875
X5.8375Y-2.6375
X5.8375Y-3.3875
X5.8375Y-4.1375
X5.8375Y-4.8875
X6.0875Y-2.5375
X6.0875Y-3.2875
X6.0875Y-4.0375
X6.0875Y-4.7875
T5
G00X3.467Y-2.4119
M15
G01X3.467Y-2.4631
M16
G05
G00X3.908Y-2.4119
M15
G01X3.908Y-2.4631
M16
G05
G00X5.717Y-2.4119
M15
G01X5.717Y-2.4631
M16
G05
G00X6.158Y-2.4119
M15
G01X6.158Y-2.4631
M16
G05
G00X7.1858Y-3.5881
M15
G01X7.1858Y-3.5369
M16
G05
G00X7.6267Y-3.5881
M15
G01X7.6267Y-3.5369
M16
G05
T0
M30
